<?xml version="1.0" encoding="utf-8"?>
<!-- Generator: Adobe Illustrator 16.0.0, SVG Export Plug-In . SVG Version: 6.00 Build 0)  -->
<svg version="1.1" id="Layer_1" xmlns="http://www.w3.org/2000/svg" xmlns:xlink="http://www.w3.org/1999/xlink" x="0px" y="0px"
	 width="323.355px" height="175.566px" viewBox="0 0 323.355 175.566" enable-background="new 0 0 323.355 175.566"
	 xml:space="preserve">
<line fill="none" stroke="#999999" stroke-width="0.5" stroke-miterlimit="2.613" x1="25.84" y1="139.606" x2="315.14" y2="139.606"/>
<line fill="none" stroke="#999999" stroke-width="0.5" stroke-miterlimit="2.613" x1="25.84" y1="120.094" x2="315.14" y2="120.094"/>
<line fill="none" stroke="#999999" stroke-width="0.5" stroke-miterlimit="2.613" x1="25.84" y1="100.519" x2="315.14" y2="100.519"/>
<line fill="none" stroke="#999999" stroke-width="0.5" stroke-miterlimit="2.613" x1="25.84" y1="81.007" x2="315.14" y2="81.007"/>
<line fill="none" stroke="#999999" stroke-width="0.5" stroke-miterlimit="2.613" x1="25.84" y1="61.432" x2="315.14" y2="61.432"/>
<line fill="none" stroke="#999999" stroke-width="0.5" stroke-miterlimit="2.613" x1="25.84" y1="41.919" x2="315.14" y2="41.919"/>
<line fill="none" stroke="#999999" stroke-width="0.5" stroke-miterlimit="2.613" x1="25.84" y1="22.344" x2="315.14" y2="22.344"/>
<line fill="none" stroke="#999999" stroke-width="0.5" stroke-miterlimit="2.613" x1="25.84" y1="2.819" x2="315.14" y2="2.819"/>
<line fill="none" stroke="#999999" stroke-width="0.5" stroke-miterlimit="2.613" x1="83.712" y1="2.819" x2="83.712" y2="159.167"/>
<line fill="none" stroke="#999999" stroke-width="0.5" stroke-miterlimit="2.613" x1="141.561" y1="2.819" x2="141.561" y2="159.167"/>
<line fill="none" stroke="#999999" stroke-width="0.5" stroke-miterlimit="2.613" x1="199.405" y1="2.819" x2="199.405" y2="159.167"/>
<line fill="none" stroke="#999999" stroke-width="0.5" stroke-miterlimit="2.613" x1="257.253" y1="2.819" x2="257.253" y2="159.167"/>
<line fill="none" stroke="#999999" stroke-width="0.5" stroke-miterlimit="2.613" x1="315.139" y1="2.819" x2="315.139" y2="159.167"/>
<line fill="none" stroke="#000000" stroke-width="0.5" stroke-miterlimit="2.613" x1="25.84" y1="159.165" x2="25.84" y2="2.816"/>
<line fill="none" stroke="#000000" stroke-width="0.5" stroke-miterlimit="2.613" x1="22.767" y1="159.165" x2="25.84" y2="159.165"/>
<line fill="none" stroke="#000000" stroke-width="0.5" stroke-miterlimit="2.613" x1="22.767" y1="139.606" x2="25.84" y2="139.606"/>
<line fill="none" stroke="#000000" stroke-width="0.5" stroke-miterlimit="2.613" x1="22.767" y1="120.094" x2="25.84" y2="120.094"/>
<line fill="none" stroke="#000000" stroke-width="0.5" stroke-miterlimit="2.613" x1="22.767" y1="100.519" x2="25.84" y2="100.519"/>
<line fill="none" stroke="#000000" stroke-width="0.5" stroke-miterlimit="2.613" x1="22.767" y1="81.007" x2="25.84" y2="81.007"/>
<line fill="none" stroke="#000000" stroke-width="0.5" stroke-miterlimit="2.613" x1="22.767" y1="61.432" x2="25.84" y2="61.432"/>
<line fill="none" stroke="#000000" stroke-width="0.5" stroke-miterlimit="2.613" x1="22.767" y1="41.919" x2="25.84" y2="41.919"/>
<line fill="none" stroke="#000000" stroke-width="0.5" stroke-miterlimit="2.613" x1="22.767" y1="22.344" x2="25.84" y2="22.344"/>
<line fill="none" stroke="#000000" stroke-width="0.5" stroke-miterlimit="2.613" x1="22.767" y1="2.819" x2="25.84" y2="2.819"/>
<line fill="none" stroke="#000000" stroke-width="0.5" stroke-miterlimit="2.613" x1="25.84" y1="159.167" x2="315.14" y2="159.167"/>
<line fill="none" stroke="#000000" stroke-width="0.5" stroke-miterlimit="2.613" x1="25.84" y1="159.167" x2="25.84" y2="162.24"/>
<line fill="none" stroke="#000000" stroke-width="0.5" stroke-miterlimit="2.613" x1="83.712" y1="159.167" x2="83.712" y2="162.24"/>
<line fill="none" stroke="#000000" stroke-width="0.5" stroke-miterlimit="2.613" x1="141.561" y1="159.167" x2="141.561" y2="162.24"/>
<line fill="none" stroke="#000000" stroke-width="0.5" stroke-miterlimit="2.613" x1="199.405" y1="159.167" x2="199.405" y2="162.24"/>
<line fill="none" stroke="#000000" stroke-width="0.5" stroke-miterlimit="2.613" x1="257.253" y1="159.167" x2="257.253" y2="162.24"/>
<line fill="none" stroke="#000000" stroke-width="0.5" stroke-miterlimit="2.613" x1="315.139" y1="159.167" x2="315.139" y2="162.24"/>
<polyline fill="none" stroke="#9CBB59" stroke-width="0.5" stroke-miterlimit="2.613" points="25.839,26.398 83.711,35.059 
	141.561,28.197 199.404,26.521 257.253,53.56 315.139,100.598 "/>
<polyline fill="#9CBB59" points="25.853,23.773 28.472,29.005 23.239,29.005 25.853,23.773 "/>
<polyline fill="#9CBB59" points="83.684,32.427 86.303,37.661 81.069,37.661 83.684,32.427 "/>
<polyline fill="#9CBB59" points="141.579,25.626 144.192,30.86 138.96,30.86 141.579,25.626 "/>
<polyline fill="#9CBB59" points="199.41,23.955 202.024,29.187 196.791,29.187 199.41,23.955 "/>
<polyline fill="#9CBB59" points="257.299,50.922 259.914,56.154 254.681,56.154 257.299,50.922 "/>
<polyline fill="#9CBB59" points="315.132,97.301 317.747,102.534 312.514,102.534 315.132,97.301 "/>
<polyline fill="none" stroke="#BF2026" stroke-width="0.5" stroke-miterlimit="2.613" points="25.84,81.721 83.712,88.529 
	141.562,83.812 199.405,81.652 257.254,94.916 315.14,127.731 "/>
<path fill="#BF2026" d="M27.978,81.785c0,1.158-0.939,2.093-2.093,2.093c-1.16,0-2.093-0.935-2.093-2.093
	c0-1.155,0.933-2.093,2.093-2.093C27.039,79.692,27.978,80.629,27.978,81.785"/>
<path fill="#BF2026" d="M85.809,88.529c0,1.155-0.938,2.093-2.093,2.093s-2.093-0.938-2.093-2.093s0.938-2.093,2.093-2.093
	S85.809,87.374,85.809,88.529"/>
<path fill="#BF2026" d="M143.699,83.816c0,1.155-0.938,2.093-2.093,2.093c-1.154,0-2.093-0.938-2.093-2.093
	c0-1.159,0.938-2.093,2.093-2.093C142.762,81.723,143.699,82.657,143.699,83.816"/>
<path fill="#BF2026" d="M201.53,81.665c0,1.156-0.933,2.093-2.093,2.093c-1.154,0-2.093-0.938-2.093-2.093
	c0-1.155,0.938-2.093,2.093-2.093C200.597,79.572,201.53,80.51,201.53,81.665"/>
<path fill="#BF2026" d="M259.421,94.916c0,1.155-0.937,2.093-2.095,2.093c-1.153,0-2.091-0.938-2.091-2.093
	c0-1.158,0.938-2.093,2.091-2.093C258.485,92.823,259.421,93.758,259.421,94.916"/>
<path fill="#BF2026" d="M317.252,127.786c0,1.155-0.937,2.093-2.095,2.093c-1.153,0-2.091-0.938-2.091-2.093
	s0.938-2.093,2.091-2.093C316.316,125.693,317.252,126.63,317.252,127.786"/>
<polyline fill="none" stroke="#4E81BE" stroke-width="0.5" stroke-miterlimit="2.613" points="25.84,103.804 83.712,105.711 
	141.562,103.575 199.405,104.041 257.254,118.182 315.14,129.529 "/>
<path fill="#FFFFFF" d="M27.978,103.859c0,1.158-0.939,2.095-2.093,2.095c-1.16,0-2.093-0.938-2.093-2.095
	c0-1.154,0.933-2.091,2.093-2.091C27.039,101.768,27.978,102.705,27.978,103.859z"/>
<path fill="#4E81BE" d="M27.978,103.859c0,1.158-0.939,2.095-2.093,2.095c-1.16,0-2.093-0.938-2.093-2.095
	c0-1.154,0.933-2.091,2.093-2.091C27.039,101.768,27.978,102.705,27.978,103.859z"/>
<circle fill="#FFFFFF" cx="83.716" cy="105.772" r="2.093"/>
<circle fill="#4E81BE" cx="83.716" cy="105.772" r="2.093"/>
<circle fill="#FFFFFF" cx="141.606" cy="103.621" r="2.093"/>
<circle fill="#4E81BE" cx="141.606" cy="103.621" r="2.093"/>
<path fill="#FFFFFF" d="M201.53,104.101c0,1.153-0.933,2.091-2.093,2.091c-1.154,0-2.093-0.938-2.093-2.091
	c0-1.157,0.938-2.095,2.093-2.095C200.597,102.006,201.53,102.943,201.53,104.101z"/>
<path fill="#4E81BE" d="M201.53,104.101c0,1.153-0.933,2.091-2.093,2.091c-1.154,0-2.093-0.938-2.093-2.091
	c0-1.157,0.938-2.095,2.093-2.095C200.597,102.006,201.53,102.943,201.53,104.101z"/>
<circle fill="#FFFFFF" cx="257.329" cy="118.177" r="2.093"/>
<circle fill="#4E81BE" cx="257.329" cy="118.177" r="2.093"/>
<path fill="#FFFFFF" d="M317.252,129.575c0,1.159-0.937,2.096-2.095,2.096c-1.153,0-2.091-0.937-2.091-2.096
	c0-1.152,0.938-2.091,2.091-2.091C316.316,127.484,317.252,128.422,317.252,129.575z"/>
<path fill="#4E81BE" d="M317.252,129.575c0,1.159-0.937,2.096-2.095,2.096c-1.153,0-2.091-0.937-2.091-2.096
	c0-1.152,0.938-2.091,2.091-2.091C316.316,127.484,317.252,128.422,317.252,129.575z"/>
<g>
	<path d="M3.655,160.461c0,1.08-0.765,1.954-1.773,1.954c-0.981,0-1.71-0.864-1.71-1.891c0-1.126,0.9-1.854,1.737-1.854
		C3.322,158.67,3.655,159.93,3.655,160.461z M0.63,160.515c0,0.441,0.162,0.757,0.396,1.018c0.252,0.279,0.675,0.433,0.945,0.433
		c0.648,0,1.215-0.631,1.215-1.378c0-0.405-0.117-0.81-0.36-1.062c-0.252-0.252-0.549-0.396-0.963-0.396
		C1.144,159.129,0.63,159.75,0.63,160.515z"/>
	<path d="M5.481,161.902c0,0.288-0.207,0.522-0.504,0.522c-0.216,0-0.495-0.135-0.495-0.522c0-0.378,0.333-0.522,0.495-0.522
		C5.364,161.379,5.481,161.722,5.481,161.902z"/>
	<path d="M9.793,160.461c0,1.08-0.765,1.954-1.773,1.954c-0.981,0-1.71-0.864-1.71-1.891c0-1.126,0.9-1.854,1.737-1.854
		C9.46,158.67,9.793,159.93,9.793,160.461z M6.768,160.515c0,0.441,0.162,0.757,0.396,1.018c0.252,0.279,0.675,0.433,0.945,0.433
		c0.648,0,1.215-0.631,1.215-1.378c0-0.405-0.117-0.81-0.36-1.062c-0.252-0.252-0.549-0.396-0.963-0.396
		C7.281,159.129,6.768,159.75,6.768,160.515z"/>
	<path d="M10.647,158.949c0-0.729,0.396-1.458,1.206-1.458c0.819,0,1.162,0.811,1.162,1.359c0,0.693-0.405,1.458-1.207,1.458
		C10.989,160.308,10.647,159.543,10.647,158.949z M12.412,158.958c0-0.369-0.117-1.225-0.657-1.225
		c-0.468,0-0.513,0.711-0.513,1.099c0,0.378,0.126,1.26,0.639,1.26C12.339,160.092,12.412,159.318,12.412,158.958z M15.04,157.536
		c-1.152,1.818-1.989,3.151-3.151,4.97c-0.018,0.018-0.108,0.045-0.135,0.018c-0.09-0.081-0.126-0.198-0.108-0.225
		c1.099-1.675,1.99-3.097,3.07-4.871c0.045-0.045,0.099-0.116,0.135-0.116C14.95,157.311,15.076,157.482,15.04,157.536z
		 M13.672,161.056c0-0.738,0.414-1.459,1.224-1.459c0.819,0,1.144,0.811,1.144,1.359c0,0.693-0.387,1.459-1.188,1.459
		C13.978,162.416,13.672,161.65,13.672,161.056z M15.445,161.065c0-0.369-0.117-1.233-0.648-1.233c-0.478,0-0.522,0.72-0.522,1.107
		c0,0.378,0.126,1.251,0.648,1.251C15.364,162.19,15.445,161.425,15.445,161.065z"/>
</g>
<g>
	<path d="M3.655,140.797c0,1.08-0.765,1.954-1.773,1.954c-0.981,0-1.71-0.864-1.71-1.891c0-1.126,0.9-1.854,1.737-1.854
		C3.322,139.006,3.655,140.266,3.655,140.797z M0.63,140.851c0,0.441,0.162,0.757,0.396,1.018c0.252,0.279,0.675,0.433,0.945,0.433
		c0.648,0,1.215-0.631,1.215-1.378c0-0.405-0.117-0.81-0.36-1.062c-0.252-0.252-0.549-0.396-0.963-0.396
		C1.144,139.465,0.63,140.086,0.63,140.851z"/>
	<path d="M5.481,142.238c0,0.288-0.207,0.522-0.504,0.522c-0.216,0-0.495-0.135-0.495-0.522c0-0.378,0.333-0.522,0.495-0.522
		C5.364,141.715,5.481,142.058,5.481,142.238z"/>
	<path d="M7.254,139.501c0.009-0.036,0.126-0.153,0.171-0.171c0.243-0.145,1.144-0.343,1.377-0.343c0.036,0,0.072,0.054,0.072,0.063
		c-0.018,0.216-0.162,0.666-0.441,0.711c-0.18,0.036-0.828,0.072-1.035,0.09c-0.045,0-0.153,0.226-0.153,0.307
		c0,0.045,0.036,0.152,0.153,0.216c0.45,0.243,0.99,0.576,1.296,0.864c0.333,0.315,0.495,0.729,0.495,1.125
		c0,0.657-0.441,1.216-1.008,1.558c-0.225,0.126-0.685,0.271-0.945,0.271c-0.189,0-0.27-0.036-0.27-0.108
		c0.009-0.054,0.081-0.099,0.189-0.126c0.306-0.081,0.63-0.198,0.837-0.342c0.315-0.217,0.54-0.612,0.54-0.973
		c0-0.675-0.549-1.044-1.125-1.423c-0.468-0.314-0.495-0.495-0.495-0.558C6.912,140.5,7.11,139.717,7.254,139.501z"/>
	<path d="M10.647,139.285c0-0.729,0.396-1.458,1.206-1.458c0.819,0,1.162,0.811,1.162,1.359c0,0.693-0.405,1.458-1.207,1.458
		C10.989,140.644,10.647,139.879,10.647,139.285z M12.412,139.294c0-0.369-0.117-1.225-0.657-1.225
		c-0.468,0-0.513,0.711-0.513,1.099c0,0.378,0.126,1.26,0.639,1.26C12.339,140.428,12.412,139.654,12.412,139.294z M15.04,137.872
		c-1.152,1.818-1.989,3.151-3.151,4.97c-0.018,0.018-0.108,0.045-0.135,0.018c-0.09-0.081-0.126-0.198-0.108-0.225
		c1.099-1.675,1.99-3.097,3.07-4.871c0.045-0.045,0.099-0.116,0.135-0.116C14.95,137.647,15.076,137.818,15.04,137.872z
		 M13.672,141.392c0-0.738,0.414-1.459,1.224-1.459c0.819,0,1.144,0.811,1.144,1.359c0,0.693-0.387,1.459-1.188,1.459
		C13.978,142.751,13.672,141.986,13.672,141.392z M15.445,141.401c0-0.369-0.117-1.233-0.648-1.233c-0.478,0-0.522,0.72-0.522,1.107
		c0,0.378,0.126,1.251,0.648,1.251C15.364,142.526,15.445,141.761,15.445,141.401z"/>
</g>
<g>
	<path d="M1.188,119.441c0.171,0,0.378,0.027,0.711,0.027c0.252,0,0.504-0.036,0.756-0.036c0.126,0,0.189,0.009,0.189,0.081
		s-0.063,0.117-0.189,0.162c-0.261,0.09-0.378,0.107-0.387,0.531c-0.009,0.324-0.018,0.54-0.018,0.972c0,0.279,0,0.747,0,1.161
		c0,0.189-0.009,0.298,0.405,0.396c0.189,0.045,0.225,0.09,0.225,0.162c0,0.081-0.144,0.108-0.234,0.108
		c-0.27,0-0.504-0.027-0.783-0.027c-0.297,0-0.567,0.054-0.729,0.054c-0.18,0-0.252-0.036-0.252-0.107
		c0-0.045,0.063-0.108,0.198-0.145c0.405-0.099,0.441-0.207,0.477-0.612c0.018-0.207,0.054-0.945,0.054-1.368
		c0-0.216,0-0.414-0.009-0.567c-0.018-0.378-0.054-0.432-0.387-0.531c-0.171-0.045-0.243-0.09-0.243-0.188
		C0.973,119.468,1.054,119.441,1.188,119.441z"/>
	<path d="M5.481,122.574c0,0.288-0.207,0.522-0.504,0.522c-0.216,0-0.495-0.135-0.495-0.522c0-0.378,0.333-0.522,0.495-0.522
		C5.364,122.051,5.481,122.394,5.481,122.574z"/>
	<path d="M9.793,121.133c0,1.08-0.765,1.954-1.773,1.954c-0.981,0-1.71-0.864-1.71-1.891c0-1.126,0.9-1.854,1.737-1.854
		C9.46,119.342,9.793,120.602,9.793,121.133z M6.768,121.187c0,0.441,0.162,0.757,0.396,1.018c0.252,0.279,0.675,0.433,0.945,0.433
		c0.648,0,1.215-0.631,1.215-1.378c0-0.405-0.117-0.81-0.36-1.062c-0.252-0.252-0.549-0.396-0.963-0.396
		C7.281,119.801,6.768,120.422,6.768,121.187z"/>
	<path d="M10.647,119.621c0-0.729,0.396-1.458,1.206-1.458c0.819,0,1.162,0.811,1.162,1.359c0,0.693-0.405,1.458-1.207,1.458
		C10.989,120.98,10.647,120.215,10.647,119.621z M12.412,119.63c0-0.369-0.117-1.225-0.657-1.225c-0.468,0-0.513,0.711-0.513,1.099
		c0,0.378,0.126,1.26,0.639,1.26C12.339,120.764,12.412,119.99,12.412,119.63z M15.04,118.208c-1.152,1.818-1.989,3.151-3.151,4.97
		c-0.018,0.018-0.108,0.045-0.135,0.018c-0.09-0.081-0.126-0.198-0.108-0.225c1.099-1.675,1.99-3.097,3.07-4.871
		c0.045-0.045,0.099-0.116,0.135-0.116C14.95,117.983,15.076,118.154,15.04,118.208z M13.672,121.728
		c0-0.738,0.414-1.459,1.224-1.459c0.819,0,1.144,0.811,1.144,1.359c0,0.693-0.387,1.459-1.188,1.459
		C13.978,123.087,13.672,122.322,13.672,121.728z M15.445,121.737c0-0.369-0.117-1.233-0.648-1.233c-0.478,0-0.522,0.72-0.522,1.107
		c0,0.378,0.126,1.251,0.648,1.251C15.364,122.862,15.445,122.097,15.445,121.737z"/>
</g>
<g>
	<path d="M1.188,99.777c0.171,0,0.378,0.027,0.711,0.027c0.252,0,0.504-0.036,0.756-0.036c0.126,0,0.189,0.009,0.189,0.081
		s-0.063,0.117-0.189,0.162c-0.261,0.09-0.378,0.107-0.387,0.531c-0.009,0.324-0.018,0.54-0.018,0.972c0,0.279,0,0.747,0,1.161
		c0,0.189-0.009,0.298,0.405,0.396c0.189,0.045,0.225,0.09,0.225,0.162c0,0.081-0.144,0.108-0.234,0.108
		c-0.27,0-0.504-0.027-0.783-0.027c-0.297,0-0.567,0.054-0.729,0.054c-0.18,0-0.252-0.036-0.252-0.107
		c0-0.045,0.063-0.108,0.198-0.145c0.405-0.099,0.441-0.207,0.477-0.612c0.018-0.207,0.054-0.945,0.054-1.368
		c0-0.216,0-0.414-0.009-0.567c-0.018-0.378-0.054-0.432-0.387-0.531c-0.171-0.045-0.243-0.09-0.243-0.188
		C0.973,99.804,1.054,99.777,1.188,99.777z"/>
	<path d="M5.481,102.91c0,0.288-0.207,0.522-0.504,0.522c-0.216,0-0.495-0.135-0.495-0.522c0-0.378,0.333-0.522,0.495-0.522
		C5.364,102.388,5.481,102.73,5.481,102.91z"/>
	<path d="M7.254,100.174c0.009-0.036,0.126-0.153,0.171-0.172c0.243-0.144,1.144-0.342,1.377-0.342c0.036,0,0.072,0.054,0.072,0.063
		c-0.018,0.216-0.162,0.667-0.441,0.711c-0.18,0.036-0.828,0.072-1.035,0.09c-0.045,0-0.153,0.226-0.153,0.307
		c0,0.045,0.036,0.152,0.153,0.216c0.45,0.243,0.99,0.576,1.296,0.864c0.333,0.315,0.495,0.729,0.495,1.125
		c0,0.657-0.441,1.216-1.008,1.558c-0.225,0.126-0.685,0.271-0.945,0.271c-0.189,0-0.27-0.036-0.27-0.108
		c0.009-0.054,0.081-0.099,0.189-0.126c0.306-0.081,0.63-0.198,0.837-0.342c0.315-0.217,0.54-0.612,0.54-0.973
		c0-0.675-0.549-1.044-1.125-1.423c-0.468-0.314-0.495-0.495-0.495-0.558C6.912,101.173,7.11,100.39,7.254,100.174z"/>
	<path d="M10.647,99.957c0-0.729,0.396-1.458,1.206-1.458c0.819,0,1.162,0.81,1.162,1.359c0,0.693-0.405,1.458-1.207,1.458
		C10.989,101.316,10.647,100.552,10.647,99.957z M12.412,99.967c0-0.37-0.117-1.225-0.657-1.225c-0.468,0-0.513,0.711-0.513,1.099
		c0,0.378,0.126,1.26,0.639,1.26C12.339,101.101,12.412,100.326,12.412,99.967z M15.04,98.544c-1.152,1.818-1.989,3.151-3.151,4.97
		c-0.018,0.018-0.108,0.045-0.135,0.018c-0.09-0.081-0.126-0.198-0.108-0.225c1.099-1.675,1.99-3.097,3.07-4.871
		c0.045-0.045,0.099-0.117,0.135-0.117C14.95,98.319,15.076,98.49,15.04,98.544z M13.672,102.064c0-0.738,0.414-1.459,1.224-1.459
		c0.819,0,1.144,0.811,1.144,1.359c0,0.693-0.387,1.459-1.188,1.459C13.978,103.424,13.672,102.658,13.672,102.064z M15.445,102.073
		c0-0.369-0.117-1.233-0.648-1.233c-0.478,0-0.522,0.72-0.522,1.107c0,0.378,0.126,1.251,0.648,1.251
		C15.364,103.198,15.445,102.434,15.445,102.073z"/>
</g>
<g>
	<path d="M2.08,80.123c0.36,0.216,0.504,0.657,0.504,0.945c0,0.396-0.261,0.748-0.378,0.918c-0.126,0.171-0.513,0.576-0.927,1
		c-0.027,0.036-0.045,0.081,0,0.081c0.45,0,1.368,0.018,1.557,0.009c0.171,0,0.315-0.045,0.558-0.333
		c0.018-0.018,0.09-0.09,0.18-0.09c0.036,0,0.081,0.072,0.009,0.234C3.52,83.021,3.376,83.4,3.34,83.553
		c-0.018,0.054-0.117,0.117-0.162,0.117c-0.036,0-0.711-0.018-1.629-0.018c-0.468,0-0.748,0.027-0.882,0.027
		c-0.198,0-0.252-0.054-0.252-0.09c0-0.054,0.063-0.135,0.144-0.216C0.657,83.301,0.783,83.166,1,82.94
		c0.585-0.585,0.945-1.107,0.945-1.665c0-0.342-0.216-0.64-0.603-0.64c-0.279,0-0.468,0.135-0.594,0.234
		c-0.09,0.063-0.153,0.126-0.171,0.126c-0.045,0-0.108-0.036-0.108-0.081c0-0.081,0.216-0.414,0.513-0.648
		c0.153-0.117,0.378-0.252,0.702-0.252C1.846,80.015,2.008,80.087,2.08,80.123z"/>
	<path d="M5.481,83.247c0,0.288-0.207,0.522-0.504,0.522c-0.216,0-0.495-0.135-0.495-0.522c0-0.378,0.333-0.522,0.495-0.522
		C5.364,82.725,5.481,83.067,5.481,83.247z"/>
	<path d="M9.793,81.806c0,1.081-0.765,1.954-1.773,1.954c-0.981,0-1.71-0.864-1.71-1.891c0-1.125,0.9-1.854,1.737-1.854
		C9.46,80.015,9.793,81.275,9.793,81.806z M6.768,81.86c0,0.441,0.162,0.756,0.396,1.017c0.252,0.279,0.675,0.432,0.945,0.432
		c0.648,0,1.215-0.63,1.215-1.377c0-0.405-0.117-0.81-0.36-1.062c-0.252-0.252-0.549-0.396-0.963-0.396
		C7.281,80.474,6.768,81.095,6.768,81.86z"/>
	<path d="M10.647,80.294c0-0.729,0.396-1.458,1.206-1.458c0.819,0,1.162,0.81,1.162,1.359c0,0.693-0.405,1.458-1.207,1.458
		C10.989,81.653,10.647,80.888,10.647,80.294z M12.412,80.303c0-0.369-0.117-1.224-0.657-1.224c-0.468,0-0.513,0.711-0.513,1.098
		c0,0.378,0.126,1.26,0.639,1.26C12.339,81.437,12.412,80.663,12.412,80.303z M15.04,78.88c-1.152,1.819-1.989,3.151-3.151,4.97
		c-0.018,0.018-0.108,0.045-0.135,0.018c-0.09-0.081-0.126-0.198-0.108-0.225c1.099-1.675,1.99-3.097,3.07-4.871
		c0.045-0.045,0.099-0.117,0.135-0.117C14.95,78.655,15.076,78.826,15.04,78.88z M13.672,82.4c0-0.738,0.414-1.458,1.224-1.458
		c0.819,0,1.144,0.811,1.144,1.359c0,0.693-0.387,1.458-1.188,1.458C13.978,83.76,13.672,82.995,13.672,82.4z M15.445,82.41
		c0-0.369-0.117-1.233-0.648-1.233c-0.478,0-0.522,0.72-0.522,1.107c0,0.378,0.126,1.251,0.648,1.251
		C15.364,83.535,15.445,82.77,15.445,82.41z"/>
</g>
<g>
	<path d="M2.08,60.459c0.36,0.216,0.504,0.657,0.504,0.945c0,0.396-0.261,0.748-0.378,0.918c-0.126,0.171-0.513,0.576-0.927,1
		c-0.027,0.036-0.045,0.081,0,0.081c0.45,0,1.368,0.018,1.557,0.009c0.171,0,0.315-0.045,0.558-0.333
		c0.018-0.018,0.09-0.09,0.18-0.09c0.036,0,0.081,0.072,0.009,0.234c-0.063,0.135-0.208,0.513-0.243,0.666
		c-0.018,0.054-0.117,0.117-0.162,0.117c-0.036,0-0.711-0.018-1.629-0.018c-0.468,0-0.748,0.027-0.882,0.027
		c-0.198,0-0.252-0.054-0.252-0.09c0-0.054,0.063-0.135,0.144-0.216C0.657,63.637,0.783,63.502,1,63.277
		c0.585-0.585,0.945-1.107,0.945-1.665c0-0.342-0.216-0.64-0.603-0.64c-0.279,0-0.468,0.135-0.594,0.234
		c-0.09,0.063-0.153,0.126-0.171,0.126c-0.045,0-0.108-0.036-0.108-0.081c0-0.081,0.216-0.414,0.513-0.648
		c0.153-0.117,0.378-0.252,0.702-0.252C1.846,60.351,2.008,60.423,2.08,60.459z"/>
	<path d="M5.481,63.583c0,0.288-0.207,0.522-0.504,0.522c-0.216,0-0.495-0.135-0.495-0.522c0-0.378,0.333-0.522,0.495-0.522
		C5.364,63.061,5.481,63.403,5.481,63.583z"/>
	<path d="M7.254,60.846c0.009-0.036,0.126-0.153,0.171-0.171c0.243-0.144,1.144-0.342,1.377-0.342c0.036,0,0.072,0.054,0.072,0.063
		c-0.018,0.216-0.162,0.667-0.441,0.711c-0.18,0.036-0.828,0.072-1.035,0.09c-0.045,0-0.153,0.225-0.153,0.306
		c0,0.045,0.036,0.153,0.153,0.216c0.45,0.243,0.99,0.576,1.296,0.864c0.333,0.315,0.495,0.729,0.495,1.125
		c0,0.657-0.441,1.215-1.008,1.558c-0.225,0.126-0.685,0.27-0.945,0.27c-0.189,0-0.27-0.036-0.27-0.108
		c0.009-0.054,0.081-0.099,0.189-0.126c0.306-0.081,0.63-0.198,0.837-0.342c0.315-0.216,0.54-0.612,0.54-0.972
		c0-0.675-0.549-1.044-1.125-1.422c-0.468-0.315-0.495-0.495-0.495-0.558C6.912,61.846,7.11,61.062,7.254,60.846z"/>
	<path d="M10.647,60.63c0-0.729,0.396-1.458,1.206-1.458c0.819,0,1.162,0.81,1.162,1.359c0,0.693-0.405,1.458-1.207,1.458
		C10.989,61.99,10.647,61.225,10.647,60.63z M12.412,60.639c0-0.369-0.117-1.224-0.657-1.224c-0.468,0-0.513,0.711-0.513,1.098
		c0,0.378,0.126,1.26,0.639,1.26C12.339,61.773,12.412,61,12.412,60.639z M15.04,59.217c-1.152,1.819-1.989,3.151-3.151,4.97
		c-0.018,0.018-0.108,0.045-0.135,0.018c-0.09-0.081-0.126-0.198-0.108-0.225c1.099-1.675,1.99-3.097,3.07-4.871
		c0.045-0.045,0.099-0.117,0.135-0.117C14.95,58.992,15.076,59.163,15.04,59.217z M13.672,62.737c0-0.738,0.414-1.458,1.224-1.458
		c0.819,0,1.144,0.811,1.144,1.359c0,0.693-0.387,1.458-1.188,1.458C13.978,64.096,13.672,63.331,13.672,62.737z M15.445,62.746
		c0-0.369-0.117-1.233-0.648-1.233c-0.478,0-0.522,0.72-0.522,1.107c0,0.378,0.126,1.251,0.648,1.251
		C15.364,63.871,15.445,63.106,15.445,62.746z"/>
</g>
<g>
	<path d="M2.71,41.498c0,0.45-0.333,0.765-0.9,1.215c-0.009,0.018-0.009,0.063,0.009,0.063c0.054-0.009,0.306,0.018,0.477,0.072
		c0.459,0.126,0.747,0.477,0.747,0.955c0,0.711-0.657,1.503-1.431,1.881C1.405,45.792,1.081,45.891,1,45.891
		s-0.198-0.054-0.198-0.117c0-0.081,0.144-0.279,0.225-0.279c0.297,0,0.495-0.045,0.558-0.072c0.585-0.315,0.766-0.783,0.766-1.305
		c0-0.261-0.072-0.495-0.252-0.648c-0.162-0.144-0.414-0.243-0.621-0.243c-0.081,0-0.351,0.054-0.504,0.117
		c-0.036,0.018-0.09-0.018-0.09-0.045c0-0.063,0.063-0.162,0.117-0.225c0.189-0.144,0.414-0.306,0.675-0.522
		c0.306-0.243,0.405-0.576,0.405-0.792c0-0.306-0.288-0.549-0.549-0.549c-0.369,0-0.621,0.288-0.693,0.351
		c-0.054,0.045-0.081,0.072-0.117,0.072c-0.09,0-0.108-0.036-0.108-0.099c0-0.027,0.234-0.405,0.558-0.63
		c0.234-0.171,0.414-0.216,0.612-0.216C2.503,40.687,2.71,41.291,2.71,41.498z"/>
	<path d="M5.481,43.919c0,0.288-0.207,0.522-0.504,0.522c-0.216,0-0.495-0.135-0.495-0.522c0-0.378,0.333-0.522,0.495-0.522
		C5.364,43.397,5.481,43.739,5.481,43.919z"/>
	<path d="M9.793,42.479c0,1.081-0.765,1.954-1.773,1.954c-0.981,0-1.71-0.864-1.71-1.891c0-1.125,0.9-1.854,1.737-1.854
		C9.46,40.687,9.793,41.947,9.793,42.479z M6.768,42.533c0,0.441,0.162,0.756,0.396,1.017c0.252,0.279,0.675,0.432,0.945,0.432
		c0.648,0,1.215-0.63,1.215-1.377c0-0.405-0.117-0.81-0.36-1.062c-0.252-0.252-0.549-0.396-0.963-0.396
		C7.281,41.146,6.768,41.768,6.768,42.533z"/>
	<path d="M10.647,40.966c0-0.729,0.396-1.458,1.206-1.458c0.819,0,1.162,0.81,1.162,1.359c0,0.693-0.405,1.458-1.207,1.458
		C10.989,42.326,10.647,41.561,10.647,40.966z M12.412,40.975c0-0.369-0.117-1.224-0.657-1.224c-0.468,0-0.513,0.711-0.513,1.098
		c0,0.378,0.126,1.26,0.639,1.26C12.339,42.109,12.412,41.335,12.412,40.975z M15.04,39.553c-1.152,1.818-1.989,3.151-3.151,4.97
		c-0.018,0.018-0.108,0.045-0.135,0.018c-0.09-0.081-0.126-0.198-0.108-0.225c1.099-1.675,1.99-3.097,3.07-4.871
		c0.045-0.045,0.099-0.117,0.135-0.117C14.95,39.328,15.076,39.499,15.04,39.553z M13.672,43.073c0-0.738,0.414-1.458,1.224-1.458
		c0.819,0,1.144,0.811,1.144,1.359c0,0.693-0.387,1.458-1.188,1.458C13.978,44.432,13.672,43.667,13.672,43.073z M15.445,43.082
		c0-0.369-0.117-1.233-0.648-1.233c-0.478,0-0.522,0.72-0.522,1.107c0,0.378,0.126,1.251,0.648,1.251
		C15.364,44.207,15.445,43.442,15.445,43.082z"/>
</g>
<g>
	<path d="M2.71,21.834c0,0.45-0.333,0.765-0.9,1.215c-0.009,0.018-0.009,0.063,0.009,0.063c0.054-0.009,0.306,0.018,0.477,0.072
		c0.459,0.126,0.747,0.477,0.747,0.955c0,0.711-0.657,1.503-1.431,1.881C1.405,26.128,1.081,26.227,1,26.227
		s-0.198-0.054-0.198-0.117c0-0.081,0.144-0.279,0.225-0.279c0.297,0,0.495-0.045,0.558-0.072c0.585-0.315,0.766-0.783,0.766-1.305
		c0-0.261-0.072-0.495-0.252-0.648c-0.162-0.144-0.414-0.243-0.621-0.243c-0.081,0-0.351,0.054-0.504,0.117
		c-0.036,0.018-0.09-0.018-0.09-0.045c0-0.063,0.063-0.162,0.117-0.225c0.189-0.144,0.414-0.306,0.675-0.522
		c0.306-0.243,0.405-0.576,0.405-0.792c0-0.306-0.288-0.549-0.549-0.549c-0.369,0-0.621,0.288-0.693,0.351
		c-0.054,0.045-0.081,0.072-0.117,0.072c-0.09,0-0.108-0.036-0.108-0.099c0-0.027,0.234-0.405,0.558-0.63
		c0.234-0.171,0.414-0.216,0.612-0.216C2.503,21.023,2.71,21.627,2.71,21.834z"/>
	<path d="M5.481,24.255c0,0.288-0.207,0.522-0.504,0.522c-0.216,0-0.495-0.135-0.495-0.522c0-0.378,0.333-0.522,0.495-0.522
		C5.364,23.733,5.481,24.076,5.481,24.255z"/>
	<path d="M7.254,21.519c0.009-0.036,0.126-0.153,0.171-0.171c0.243-0.144,1.144-0.342,1.377-0.342c0.036,0,0.072,0.054,0.072,0.063
		c-0.018,0.216-0.162,0.667-0.441,0.711c-0.18,0.036-0.828,0.072-1.035,0.09c-0.045,0-0.153,0.225-0.153,0.306
		c0,0.045,0.036,0.153,0.153,0.216c0.45,0.243,0.99,0.576,1.296,0.864c0.333,0.315,0.495,0.729,0.495,1.125
		c0,0.657-0.441,1.216-1.008,1.558c-0.225,0.126-0.685,0.27-0.945,0.27c-0.189,0-0.27-0.036-0.27-0.108
		c0.009-0.054,0.081-0.099,0.189-0.126c0.306-0.081,0.63-0.198,0.837-0.342c0.315-0.216,0.54-0.612,0.54-0.972
		c0-0.675-0.549-1.044-1.125-1.422c-0.468-0.315-0.495-0.495-0.495-0.558C6.912,22.518,7.11,21.735,7.254,21.519z"/>
	<path d="M10.647,21.303c0-0.729,0.396-1.458,1.206-1.458c0.819,0,1.162,0.81,1.162,1.359c0,0.693-0.405,1.458-1.207,1.458
		C10.989,22.662,10.647,21.897,10.647,21.303z M12.412,21.312c0-0.369-0.117-1.224-0.657-1.224c-0.468,0-0.513,0.711-0.513,1.098
		c0,0.378,0.126,1.26,0.639,1.26C12.339,22.446,12.412,21.672,12.412,21.312z M15.04,19.889c-1.152,1.818-1.989,3.151-3.151,4.97
		c-0.018,0.018-0.108,0.045-0.135,0.018c-0.09-0.081-0.126-0.198-0.108-0.225c1.099-1.675,1.99-3.097,3.07-4.871
		c0.045-0.045,0.099-0.117,0.135-0.117C14.95,19.664,15.076,19.835,15.04,19.889z M13.672,23.409c0-0.738,0.414-1.458,1.224-1.458
		c0.819,0,1.144,0.811,1.144,1.359c0,0.693-0.387,1.458-1.188,1.458C13.978,24.769,13.672,24.003,13.672,23.409z M15.445,23.418
		c0-0.369-0.117-1.233-0.648-1.233c-0.478,0-0.522,0.72-0.522,1.107c0,0.378,0.126,1.251,0.648,1.251
		C15.364,24.543,15.445,23.778,15.445,23.418z"/>
</g>
<g>
	<path d="M2.89,1.251c0.063,0.063,0,1.899,0,2.71c0,0.036,0.027,0.081,0.081,0.081h0.774c0.036,0,0.081,0.063,0.081,0.144
		c0,0.072-0.045,0.378-0.144,0.378c-0.288,0-0.585,0-0.729,0c-0.045,0-0.063,0.027-0.063,0.072v1.53
		c0,0.099-0.423,0.153-0.567,0.153c-0.072,0-0.126-0.036-0.126-0.144c0-0.063,0.027-1.044,0.027-1.53
		c0-0.045-0.027-0.081-0.063-0.081c-0.036,0-1.666,0.009-2.017,0.027C0.072,4.601,0,4.528,0,4.483c0-0.027,0.045-0.072,0.207-0.252
		c0.252-0.27,1.279-1.584,1.639-2.017c0.288-0.342,0.441-0.522,0.594-0.72c0.153-0.198,0.279-0.405,0.306-0.378
		C2.782,1.089,2.89,1.18,2.89,1.251z M2.233,3.952c0-0.549,0.027-1.224,0.027-1.755c0-0.036-0.054-0.054-0.108,0
		C1.909,2.449,0.918,3.826,0.855,3.916C0.811,3.97,0.874,4.033,0.9,4.033c0.216,0.018,1.162,0.009,1.26,0.009
		C2.206,4.042,2.233,3.997,2.233,3.952z"/>
	<path d="M5.481,4.591c0,0.288-0.207,0.522-0.504,0.522c-0.216,0-0.495-0.135-0.495-0.522c0-0.378,0.333-0.522,0.495-0.522
		C5.364,4.069,5.481,4.412,5.481,4.591z"/>
	<path d="M9.793,3.151c0,1.081-0.765,1.954-1.773,1.954c-0.981,0-1.71-0.864-1.71-1.891c0-1.125,0.9-1.854,1.737-1.854
		C9.46,1.359,9.793,2.62,9.793,3.151z M6.768,3.205c0,0.441,0.162,0.756,0.396,1.017c0.252,0.279,0.675,0.432,0.945,0.432
		c0.648,0,1.215-0.63,1.215-1.377c0-0.405-0.117-0.81-0.36-1.062C8.712,1.963,8.416,1.819,8.001,1.819
		C7.281,1.819,6.768,2.44,6.768,3.205z"/>
	<path d="M10.647,1.639c0-0.729,0.396-1.458,1.206-1.458c0.819,0,1.162,0.81,1.162,1.359c0,0.693-0.405,1.458-1.207,1.458
		C10.989,2.998,10.647,2.233,10.647,1.639z M12.412,1.647c0-0.369-0.117-1.224-0.657-1.224c-0.468,0-0.513,0.711-0.513,1.098
		c0,0.378,0.126,1.26,0.639,1.26C12.339,2.782,12.412,2.008,12.412,1.647z M15.04,0.225c-1.152,1.819-1.989,3.151-3.151,4.97
		c-0.018,0.018-0.108,0.045-0.135,0.018c-0.09-0.081-0.126-0.198-0.108-0.225c1.099-1.675,1.99-3.097,3.07-4.871
		C14.761,0.072,14.815,0,14.851,0C14.95,0,15.076,0.171,15.04,0.225z M13.672,3.745c0-0.738,0.414-1.458,1.224-1.458
		c0.819,0,1.144,0.811,1.144,1.359c0,0.693-0.387,1.458-1.188,1.458C13.978,5.104,13.672,4.339,13.672,3.745z M15.445,3.754
		c0-0.369-0.117-1.233-0.648-1.233c-0.478,0-0.522,0.72-0.522,1.107c0,0.378,0.126,1.251,0.648,1.251
		C15.364,4.879,15.445,4.114,15.445,3.754z"/>
</g>
<g>
	<path d="M18.678,170.453c0.171,0,0.378,0.027,0.711,0.027c0.252,0,0.504-0.036,0.756-0.036c0.126,0,0.189,0.009,0.189,0.081
		s-0.063,0.117-0.189,0.162c-0.261,0.09-0.378,0.107-0.387,0.531c-0.009,0.323-0.018,0.54-0.018,0.972c0,0.279,0,0.747,0,1.161
		c0,0.189-0.009,0.298,0.405,0.396c0.189,0.045,0.225,0.09,0.225,0.162c0,0.081-0.144,0.108-0.234,0.108
		c-0.27,0-0.504-0.027-0.783-0.027c-0.297,0-0.567,0.054-0.729,0.054c-0.18,0-0.252-0.036-0.252-0.107
		c0-0.045,0.063-0.108,0.198-0.145c0.405-0.099,0.441-0.207,0.477-0.612c0.018-0.207,0.054-0.945,0.054-1.368
		c0-0.216,0-0.414-0.009-0.567c-0.018-0.378-0.054-0.432-0.387-0.531c-0.171-0.045-0.243-0.09-0.243-0.188
		C18.462,170.48,18.543,170.453,18.678,170.453z"/>
	<path d="M24.493,171.164c0,0.45-0.333,0.766-0.9,1.216c-0.009,0.018-0.009,0.062,0.009,0.062c0.054-0.009,0.306,0.019,0.477,0.072
		c0.459,0.126,0.747,0.478,0.747,0.954c0,0.712-0.657,1.504-1.431,1.882c-0.207,0.108-0.531,0.207-0.612,0.207
		s-0.198-0.054-0.198-0.117c0-0.081,0.144-0.279,0.225-0.279c0.297,0,0.495-0.045,0.558-0.071c0.585-0.315,0.766-0.783,0.766-1.306
		c0-0.261-0.072-0.495-0.252-0.648c-0.162-0.144-0.414-0.243-0.621-0.243c-0.081,0-0.351,0.055-0.504,0.117
		c-0.036,0.019-0.09-0.018-0.09-0.045c0-0.062,0.063-0.162,0.117-0.225c0.189-0.145,0.414-0.307,0.675-0.522
		c0.306-0.243,0.405-0.576,0.405-0.792c0-0.307-0.288-0.55-0.549-0.55c-0.369,0-0.621,0.288-0.693,0.352
		c-0.054,0.045-0.081,0.072-0.117,0.072c-0.09,0-0.108-0.036-0.108-0.1c0-0.026,0.234-0.405,0.558-0.63
		c0.234-0.171,0.414-0.216,0.612-0.216C24.286,170.354,24.493,170.957,24.493,171.164z"/>
	<path d="M29.371,169.94c0,0.359-0.189,0.639-0.414,0.837c-0.162,0.135-0.36,0.225-0.504,0.351
		c-0.027,0.019-0.018,0.063,0.009,0.081c0.405,0.324,0.963,0.838,0.963,1.495c0,0.477-0.261,0.837-0.585,1.071
		c-0.333,0.261-0.685,0.324-0.937,0.324c-0.963,0-1.396-0.657-1.396-1.233c0-0.505,0.351-0.864,0.541-1.009
		c0.108-0.09,0.405-0.306,0.486-0.36c0.009-0.009,0.009-0.045-0.009-0.062c-0.459-0.405-0.909-0.783-0.909-1.413
		c0-0.424,0.198-0.729,0.432-0.937c0.306-0.243,0.648-0.378,1.008-0.378C28.804,168.707,29.371,169.219,29.371,169.94z
		 M28.786,172.973c0-0.603-0.495-1.008-0.936-1.305c-0.063-0.046-0.126-0.036-0.171-0.01c-0.279,0.207-0.531,0.693-0.531,1.126
		c0,0.261,0.108,0.531,0.252,0.711c0.171,0.198,0.405,0.333,0.621,0.333C28.506,173.829,28.786,173.459,28.786,172.973z
		 M27.255,169.795c0,0.576,0.648,1.018,0.891,1.197c0.027,0.019,0.081,0.027,0.099,0.019c0.09-0.055,0.207-0.207,0.288-0.315
		c0.054-0.099,0.216-0.423,0.216-0.811c0-0.18-0.18-0.918-0.792-0.918C27.597,168.967,27.255,169.228,27.255,169.795z"/>
	<path d="M34.024,172.145c0,1.08-0.765,1.954-1.773,1.954c-0.981,0-1.71-0.864-1.71-1.891c0-1.126,0.9-1.854,1.737-1.854
		C33.691,170.354,34.024,171.614,34.024,172.145z M30.999,172.199c0,0.441,0.162,0.757,0.396,1.018
		c0.252,0.279,0.675,0.433,0.945,0.433c0.648,0,1.215-0.631,1.215-1.378c0-0.405-0.117-0.81-0.36-1.062
		c-0.252-0.252-0.549-0.396-0.963-0.396C31.512,170.813,30.999,171.434,30.999,172.199z"/>
</g>
<g>
	<path d="M76.543,170.453c0.171,0,0.378,0.027,0.711,0.027c0.252,0,0.504-0.036,0.756-0.036c0.126,0,0.189,0.009,0.189,0.081
		s-0.063,0.117-0.189,0.162c-0.261,0.09-0.378,0.107-0.387,0.531c-0.009,0.323-0.018,0.54-0.018,0.972c0,0.279,0,0.747,0,1.161
		c0,0.189-0.009,0.298,0.405,0.396c0.189,0.045,0.225,0.09,0.225,0.162c0,0.081-0.144,0.108-0.234,0.108
		c-0.27,0-0.504-0.027-0.783-0.027c-0.297,0-0.567,0.054-0.729,0.054c-0.18,0-0.252-0.036-0.252-0.107
		c0-0.045,0.063-0.108,0.198-0.145c0.405-0.099,0.441-0.207,0.477-0.612c0.018-0.207,0.054-0.945,0.054-1.368
		c0-0.216,0-0.414-0.009-0.567c-0.018-0.378-0.054-0.432-0.387-0.531c-0.171-0.045-0.243-0.09-0.243-0.188
		C76.328,170.48,76.409,170.453,76.543,170.453z"/>
	<path d="M82.538,170.246c0.063,0.063,0,1.899,0,2.71c0,0.036,0.027,0.081,0.081,0.081h0.774c0.036,0,0.081,0.062,0.081,0.144
		c0,0.072-0.045,0.379-0.144,0.379c-0.288,0-0.585,0-0.729,0c-0.045,0-0.063,0.026-0.063,0.071v1.53c0,0.1-0.423,0.153-0.567,0.153
		c-0.072,0-0.126-0.036-0.126-0.144c0-0.063,0.027-1.045,0.027-1.531c0-0.045-0.027-0.08-0.063-0.08
		c-0.036,0-1.666,0.009-2.017,0.026c-0.072,0.009-0.144-0.062-0.144-0.107c0-0.027,0.045-0.072,0.207-0.253
		c0.252-0.27,1.279-1.584,1.639-2.017c0.288-0.342,0.441-0.521,0.594-0.72s0.279-0.405,0.306-0.378
		C82.43,170.083,82.538,170.173,82.538,170.246z M81.881,172.947c0-0.55,0.027-1.225,0.027-1.756c0-0.036-0.054-0.054-0.108,0
		c-0.243,0.252-1.233,1.63-1.296,1.72c-0.045,0.054,0.018,0.117,0.045,0.117c0.216,0.018,1.162,0.009,1.26,0.009
		C81.854,173.037,81.881,172.992,81.881,172.947z"/>
	<path d="M87.488,170.444c0.054,0,0.099,0.009,0.117,0.045c0.036,0.062,0.018,0.117-0.018,0.189
		c-0.036,0.099-0.216,0.423-0.468,0.882c-0.693,1.296-1.909,3.601-2.008,3.808c-0.045,0.136-0.126,0.198-0.171,0.198
		c-0.063,0-0.18-0.099-0.18-0.18c0-0.054,0.045-0.145,0.171-0.369c0.126-0.207,1.684-3.061,1.981-3.745
		c0.036-0.072-0.009-0.099-0.045-0.108c-0.171-0.036-1.162-0.062-2.026-0.062c-0.198,0-0.36,0.144-0.486,0.261
		c-0.054,0.054-0.117,0.09-0.189,0.09c-0.045,0-0.081-0.107-0.018-0.243c0.054-0.135,0.207-0.468,0.225-0.621
		c0.009-0.071,0.063-0.152,0.108-0.152c0.162,0,0.9,0.045,2.007,0.045C87.083,170.48,87.128,170.47,87.488,170.444z"/>
	<path d="M91.889,172.145c0,1.08-0.765,1.954-1.773,1.954c-0.981,0-1.71-0.864-1.71-1.891c0-1.126,0.9-1.854,1.737-1.854
		C91.556,170.354,91.889,171.614,91.889,172.145z M88.864,172.199c0,0.441,0.162,0.757,0.396,1.018
		c0.252,0.279,0.675,0.433,0.945,0.433c0.648,0,1.215-0.631,1.215-1.378c0-0.405-0.117-0.81-0.36-1.062
		c-0.252-0.252-0.549-0.396-0.963-0.396C89.377,170.813,88.864,171.434,88.864,172.199z"/>
</g>
<g>
	<path d="M134.411,170.453c0.171,0,0.378,0.027,0.711,0.027c0.252,0,0.504-0.036,0.756-0.036c0.126,0,0.189,0.009,0.189,0.081
		s-0.063,0.117-0.189,0.162c-0.261,0.09-0.378,0.107-0.387,0.531c-0.009,0.323-0.018,0.54-0.018,0.972c0,0.279,0,0.747,0,1.161
		c0,0.189-0.009,0.298,0.405,0.396c0.189,0.045,0.225,0.09,0.225,0.162c0,0.081-0.144,0.108-0.234,0.108
		c-0.27,0-0.504-0.027-0.783-0.027c-0.297,0-0.567,0.054-0.729,0.054c-0.18,0-0.252-0.036-0.252-0.107
		c0-0.045,0.063-0.108,0.198-0.145c0.405-0.099,0.441-0.207,0.477-0.612c0.018-0.207,0.054-0.945,0.054-1.368
		c0-0.216,0-0.414-0.009-0.567c-0.018-0.378-0.054-0.432-0.387-0.531c-0.171-0.045-0.243-0.09-0.243-0.188
		C134.195,170.48,134.276,170.453,134.411,170.453z"/>
	<path d="M138.632,170.849c0.009-0.036,0.126-0.153,0.171-0.171c0.243-0.145,1.144-0.343,1.377-0.343
		c0.036,0,0.072,0.054,0.072,0.063c-0.018,0.216-0.162,0.666-0.441,0.711c-0.18,0.036-0.828,0.072-1.035,0.09
		c-0.045,0-0.153,0.226-0.153,0.307c0,0.045,0.036,0.152,0.153,0.216c0.45,0.243,0.99,0.576,1.296,0.864
		c0.333,0.315,0.495,0.729,0.495,1.125c0,0.657-0.441,1.216-1.008,1.558c-0.225,0.126-0.685,0.271-0.945,0.271
		c-0.189,0-0.27-0.036-0.27-0.108c0.009-0.054,0.081-0.099,0.189-0.126c0.306-0.081,0.63-0.198,0.837-0.342
		c0.315-0.217,0.54-0.612,0.54-0.973c0-0.675-0.549-1.044-1.125-1.423c-0.468-0.314-0.495-0.495-0.495-0.558
		C138.29,171.848,138.488,171.065,138.632,170.849z"/>
	<path d="M144.591,173.756c-0.369,0.271-0.784,0.343-0.945,0.343c-0.991,0-1.549-0.802-1.549-1.756c0-0.729,0.351-1.656,1.036-2.377
		c0.882-0.954,1.891-1.377,2.196-1.377c0.063,0,0.153,0.045,0.153,0.107c0,0.045-0.108,0.1-0.198,0.153
		c-0.801,0.441-1.323,0.864-1.765,1.44c-0.513,0.666-0.684,1.396-0.684,1.999c0,0.297,0.027,0.531,0.198,0.837
		c0.189,0.324,0.531,0.612,0.882,0.612c0.207,0,0.351-0.072,0.495-0.198c0.198-0.189,0.306-0.531,0.306-0.819
		c0-0.63-0.333-0.981-0.811-0.981c-0.108,0-0.27,0.027-0.378,0.081c-0.063,0.036-0.108,0.063-0.135,0.063
		c-0.036,0-0.072-0.054-0.072-0.1c0-0.099,0.126-0.233,0.225-0.297c0.315-0.207,0.468-0.333,0.792-0.333
		c0.549,0,1.044,0.549,1.044,1.152C145.383,173.082,144.896,173.541,144.591,173.756z"/>
	<path d="M149.757,172.145c0,1.08-0.765,1.954-1.773,1.954c-0.981,0-1.71-0.864-1.71-1.891c0-1.126,0.9-1.854,1.737-1.854
		C149.424,170.354,149.757,171.614,149.757,172.145z M146.732,172.199c0,0.441,0.162,0.757,0.396,1.018
		c0.252,0.279,0.675,0.433,0.945,0.433c0.648,0,1.215-0.631,1.215-1.378c0-0.405-0.117-0.81-0.36-1.062
		c-0.252-0.252-0.549-0.396-0.963-0.396C147.245,170.813,146.732,171.434,146.732,172.199z"/>
</g>
<g>
	<path d="M192.276,170.453c0.171,0,0.378,0.027,0.711,0.027c0.252,0,0.504-0.036,0.756-0.036c0.126,0,0.189,0.009,0.189,0.081
		s-0.063,0.117-0.189,0.162c-0.261,0.09-0.378,0.107-0.387,0.531c-0.009,0.323-0.019,0.54-0.019,0.972c0,0.279,0,0.747,0,1.161
		c0,0.189-0.009,0.298,0.405,0.396c0.189,0.045,0.226,0.09,0.226,0.162c0,0.081-0.145,0.108-0.234,0.108
		c-0.271,0-0.504-0.027-0.783-0.027c-0.297,0-0.567,0.054-0.729,0.054c-0.18,0-0.252-0.036-0.252-0.107
		c0-0.045,0.063-0.108,0.198-0.145c0.405-0.099,0.441-0.207,0.478-0.612c0.018-0.207,0.054-0.945,0.054-1.368
		c0-0.216,0-0.414-0.009-0.567c-0.019-0.378-0.055-0.432-0.388-0.531c-0.171-0.045-0.243-0.09-0.243-0.188
		C192.059,170.48,192.14,170.453,192.276,170.453z"/>
	<path d="M198.162,173.756c-0.369,0.271-0.783,0.343-0.945,0.343c-0.99,0-1.548-0.802-1.548-1.756c0-0.729,0.351-1.656,1.035-2.377
		c0.882-0.954,1.891-1.377,2.196-1.377c0.063,0,0.153,0.045,0.153,0.107c0,0.045-0.108,0.1-0.198,0.153
		c-0.801,0.441-1.323,0.864-1.765,1.44c-0.513,0.666-0.684,1.396-0.684,1.999c0,0.297,0.026,0.531,0.197,0.837
		c0.189,0.324,0.531,0.612,0.883,0.612c0.207,0,0.351-0.072,0.495-0.198c0.198-0.189,0.306-0.531,0.306-0.819
		c0-0.63-0.333-0.981-0.81-0.981c-0.108,0-0.271,0.027-0.379,0.081c-0.062,0.036-0.107,0.063-0.135,0.063
		c-0.036,0-0.072-0.054-0.072-0.1c0-0.099,0.127-0.233,0.226-0.297c0.315-0.207,0.468-0.333,0.792-0.333
		c0.549,0,1.045,0.549,1.045,1.152C198.955,173.082,198.468,173.541,198.162,173.756z"/>
	<path d="M202.455,173.756c-0.369,0.271-0.783,0.343-0.945,0.343c-0.99,0-1.548-0.802-1.548-1.756c0-0.729,0.351-1.656,1.035-2.377
		c0.882-0.954,1.891-1.377,2.196-1.377c0.063,0,0.153,0.045,0.153,0.107c0,0.045-0.108,0.1-0.198,0.153
		c-0.801,0.441-1.323,0.864-1.765,1.44c-0.513,0.666-0.684,1.396-0.684,1.999c0,0.297,0.026,0.531,0.197,0.837
		c0.189,0.324,0.531,0.612,0.883,0.612c0.207,0,0.351-0.072,0.495-0.198c0.198-0.189,0.306-0.531,0.306-0.819
		c0-0.63-0.333-0.981-0.81-0.981c-0.108,0-0.271,0.027-0.379,0.081c-0.062,0.036-0.107,0.063-0.135,0.063
		c-0.036,0-0.072-0.054-0.072-0.1c0-0.099,0.127-0.233,0.226-0.297c0.315-0.207,0.468-0.333,0.792-0.333
		c0.549,0,1.045,0.549,1.045,1.152C203.248,173.082,202.761,173.541,202.455,173.756z"/>
	<path d="M207.621,172.145c0,1.08-0.765,1.954-1.773,1.954c-0.98,0-1.71-0.864-1.71-1.891c0-1.126,0.9-1.854,1.737-1.854
		C207.288,170.354,207.621,171.614,207.621,172.145z M204.596,172.199c0,0.441,0.162,0.757,0.396,1.018
		c0.252,0.279,0.675,0.433,0.945,0.433c0.647,0,1.215-0.631,1.215-1.378c0-0.405-0.117-0.81-0.36-1.062
		c-0.252-0.252-0.549-0.396-0.963-0.396C205.109,170.813,204.596,171.434,204.596,172.199z"/>
</g>
<g>
	<path d="M250.144,170.453c0.171,0,0.378,0.027,0.711,0.027c0.252,0,0.504-0.036,0.756-0.036c0.126,0,0.189,0.009,0.189,0.081
		s-0.063,0.117-0.189,0.162c-0.261,0.09-0.378,0.107-0.387,0.531c-0.009,0.323-0.019,0.54-0.019,0.972c0,0.279,0,0.747,0,1.161
		c0,0.189-0.009,0.298,0.405,0.396c0.189,0.045,0.226,0.09,0.226,0.162c0,0.081-0.145,0.108-0.234,0.108
		c-0.271,0-0.504-0.027-0.783-0.027c-0.297,0-0.567,0.054-0.729,0.054c-0.18,0-0.252-0.036-0.252-0.107
		c0-0.045,0.063-0.108,0.198-0.145c0.405-0.099,0.441-0.207,0.478-0.612c0.018-0.207,0.054-0.945,0.054-1.368
		c0-0.216,0-0.414-0.009-0.567c-0.019-0.378-0.055-0.432-0.388-0.531c-0.171-0.045-0.243-0.09-0.243-0.188
		C249.927,170.48,250.008,170.453,250.144,170.453z"/>
	<path d="M256.795,170.444c0.054,0,0.099,0.009,0.117,0.045c0.036,0.062,0.018,0.117-0.019,0.189
		c-0.036,0.099-0.216,0.423-0.468,0.882c-0.693,1.296-1.908,3.601-2.008,3.808c-0.045,0.136-0.126,0.198-0.171,0.198
		c-0.063,0-0.18-0.099-0.18-0.18c0-0.054,0.045-0.145,0.171-0.369c0.126-0.207,1.684-3.061,1.98-3.745
		c0.036-0.072-0.009-0.099-0.045-0.108c-0.171-0.036-1.161-0.062-2.025-0.062c-0.198,0-0.36,0.144-0.486,0.261
		c-0.055,0.054-0.117,0.09-0.189,0.09c-0.045,0-0.081-0.107-0.018-0.243c0.054-0.135,0.207-0.468,0.225-0.621
		c0.009-0.071,0.063-0.152,0.108-0.152c0.162,0,0.9,0.045,2.008,0.045C256.39,170.48,256.435,170.47,256.795,170.444z"/>
	<path d="M261.197,172.145c0,1.08-0.766,1.954-1.774,1.954c-0.98,0-1.71-0.864-1.71-1.891c0-1.126,0.9-1.854,1.737-1.854
		C260.863,170.354,261.197,171.614,261.197,172.145z M258.171,172.199c0,0.441,0.162,0.757,0.396,1.018
		c0.252,0.279,0.675,0.433,0.945,0.433c0.647,0,1.215-0.631,1.215-1.378c0-0.405-0.117-0.81-0.36-1.062
		c-0.252-0.252-0.549-0.396-0.963-0.396C258.684,170.813,258.171,171.434,258.171,172.199z"/>
	<path d="M265.49,172.145c0,1.08-0.766,1.954-1.774,1.954c-0.98,0-1.71-0.864-1.71-1.891c0-1.126,0.9-1.854,1.737-1.854
		C265.156,170.354,265.49,171.614,265.49,172.145z M262.464,172.199c0,0.441,0.162,0.757,0.396,1.018
		c0.252,0.279,0.675,0.433,0.945,0.433c0.647,0,1.215-0.631,1.215-1.378c0-0.405-0.117-0.81-0.36-1.062
		c-0.252-0.252-0.549-0.396-0.963-0.396C262.977,170.813,262.464,171.434,262.464,172.199z"/>
</g>
<g>
	<path d="M308.01,170.453c0.171,0,0.378,0.027,0.711,0.027c0.252,0,0.504-0.036,0.756-0.036c0.126,0,0.189,0.009,0.189,0.081
		s-0.063,0.117-0.189,0.162c-0.261,0.09-0.378,0.107-0.387,0.531c-0.009,0.323-0.019,0.54-0.019,0.972c0,0.279,0,0.747,0,1.161
		c0,0.189-0.009,0.298,0.405,0.396c0.189,0.045,0.226,0.09,0.226,0.162c0,0.081-0.145,0.108-0.234,0.108
		c-0.271,0-0.504-0.027-0.783-0.027c-0.297,0-0.567,0.054-0.729,0.054c-0.18,0-0.252-0.036-0.252-0.107
		c0-0.045,0.063-0.108,0.198-0.145c0.405-0.099,0.441-0.207,0.478-0.612c0.018-0.207,0.054-0.945,0.054-1.368
		c0-0.216,0-0.414-0.009-0.567c-0.019-0.378-0.055-0.432-0.388-0.531c-0.171-0.045-0.243-0.09-0.243-0.188
		C307.793,170.48,307.875,170.453,308.01,170.453z"/>
	<path d="M314.662,170.444c0.054,0,0.099,0.009,0.117,0.045c0.036,0.062,0.018,0.117-0.019,0.189
		c-0.036,0.099-0.216,0.423-0.468,0.882c-0.693,1.296-1.908,3.601-2.008,3.808c-0.045,0.136-0.126,0.198-0.171,0.198
		c-0.063,0-0.18-0.099-0.18-0.18c0-0.054,0.045-0.145,0.171-0.369c0.126-0.207,1.684-3.061,1.98-3.745
		c0.036-0.072-0.009-0.099-0.045-0.108c-0.171-0.036-1.161-0.062-2.025-0.062c-0.198,0-0.36,0.144-0.486,0.261
		c-0.055,0.054-0.117,0.09-0.189,0.09c-0.045,0-0.081-0.107-0.018-0.243c0.054-0.135,0.207-0.468,0.225-0.621
		c0.009-0.071,0.063-0.152,0.108-0.152c0.162,0,0.9,0.045,2.008,0.045C314.256,170.48,314.301,170.47,314.662,170.444z"/>
	<path d="M318.703,169.94c0,0.359-0.189,0.639-0.414,0.837c-0.162,0.135-0.36,0.225-0.505,0.351
		c-0.026,0.019-0.018,0.063,0.01,0.081c0.405,0.324,0.963,0.838,0.963,1.495c0,0.477-0.261,0.837-0.585,1.071
		c-0.333,0.261-0.685,0.324-0.937,0.324c-0.963,0-1.396-0.657-1.396-1.233c0-0.505,0.352-0.864,0.54-1.009
		c0.108-0.09,0.405-0.306,0.486-0.36c0.009-0.009,0.009-0.045-0.009-0.062c-0.459-0.405-0.909-0.783-0.909-1.413
		c0-0.424,0.198-0.729,0.432-0.937c0.307-0.243,0.648-0.378,1.009-0.378C318.135,168.707,318.703,169.219,318.703,169.94z
		 M318.118,172.973c0-0.603-0.495-1.008-0.937-1.305c-0.063-0.046-0.126-0.036-0.171-0.01c-0.279,0.207-0.531,0.693-0.531,1.126
		c0,0.261,0.107,0.531,0.252,0.711c0.171,0.198,0.405,0.333,0.621,0.333C317.838,173.829,318.118,173.459,318.118,172.973z
		 M316.586,169.795c0,0.576,0.648,1.018,0.892,1.197c0.027,0.019,0.081,0.027,0.099,0.019c0.091-0.055,0.207-0.207,0.288-0.315
		c0.055-0.099,0.217-0.423,0.217-0.811c0-0.18-0.181-0.918-0.793-0.918C316.929,168.967,316.586,169.228,316.586,169.795z"/>
	<path d="M323.355,172.145c0,1.08-0.765,1.954-1.773,1.954c-0.98,0-1.71-0.864-1.71-1.891c0-1.126,0.9-1.854,1.737-1.854
		C323.022,170.354,323.355,171.614,323.355,172.145z M320.331,172.199c0,0.441,0.162,0.757,0.396,1.018
		c0.252,0.279,0.675,0.433,0.945,0.433c0.647,0,1.215-0.631,1.215-1.378c0-0.405-0.117-0.81-0.36-1.062
		c-0.252-0.252-0.549-0.396-0.963-0.396C320.843,170.813,320.331,171.434,320.331,172.199z"/>
</g>
<g>
	
		<rect x="36.333" y="109.882" fill="#FFFFFF" stroke="#000000" stroke-width="0.3" stroke-miterlimit="10" width="107.061" height="45.263"/>
	<g>
		<g>
			
				<line fill="none" stroke="#9CBB59" stroke-width="0.5" stroke-miterlimit="2.613" x1="39.102" y1="115.953" x2="54.797" y2="115.953"/>
			<polyline fill="#9CBB59" points="46.953,113.293 49.566,118.525 44.333,118.525 46.953,113.293 			"/>
			<g>
				<path d="M63.068,113.481c0.324-0.019,0.486-0.072,0.612-0.162c0.063-0.036,0.09-0.054,0.126-0.054
					c0.045,0,0.081,0.081,0.036,0.207c-0.09,0.278-0.144,0.566-0.198,1.035c-0.009,0.081-0.081,0.171-0.153,0.171
					c-0.063,0-0.099-0.063-0.126-0.288c-0.054-0.468-0.171-0.513-0.729-0.54c-0.153-0.009-1.152-0.009-1.26,0.018
					c-0.045,0.01-0.081,0.1-0.081,0.117c0,0.423,0,1.423,0,2.206c0,1.044,0,1.899,0.036,2.232c0.045,0.405,0.09,0.513,0.648,0.64
					c0.117,0.026,0.243,0.099,0.243,0.161c0,0.1-0.162,0.108-0.252,0.108c-0.072,0-0.63-0.045-1.026-0.045
					c-0.45,0-0.909,0.063-1.026,0.063c-0.18,0-0.27-0.055-0.27-0.108c0-0.063,0.09-0.135,0.171-0.153
					c0.63-0.144,0.648-0.297,0.675-0.972c0.018-0.531,0.063-2.368,0.063-3.062c0-0.513,0-0.684,0-1.071
					c0-0.072-0.045-0.117-0.072-0.117c-0.18-0.026-0.972-0.045-1.116-0.045c-0.342,0-0.531,0.055-0.667,0.207
					c-0.036,0.027-0.144,0.171-0.297,0.469c-0.081,0.188-0.135,0.18-0.171,0.18c-0.054,0-0.09-0.117-0.09-0.207
					c0-0.171,0.171-0.666,0.171-1.197c0-0.054,0.081-0.145,0.135-0.145c0.045,0,0.045,0.063,0.144,0.145
					c0.027,0.027,0.171,0.162,0.306,0.171c0.234,0.027,0.954,0.054,2.106,0.054C61.475,113.499,62.699,113.49,63.068,113.481z"/>
				<path d="M67.991,117.487c0,0.747-0.45,1.333-0.783,1.549c-0.36,0.261-0.711,0.36-1.116,0.36c-0.415,0-0.864-0.189-1.198-0.469
					c-0.387-0.314-0.666-0.927-0.666-1.377c0-0.685,0.288-1.116,0.63-1.404c0.279-0.243,0.729-0.495,1.332-0.495
					C67.082,115.651,67.991,116.353,67.991,117.487z M65.435,116.182c-0.234,0.216-0.441,0.684-0.441,1.152
					c0,0.297,0.036,0.576,0.108,0.801c0.225,0.675,0.738,0.999,1.17,0.999c0.099,0,0.297-0.045,0.549-0.297
					c0.225-0.243,0.405-0.801,0.405-1.188c0-0.468-0.108-0.981-0.45-1.377c-0.198-0.217-0.522-0.352-0.756-0.352
					C65.831,115.92,65.624,116.02,65.435,116.182z"/>
				<path d="M70.862,115.741c0.009,0,0.099,0.045,0.099,0.072c0-0.027,0.027,0.225,0.027,0.342c0,0.081-0.171,0.099-0.234,0.099
					c-0.036,0-0.882,0-0.981,0c-0.045,0-0.081,0.045-0.081,0.063c-0.009,0.18-0.018,1.503-0.018,1.936
					c0,0.225,0.054,0.342,0.153,0.441c0.171,0.152,0.36,0.171,0.549,0.171c0.117,0,0.306-0.055,0.441-0.136
					c0.081-0.045,0.099-0.054,0.135-0.054c0.009,0,0.054,0.019,0.054,0.1c0,0.071-0.063,0.161-0.126,0.225
					c-0.243,0.234-0.558,0.396-0.963,0.396c-0.369,0-0.685-0.226-0.792-0.424c-0.099-0.152-0.117-0.342-0.117-0.594
					c0-0.333,0.036-1.684,0.036-1.999c0-0.062-0.162-0.126-0.342-0.18c-0.072-0.027-0.126-0.072-0.126-0.099
					c0-0.036,0.027-0.072,0.054-0.1c0.315-0.252,0.594-0.468,0.72-0.621c0.108-0.126,0.171-0.198,0.207-0.198
					c0.045,0,0.126,0.081,0.126,0.1c0,0.036,0,0.162,0,0.423c0,0.027,0.036,0.072,0.072,0.072
					C69.952,115.777,70.826,115.741,70.862,115.741z"/>
				<path d="M73.858,116.074c0.135,0.188,0.18,0.369,0.18,0.747c0,0.352-0.036,1.485-0.036,1.585c0,0.414,0.288,0.45,0.36,0.45
					c0.036,0,0.243-0.063,0.342-0.136c0.027-0.018,0.036,0,0.054,0.027c0.027,0.027,0.027,0.081,0.027,0.09
					c0,0.171-0.405,0.559-0.81,0.559c-0.207,0-0.468-0.117-0.576-0.45c0-0.01-0.036-0.045-0.054-0.036
					c-0.333,0.233-0.72,0.387-0.81,0.414c-0.099,0.036-0.315,0.054-0.36,0.054c-0.315,0-0.622-0.387-0.622-0.837
					c0-0.162,0.072-0.333,0.171-0.459c0.09-0.117,0.225-0.162,0.36-0.226c0.135-0.054,0.855-0.252,1.053-0.314
					c0.207-0.063,0.261-0.108,0.261-0.162c0.009-0.081,0.018-0.631,0.018-0.738c0-0.226-0.261-0.604-0.702-0.604
					c-0.189,0-0.306,0.054-0.369,0.099c-0.054,0.027-0.081,0.189-0.063,0.369c0,0.027-0.036,0.081-0.054,0.1
					c-0.09,0.072-0.54,0.297-0.585,0.297c-0.054,0-0.108-0.072-0.108-0.117c0-0.261,0.252-0.513,0.675-0.792
					c0.261-0.189,0.667-0.342,0.837-0.342C73.499,115.651,73.724,115.875,73.858,116.074z M73.264,118.756
					c0.054-0.036,0.108-0.207,0.108-0.225c0.018-0.217,0.018-0.522,0.018-0.702c0-0.027-0.036-0.072-0.072-0.072
					c-0.252,0-0.684,0.153-0.927,0.27c-0.09,0.063-0.18,0.126-0.18,0.343c0,0.396,0.378,0.54,0.567,0.54
					C72.913,118.91,73.093,118.846,73.264,118.756z"/>
				<path d="M75.244,113.22c0.414-0.145,0.684-0.198,0.927-0.352c0.027-0.018,0.081,0.054,0.081,0.09
					c-0.027,0.226-0.081,1.242-0.081,2.449c0,1.314-0.018,3.033,0.027,3.276c0.036,0.181,0.072,0.288,0.459,0.396
					c0.135,0.036,0.207,0.081,0.207,0.135c0,0.063-0.126,0.1-0.234,0.1c-0.216,0-0.603-0.027-0.765-0.027
					c-0.207,0-0.603,0.027-0.792,0.027c-0.18,0-0.252-0.027-0.252-0.1c0-0.062,0.099-0.107,0.198-0.126
					c0.414-0.09,0.432-0.252,0.468-0.702c0.027-0.369,0.054-1.314,0.054-2.736c0-0.667,0-1.639-0.027-1.882
					c-0.009-0.072-0.009-0.126-0.216-0.252c-0.153-0.108-0.18-0.136-0.18-0.171C75.118,113.31,75.145,113.247,75.244,113.22z"/>
				<path d="M81.292,120.899c0.045,0.054,0.063,0.126,0.018,0.181c-0.054,0.045-0.144,0.099-0.198,0.099
					c-0.063,0-0.162-0.045-0.27-0.162c-0.972-1.089-1.431-2.512-1.431-4.069c0-1.917,0.864-3.457,1.558-4.168
					c0.072-0.072,0.207-0.162,0.261-0.162c0.117,0,0.216,0.072,0.216,0.126c0,0.036-0.018,0.09-0.09,0.162
					c-0.864,0.792-1.458,2.313-1.458,3.844C79.896,118.946,80.383,119.612,81.292,120.899z"/>
				<path d="M84.982,115.884c0.09,0.063,0.135,0.217,0.135,0.271c0,0.144-0.261,0.36-0.297,0.36c-0.054,0-0.208-0.072-0.351-0.172
					c-0.297-0.216-0.45-0.351-0.756-0.351c-0.144,0-0.414,0.126-0.558,0.306c-0.243,0.271-0.378,0.64-0.378,1.036
					c0,0.521,0.198,0.846,0.234,0.899c0.225,0.379,0.666,0.604,1.134,0.604c0.333,0,0.567-0.108,0.801-0.271
					c0.099-0.071,0.171-0.045,0.171,0c0,0.1-0.045,0.189-0.117,0.262c-0.315,0.351-0.828,0.558-1.296,0.558
					c-0.567,0-1.044-0.297-1.332-0.72c-0.153-0.252-0.279-0.676-0.279-1.054c0-0.657,0.351-1.206,0.873-1.558
					c0.352-0.252,0.937-0.378,1.18-0.378C84.415,115.677,84.811,115.75,84.982,115.884z"/>
				<path d="M85.827,113.22c0.414-0.145,0.684-0.198,0.927-0.352c0.027-0.018,0.081,0.054,0.081,0.09
					c-0.027,0.226-0.081,1.242-0.081,2.449c0,1.314-0.018,3.033,0.027,3.276c0.036,0.181,0.072,0.288,0.459,0.396
					c0.135,0.036,0.207,0.081,0.207,0.135c0,0.063-0.126,0.1-0.234,0.1c-0.216,0-0.603-0.027-0.765-0.027
					c-0.207,0-0.603,0.027-0.792,0.027c-0.18,0-0.252-0.027-0.252-0.1c0-0.062,0.099-0.107,0.198-0.126
					c0.414-0.09,0.432-0.252,0.468-0.702c0.027-0.369,0.054-1.314,0.054-2.736c0-0.667,0-1.639-0.027-1.882
					c-0.009-0.072-0.009-0.126-0.216-0.252c-0.153-0.108-0.18-0.136-0.18-0.171C85.701,113.31,85.728,113.247,85.827,113.22z"/>
				<path d="M90.481,116.001c0.198,0.189,0.315,0.441,0.315,0.757c0,0.054-0.072,0.152-0.171,0.152c-0.099,0-1.638,0-2.052-0.009
					c-0.027,0-0.063,0.045-0.072,0.072c-0.027,0.072-0.045,0.225-0.045,0.314c0,0.352,0.144,0.766,0.342,1.026
					c0.198,0.271,0.576,0.495,1.008,0.495c0.396,0,0.666-0.099,0.819-0.323c0.036-0.055,0.081-0.108,0.117-0.108
					c0.054,0,0.072,0.062,0.072,0.108c0,0.071-0.036,0.171-0.063,0.216c-0.315,0.459-0.792,0.675-1.306,0.675
					c-0.972,0-1.621-0.738-1.621-1.791c0-0.721,0.378-1.44,1.081-1.765c0.234-0.108,0.531-0.162,0.684-0.162
					C89.905,115.66,90.256,115.777,90.481,116.001z M88.59,116.56c-0.018,0.045,0.018,0.099,0.036,0.099
					c0.234,0.009,0.711,0.009,1.162,0c0.216,0,0.306-0.045,0.306-0.225c0-0.252-0.27-0.54-0.594-0.54
					C89.094,115.894,88.752,116.146,88.59,116.56z"/>
				<path d="M91.632,115.965c0.297-0.099,0.576-0.233,0.666-0.288c0.108-0.071,0.153-0.107,0.18-0.107
					c0.036,0,0.081,0.081,0.081,0.107c0,0.162-0.018,0.324-0.018,0.495c0,0.036,0.045,0.045,0.063,0.036
					c0.351-0.333,0.748-0.558,1.026-0.558c0.369,0,0.45,0.225,0.45,0.306c0,0.019-0.027,0.081-0.054,0.126
					c-0.099,0.145-0.315,0.388-0.369,0.414c-0.018,0.009-0.099-0.009-0.126-0.026c-0.099-0.091-0.315-0.198-0.495-0.198
					c-0.153,0-0.306,0.026-0.396,0.126c-0.063,0.072-0.09,0.153-0.09,0.198c0,0.18,0.045,1.81,0.054,1.944
					c0.018,0.261,0.072,0.432,0.234,0.459c0.117,0.027,0.279,0.072,0.414,0.108c0.144,0.045,0.162,0.107,0.162,0.144
					c0,0.045-0.081,0.081-0.216,0.081c-0.225,0-0.54-0.045-1.062-0.045c-0.271,0-0.378,0.036-0.594,0.036
					c-0.099,0-0.189-0.036-0.189-0.108c0-0.054,0.108-0.09,0.18-0.117c0.351-0.116,0.378-0.207,0.387-0.747c0-0.225,0-1.125,0-1.72
					c0-0.09,0-0.207-0.099-0.27c-0.216-0.171-0.306-0.207-0.306-0.243C91.515,116.091,91.533,116.001,91.632,115.965z"/>
				<path d="M96.745,115.722c0.099,0.019,0.189,0.045,0.252,0.055c0.198,0.018,0.855,0.026,1.044,0.071
					c0.054,0.01,0.081,0.063,0.081,0.1c0,0.126-0.126,0.288-0.162,0.288c-0.054,0-0.378,0-0.603-0.019
					c-0.036,0-0.063,0.045-0.054,0.072c0.045,0.135,0.072,0.297,0.072,0.45c0,0.495-0.153,0.864-0.504,1.135
					c-0.396,0.306-0.765,0.342-0.981,0.342c-0.054,0-0.252-0.009-0.315-0.009c-0.054-0.009-0.099-0.009-0.135,0.009
					c-0.09,0.045-0.288,0.234-0.288,0.306c0,0.234,0.27,0.396,0.369,0.405c0.396,0.019,1.369,0.027,1.657,0.072
					c0.072,0.009,0.27,0.09,0.432,0.216c0.252,0.217,0.378,0.559,0.378,0.793c0,0.675-0.459,1.134-0.846,1.386
					c-0.495,0.324-0.972,0.388-1.296,0.388s-0.747-0.055-1.125-0.334c-0.252-0.197-0.414-0.53-0.414-0.783
					c0-0.396,0.18-0.504,0.261-0.566c0.225-0.189,0.504-0.388,0.621-0.486c0.018-0.019,0-0.045-0.027-0.063
					c-0.063-0.036-0.234-0.09-0.351-0.18c-0.18-0.126-0.306-0.378-0.306-0.666c0-0.019,0.027-0.063,0.045-0.081
					c0.135-0.108,0.522-0.324,0.666-0.469c0.018-0.018-0.009-0.054-0.036-0.081c-0.252-0.144-0.685-0.485-0.685-1.143
					c0-0.441,0.198-0.766,0.549-1.026c0.252-0.189,0.567-0.288,0.918-0.288C96.321,115.615,96.483,115.66,96.745,115.722z
					 M96.889,121.241c0.36-0.233,0.495-0.576,0.495-0.837c0-0.117-0.018-0.324-0.126-0.468c-0.09-0.117-0.261-0.234-0.477-0.279
					c-0.243-0.045-0.531-0.045-0.91-0.045c-0.288,0-0.432,0.054-0.486,0.09c-0.288,0.198-0.405,0.531-0.405,0.738
					c0,0.288,0.126,0.522,0.315,0.685c0.243,0.188,0.549,0.278,0.882,0.278C96.528,121.403,96.79,121.295,96.889,121.241z
					 M95.439,116.055c-0.135,0.145-0.234,0.379-0.234,0.802c0,0.45,0.306,1.125,0.891,1.125c0.063,0,0.171-0.045,0.297-0.126
					c0.225-0.144,0.342-0.585,0.342-0.954c0-0.162-0.054-0.459-0.198-0.675c-0.171-0.252-0.387-0.396-0.648-0.396
					C95.727,115.831,95.52,115.948,95.439,116.055z"/>
				<path d="M98.03,115.741c0.225,0,0.441,0.036,0.702,0.036c0.252,0,0.522-0.019,0.63-0.019c0.072,0,0.198,0.027,0.198,0.1
					c0,0.062-0.063,0.117-0.207,0.152c-0.252,0.072-0.279,0.117-0.189,0.352c0.135,0.432,0.711,1.846,0.783,1.953
					c0.009,0.019,0.045,0.019,0.072-0.035c0.108-0.243,0.666-1.702,0.711-1.846c0.081-0.252,0.009-0.36-0.342-0.441
					c-0.108-0.027-0.189-0.09-0.189-0.126c0-0.081,0.117-0.1,0.225-0.1c0.171,0,0.414,0.01,0.531,0.01
					c0.126,0,0.333-0.036,0.567-0.036c0.117,0,0.18,0.018,0.18,0.081c0,0.081-0.09,0.117-0.198,0.153
					c-0.189,0.062-0.306,0.171-0.441,0.468c-0.297,0.675-0.783,1.882-0.99,2.403c-0.315,0.819-0.648,1.747-0.937,2.512
					c-0.036,0.117-0.207,0.252-0.468,0.252c-0.306,0-0.405-0.252-0.405-0.44c0-0.153,0.144-0.396,0.396-0.396
					c0.045,0,0.234,0.009,0.324,0.009c0.081,0,0.099-0.062,0.135-0.152c0.081-0.145,0.369-0.937,0.432-1.162
					c0.027-0.126,0.063-0.243,0.027-0.324c-0.027-0.062-0.099-0.27-0.135-0.368c-0.189-0.531-0.747-1.873-1.026-2.44
					c-0.081-0.162-0.126-0.252-0.423-0.351c-0.126-0.045-0.18-0.081-0.18-0.136C97.814,115.813,97.841,115.741,98.03,115.741z"/>
				<path d="M106.347,114.669c0.09,0,0.135,0.072,0.135,0.099l-0.027,1.954c0,0.045,0.027,0.054,0.054,0.054l1.864-0.018
					c0.027,0,0.072,0.071,0.072,0.126c0,0.216-0.072,0.342-0.126,0.342l-1.81,0.027c-0.036,0-0.054,0.035-0.054,0.081l-0.018,1.944
					c0,0.062-0.162,0.144-0.396,0.144c-0.045,0-0.108-0.054-0.108-0.099l-0.009-1.972c0-0.054-0.027-0.099-0.054-0.099l-1.765-0.01
					c-0.162,0-0.189-0.099-0.189-0.225c0-0.117,0.063-0.252,0.135-0.252l1.818,0.009c0.036,0,0.054-0.036,0.054-0.063v-1.917
					C105.924,114.723,106.221,114.669,106.347,114.669z"/>
				<path d="M111.422,115.903c0.153-0.055,0.477-0.171,0.603-0.262c0.09-0.054,0.171-0.099,0.216-0.099s0.09,0.099,0.09,0.135
					c0,0.153-0.036,0.369-0.036,0.45c0,0.045,0.045,0.027,0.054,0.027c0.36-0.243,0.828-0.495,1.207-0.495
					c0.441,0,0.693,0.198,0.819,0.342c0.198,0.234,0.315,0.648,0.315,1.099c0,0.171,0.018,1.513,0.027,1.639
					c0.018,0.135,0.108,0.252,0.333,0.314c0.171,0.045,0.225,0.09,0.225,0.153s-0.126,0.099-0.27,0.099
					c-0.207,0-0.414-0.018-0.666-0.018c-0.225,0-0.504,0.018-0.621,0.018c-0.081,0-0.207-0.035-0.207-0.107
					c0-0.063,0.099-0.117,0.207-0.153c0.216-0.081,0.261-0.153,0.279-0.45s0.027-1.387,0.027-1.647c0-0.324-0.162-0.585-0.27-0.666
					c-0.099-0.072-0.369-0.171-0.576-0.171c-0.396,0-0.63,0.135-0.801,0.288c-0.027,0.026-0.09,0.135-0.09,0.216
					c0,0.117,0,2.053,0.009,2.161c0.009,0.126,0.045,0.197,0.333,0.278c0.09,0.027,0.162,0.081,0.162,0.136
					c0,0.062-0.099,0.107-0.225,0.107c-0.108,0-0.36-0.009-0.549-0.009c-0.333,0-0.594,0.027-0.747,0.027
					c-0.135,0-0.234-0.036-0.234-0.117c0-0.063,0.09-0.108,0.189-0.135c0.297-0.091,0.352-0.181,0.378-0.505
					c0.027-0.27,0.045-1.053,0.045-1.972c0-0.099-0.018-0.188-0.216-0.351c-0.117-0.081-0.171-0.126-0.171-0.153
					C111.26,116.02,111.359,115.929,111.422,115.903z"/>
				<path d="M119.523,117.487c0,0.747-0.45,1.333-0.783,1.549c-0.36,0.261-0.711,0.36-1.116,0.36c-0.415,0-0.864-0.189-1.198-0.469
					c-0.387-0.314-0.666-0.927-0.666-1.377c0-0.685,0.288-1.116,0.63-1.404c0.279-0.243,0.729-0.495,1.332-0.495
					C118.614,115.651,119.523,116.353,119.523,117.487z M116.967,116.182c-0.234,0.216-0.441,0.684-0.441,1.152
					c0,0.297,0.036,0.576,0.108,0.801c0.225,0.675,0.738,0.999,1.17,0.999c0.099,0,0.297-0.045,0.549-0.297
					c0.225-0.243,0.405-0.801,0.405-1.188c0-0.468-0.108-0.981-0.45-1.377c-0.198-0.217-0.522-0.352-0.756-0.352
					C117.363,115.92,117.156,116.02,116.967,116.182z"/>
				<path d="M123.114,118.991c-0.369,0.306-0.91,0.405-1.225,0.405s-0.936-0.108-1.143-0.181c-0.036-0.018-0.117-0.009-0.189,0.027
					c-0.036,0.018-0.09,0.027-0.108,0.027c-0.036,0-0.054-0.055-0.054-0.117c0.045-0.702,0.054-2.251,0.054-2.989
					c0-0.855-0.027-2.188-0.045-2.313c-0.009-0.045-0.054-0.162-0.225-0.307c-0.135-0.099-0.18-0.126-0.18-0.171
					c0-0.009,0.081-0.117,0.108-0.126c0.252-0.09,0.559-0.171,0.738-0.279c0.117-0.071,0.207-0.107,0.225-0.107
					c0.036,0,0.099,0.081,0.099,0.117c-0.027,0.594-0.081,1.449-0.081,2.169c0,0.234,0,0.676,0.018,0.774
					c0,0.019,0.045,0.045,0.054,0.036c0.297-0.198,0.729-0.306,1.026-0.306c0.423,0,0.828,0.144,1.116,0.396
					c0.405,0.343,0.594,0.847,0.594,1.359C123.897,118.153,123.51,118.684,123.114,118.991z M122.709,116.434
					c-0.207-0.207-0.558-0.388-0.981-0.388c-0.297,0-0.468,0.081-0.54,0.136c-0.027,0.018-0.063,0.071-0.072,0.135
					c-0.009,0.081-0.018,0.333-0.018,0.521c0,0.469,0.027,0.955,0.072,1.441c0.009,0.188,0.063,0.333,0.18,0.449
					c0.252,0.262,0.675,0.379,0.837,0.379c0.099,0,0.342-0.117,0.549-0.307c0.252-0.243,0.414-0.801,0.414-1.206
					C123.15,117.271,123.015,116.767,122.709,116.434z"/>
				<path d="M124.661,119.324c-0.144,0-0.234-0.036-0.234-0.1c0-0.054,0.063-0.099,0.216-0.144c0.207-0.054,0.342-0.162,0.36-0.252
					c0.027-0.126,0.036-0.666,0.036-0.928c0-0.27,0.009-1.296-0.009-1.404c-0.009-0.062-0.108-0.135-0.369-0.324
					c-0.054-0.036-0.072-0.062-0.072-0.099c0-0.063,0.081-0.135,0.18-0.153c0.333-0.072,0.756-0.27,0.892-0.306
					c0.036,0,0.081,0.09,0.081,0.099c0,0.1-0.054,1.27-0.054,1.782c0,0.505,0.009,0.883,0.018,1.198
					c0.009,0.288,0.207,0.306,0.432,0.378c0.144,0.045,0.198,0.09,0.198,0.152c0,0.055-0.108,0.091-0.208,0.091
					c-0.063,0-0.513-0.027-0.702-0.027C125.129,119.288,124.814,119.324,124.661,119.324z M125.805,114.264
					c0,0.243-0.252,0.441-0.432,0.441c-0.063,0-0.207-0.036-0.288-0.108c-0.072-0.081-0.135-0.18-0.135-0.333
					c0-0.081,0.036-0.226,0.108-0.324c0.09-0.081,0.225-0.117,0.352-0.117C125.651,113.823,125.805,114.102,125.805,114.264z"/>
				<path d="M126.956,113.22c0.414-0.145,0.684-0.198,0.927-0.352c0.027-0.018,0.081,0.054,0.081,0.09
					c-0.027,0.226-0.081,1.242-0.081,2.449c0,1.314-0.018,3.033,0.027,3.276c0.036,0.181,0.072,0.288,0.459,0.396
					c0.135,0.036,0.207,0.081,0.207,0.135c0,0.063-0.126,0.1-0.234,0.1c-0.216,0-0.603-0.027-0.765-0.027
					c-0.207,0-0.603,0.027-0.792,0.027c-0.18,0-0.252-0.027-0.252-0.1c0-0.062,0.099-0.107,0.198-0.126
					c0.414-0.09,0.432-0.252,0.468-0.702c0.027-0.369,0.054-1.314,0.054-2.736c0-0.667,0-1.639-0.027-1.882
					c-0.009-0.072-0.009-0.126-0.216-0.252c-0.153-0.108-0.18-0.136-0.18-0.171C126.83,113.31,126.857,113.247,126.956,113.22z"/>
				<path d="M129.134,119.324c-0.144,0-0.234-0.036-0.234-0.1c0-0.054,0.063-0.099,0.216-0.144c0.207-0.054,0.342-0.162,0.36-0.252
					c0.027-0.126,0.036-0.666,0.036-0.928c0-0.27,0.009-1.296-0.009-1.404c-0.009-0.062-0.108-0.135-0.369-0.324
					c-0.054-0.036-0.072-0.062-0.072-0.099c0-0.063,0.081-0.135,0.18-0.153c0.333-0.072,0.756-0.27,0.892-0.306
					c0.036,0,0.081,0.09,0.081,0.099c0,0.1-0.054,1.27-0.054,1.782c0,0.505,0.009,0.883,0.018,1.198
					c0.009,0.288,0.207,0.306,0.432,0.378c0.144,0.045,0.198,0.09,0.198,0.152c0,0.055-0.108,0.091-0.208,0.091
					c-0.063,0-0.513-0.027-0.702-0.027C129.602,119.288,129.287,119.324,129.134,119.324z M130.277,114.264
					c0,0.243-0.252,0.441-0.432,0.441c-0.063,0-0.207-0.036-0.288-0.108c-0.072-0.081-0.135-0.18-0.135-0.333
					c0-0.081,0.036-0.226,0.108-0.324c0.09-0.081,0.225-0.117,0.352-0.117C130.124,113.823,130.277,114.102,130.277,114.264z"/>
				<path d="M133.518,115.741c0.009,0,0.099,0.045,0.099,0.072c0-0.027,0.027,0.225,0.027,0.342c0,0.081-0.171,0.099-0.234,0.099
					c-0.036,0-0.882,0-0.981,0c-0.045,0-0.081,0.045-0.081,0.063c-0.009,0.18-0.018,1.503-0.018,1.936
					c0,0.225,0.054,0.342,0.153,0.441c0.171,0.152,0.36,0.171,0.549,0.171c0.117,0,0.306-0.055,0.441-0.136
					c0.081-0.045,0.099-0.054,0.135-0.054c0.009,0,0.054,0.019,0.054,0.1c0,0.071-0.063,0.161-0.126,0.225
					c-0.243,0.234-0.558,0.396-0.963,0.396c-0.369,0-0.685-0.226-0.792-0.424c-0.099-0.152-0.117-0.342-0.117-0.594
					c0-0.333,0.036-1.684,0.036-1.999c0-0.062-0.162-0.126-0.342-0.18c-0.072-0.027-0.126-0.072-0.126-0.099
					c0-0.036,0.027-0.072,0.054-0.1c0.315-0.252,0.594-0.468,0.72-0.621c0.108-0.126,0.171-0.198,0.207-0.198
					c0.045,0,0.126,0.081,0.126,0.1c0,0.036,0,0.162,0,0.423c0,0.027,0.036,0.072,0.072,0.072
					C132.608,115.777,133.481,115.741,133.518,115.741z"/>
				<path d="M134.002,115.741c0.225,0,0.441,0.036,0.702,0.036c0.252,0,0.522-0.019,0.63-0.019c0.072,0,0.198,0.027,0.198,0.1
					c0,0.062-0.063,0.117-0.207,0.152c-0.252,0.072-0.279,0.117-0.189,0.352c0.135,0.432,0.711,1.846,0.784,1.953
					c0.009,0.019,0.045,0.019,0.072-0.035c0.108-0.243,0.666-1.702,0.711-1.846c0.081-0.252,0.009-0.36-0.342-0.441
					c-0.108-0.027-0.189-0.09-0.189-0.126c0-0.081,0.117-0.1,0.225-0.1c0.171,0,0.414,0.01,0.531,0.01
					c0.126,0,0.333-0.036,0.567-0.036c0.117,0,0.18,0.018,0.18,0.081c0,0.081-0.09,0.117-0.198,0.153
					c-0.189,0.062-0.306,0.171-0.441,0.468c-0.297,0.675-0.783,1.882-0.99,2.403c-0.315,0.819-0.648,1.747-0.937,2.512
					c-0.036,0.117-0.207,0.252-0.468,0.252c-0.306,0-0.405-0.252-0.405-0.44c0-0.153,0.144-0.396,0.396-0.396
					c0.045,0,0.234,0.009,0.324,0.009c0.081,0,0.099-0.062,0.135-0.152c0.081-0.145,0.369-0.937,0.432-1.162
					c0.027-0.126,0.063-0.243,0.027-0.324c-0.027-0.062-0.099-0.27-0.135-0.368c-0.189-0.531-0.747-1.873-1.026-2.44
					c-0.081-0.162-0.126-0.252-0.423-0.351c-0.126-0.045-0.18-0.081-0.18-0.136C133.787,115.813,133.813,115.741,134.002,115.741z"
					/>
				<path d="M138.017,112.95c-0.036-0.063-0.027-0.135,0.018-0.18c0.054-0.055,0.135-0.1,0.198-0.1s0.198,0.045,0.306,0.171
					c0.963,1.171,1.386,2.477,1.386,4.007c0,1.908-0.864,3.412-1.548,4.123c-0.072,0.072-0.207,0.171-0.261,0.171
					c-0.108,0-0.153-0.054-0.171-0.099c-0.018-0.027,0-0.081,0.072-0.172c0.837-0.863,1.44-2.286,1.44-3.808
					C139.457,115.03,138.908,114.057,138.017,112.95z"/>
			</g>
		</g>
		<g>
			
				<line fill="none" stroke="#BF2026" stroke-width="0.5" stroke-miterlimit="2.613" x1="39.102" y1="131.352" x2="54.798" y2="131.352"/>
			<path fill="#BF2026" d="M49.042,131.302c0,1.156-0.936,2.093-2.093,2.093c-1.156,0-2.093-0.937-2.093-2.093
				c0-1.157,0.937-2.093,2.093-2.093C48.107,129.209,49.042,130.145,49.042,131.302"/>
			<g>
				<path d="M58.368,128.876c0.198,0,0.64,0.026,1.099,0.026c0.054,0,0.135,0.063,0.189,0.117c0.135,0.162,0.36,0.433,0.711,0.892
					c0.405,0.513,2.386,2.674,2.989,3.331c0.054,0.054,0.09-0.036,0.09-0.063c0.045-0.288,0.018-1.26,0.018-2.557
					c0-0.306-0.018-0.621-0.045-0.9c-0.009-0.188-0.072-0.405-0.567-0.549c-0.18-0.054-0.242-0.126-0.242-0.198
					c0-0.062,0.126-0.081,0.233-0.081c0.234,0,0.486,0.009,0.774,0.009c0.324,0,0.612-0.036,0.847-0.036
					c0.152,0,0.207,0.027,0.207,0.1c0,0.054-0.055,0.135-0.217,0.18c-0.387,0.09-0.549,0.171-0.576,0.657
					c-0.018,0.324-0.099,2.098-0.099,3.646c0,0.378,0.063,1.053,0.063,1.197c0,0.09-0.046,0.189-0.127,0.189
					c-0.126,0-0.323-0.181-0.404-0.289c-0.153-0.188-0.315-0.423-0.559-0.72c-0.847-1.009-2.403-2.764-3.214-3.736
					c-0.036-0.045-0.099-0.026-0.099,0.019c-0.01,0.243-0.036,0.495-0.046,1.197c0,0.81-0.026,2.196-0.009,2.476
					c0.036,0.414,0.135,0.549,0.567,0.675c0.189,0.045,0.225,0.108,0.225,0.162c0,0.09-0.116,0.117-0.288,0.117
					c-0.261,0-0.639-0.045-0.963-0.045c-0.198,0-0.432,0.018-0.585,0.018c-0.126,0-0.234-0.009-0.234-0.099
					c0-0.072,0.09-0.126,0.181-0.153c0.423-0.144,0.594-0.18,0.63-0.846c0.045-0.729,0.171-2.89,0.171-3.638
					c0-0.323-0.045-0.404-0.063-0.432c-0.252-0.297-0.351-0.307-0.756-0.414c-0.099-0.027-0.198-0.072-0.198-0.145
					C58.071,128.913,58.161,128.876,58.368,128.876z"/>
				<path d="M68.926,132.891c0,0.747-0.449,1.333-0.783,1.549c-0.359,0.261-0.711,0.36-1.116,0.36c-0.414,0-0.864-0.189-1.197-0.469
					c-0.387-0.314-0.666-0.927-0.666-1.377c0-0.685,0.288-1.116,0.63-1.404c0.279-0.243,0.729-0.495,1.333-0.495
					C68.017,131.055,68.926,131.757,68.926,132.891z M66.37,131.586c-0.233,0.216-0.44,0.684-0.44,1.152
					c0,0.297,0.035,0.576,0.107,0.801c0.226,0.675,0.738,0.999,1.171,0.999c0.099,0,0.297-0.045,0.549-0.297
					c0.225-0.243,0.405-0.801,0.405-1.188c0-0.468-0.108-0.981-0.45-1.377c-0.198-0.217-0.522-0.352-0.756-0.352
					C66.766,131.325,66.559,131.424,66.37,131.586z"/>
				<path d="M72.517,134.395c-0.369,0.306-0.909,0.405-1.224,0.405c-0.315,0-0.937-0.108-1.144-0.181
					c-0.036-0.018-0.117-0.009-0.189,0.027c-0.036,0.018-0.09,0.027-0.107,0.027c-0.036,0-0.055-0.055-0.055-0.117
					c0.045-0.702,0.055-2.251,0.055-2.989c0-0.855-0.027-2.188-0.046-2.313c-0.009-0.045-0.054-0.162-0.225-0.307
					c-0.135-0.099-0.18-0.126-0.18-0.171c0-0.009,0.081-0.117,0.107-0.126c0.252-0.09,0.559-0.171,0.738-0.279
					c0.117-0.071,0.207-0.107,0.226-0.107c0.036,0,0.099,0.081,0.099,0.117c-0.027,0.594-0.081,1.449-0.081,2.169
					c0,0.234,0,0.676,0.019,0.774c0,0.019,0.045,0.045,0.054,0.036c0.297-0.198,0.729-0.306,1.026-0.306
					c0.423,0,0.828,0.144,1.116,0.396c0.405,0.343,0.594,0.847,0.594,1.359C73.3,133.557,72.914,134.088,72.517,134.395z
					 M72.112,131.838c-0.207-0.207-0.558-0.388-0.98-0.388c-0.298,0-0.469,0.081-0.541,0.136c-0.026,0.018-0.062,0.071-0.071,0.135
					c-0.009,0.081-0.019,0.333-0.019,0.521c0,0.469,0.027,0.955,0.072,1.441c0.009,0.188,0.063,0.333,0.18,0.449
					c0.253,0.262,0.676,0.379,0.838,0.379c0.099,0,0.342-0.117,0.549-0.307c0.252-0.243,0.414-0.801,0.414-1.206
					C72.553,132.675,72.418,132.171,72.112,131.838z"/>
				<path d="M74.065,134.728c-0.145,0-0.234-0.036-0.234-0.1c0-0.054,0.062-0.099,0.216-0.144c0.207-0.054,0.342-0.162,0.36-0.252
					c0.027-0.126,0.036-0.666,0.036-0.928c0-0.27,0.009-1.296-0.009-1.404c-0.01-0.062-0.108-0.135-0.369-0.324
					c-0.055-0.036-0.072-0.062-0.072-0.099c0-0.063,0.081-0.135,0.18-0.153c0.333-0.072,0.757-0.27,0.892-0.306
					c0.036,0,0.081,0.09,0.081,0.099c0,0.1-0.054,1.27-0.054,1.782c0,0.505,0.009,0.883,0.018,1.198
					c0.009,0.288,0.207,0.306,0.432,0.378c0.145,0.045,0.198,0.09,0.198,0.152c0,0.055-0.107,0.091-0.207,0.091
					c-0.062,0-0.513-0.027-0.702-0.027C74.533,134.692,74.217,134.728,74.065,134.728z M75.208,129.668
					c0,0.243-0.252,0.441-0.432,0.441c-0.063,0-0.207-0.036-0.288-0.108c-0.072-0.081-0.135-0.18-0.135-0.333
					c0-0.081,0.035-0.226,0.107-0.324c0.09-0.081,0.226-0.117,0.352-0.117C75.055,129.227,75.208,129.506,75.208,129.668z"/>
				<path d="M76.36,128.625c0.414-0.145,0.685-0.198,0.928-0.352c0.026-0.018,0.081,0.054,0.081,0.09
					c-0.027,0.226-0.081,1.242-0.081,2.449c0,1.314-0.019,3.033,0.026,3.276c0.036,0.181,0.072,0.288,0.459,0.396
					c0.136,0.036,0.207,0.081,0.207,0.135c0,0.063-0.126,0.1-0.233,0.1c-0.217,0-0.604-0.027-0.766-0.027
					c-0.207,0-0.604,0.027-0.792,0.027c-0.181,0-0.252-0.027-0.252-0.1c0-0.062,0.099-0.107,0.198-0.126
					c0.414-0.09,0.432-0.252,0.468-0.702c0.027-0.369,0.054-1.314,0.054-2.736c0-0.667,0-1.639-0.026-1.882
					c-0.01-0.072-0.01-0.126-0.217-0.252c-0.152-0.108-0.18-0.136-0.18-0.171C76.234,128.714,76.261,128.651,76.36,128.625z"/>
				<path d="M78.539,134.728c-0.145,0-0.234-0.036-0.234-0.1c0-0.054,0.062-0.099,0.216-0.144c0.207-0.054,0.342-0.162,0.36-0.252
					c0.027-0.126,0.036-0.666,0.036-0.928c0-0.27,0.009-1.296-0.009-1.404c-0.01-0.062-0.108-0.135-0.369-0.324
					c-0.055-0.036-0.072-0.062-0.072-0.099c0-0.063,0.081-0.135,0.18-0.153c0.333-0.072,0.757-0.27,0.892-0.306
					c0.036,0,0.081,0.09,0.081,0.099c0,0.1-0.054,1.27-0.054,1.782c0,0.505,0.009,0.883,0.018,1.198
					c0.009,0.288,0.207,0.306,0.432,0.378c0.145,0.045,0.198,0.09,0.198,0.152c0,0.055-0.107,0.091-0.207,0.091
					c-0.062,0-0.513-0.027-0.702-0.027C79.006,134.692,78.691,134.728,78.539,134.728z M79.681,129.668
					c0,0.243-0.252,0.441-0.432,0.441c-0.063,0-0.207-0.036-0.288-0.108c-0.072-0.081-0.135-0.18-0.135-0.333
					c0-0.081,0.035-0.226,0.107-0.324c0.09-0.081,0.226-0.117,0.352-0.117C79.529,129.227,79.681,129.506,79.681,129.668z"/>
				<path d="M82.922,131.145c0.009,0,0.099,0.045,0.099,0.072c0-0.027,0.027,0.225,0.027,0.342c0,0.081-0.171,0.099-0.234,0.099
					c-0.036,0-0.882,0-0.981,0c-0.045,0-0.081,0.045-0.081,0.063c-0.009,0.18-0.018,1.503-0.018,1.936
					c0,0.225,0.054,0.342,0.153,0.441c0.171,0.152,0.359,0.171,0.549,0.171c0.117,0,0.306-0.055,0.441-0.136
					c0.081-0.045,0.099-0.054,0.135-0.054c0.009,0,0.054,0.019,0.054,0.1c0,0.071-0.062,0.161-0.126,0.225
					c-0.243,0.234-0.558,0.396-0.963,0.396c-0.369,0-0.685-0.226-0.792-0.424c-0.1-0.152-0.117-0.342-0.117-0.594
					c0-0.333,0.036-1.684,0.036-1.999c0-0.062-0.162-0.126-0.343-0.18c-0.071-0.027-0.126-0.072-0.126-0.099
					c0-0.036,0.027-0.072,0.055-0.1c0.314-0.252,0.594-0.468,0.72-0.621c0.108-0.126,0.171-0.198,0.207-0.198
					c0.045,0,0.126,0.081,0.126,0.1c0,0.036,0,0.162,0,0.423c0,0.027,0.036,0.072,0.072,0.072
					C82.013,131.181,82.886,131.145,82.922,131.145z"/>
				<path d="M83.407,131.145c0.226,0,0.441,0.036,0.702,0.036c0.252,0,0.522-0.019,0.631-0.019c0.071,0,0.197,0.027,0.197,0.1
					c0,0.062-0.062,0.117-0.207,0.152c-0.252,0.072-0.278,0.117-0.188,0.352c0.135,0.432,0.711,1.846,0.783,1.953
					c0.009,0.019,0.045,0.019,0.072-0.035c0.107-0.243,0.666-1.702,0.711-1.846c0.081-0.252,0.009-0.36-0.343-0.441
					c-0.107-0.027-0.188-0.09-0.188-0.126c0-0.081,0.117-0.1,0.225-0.1c0.172,0,0.414,0.01,0.531,0.01
					c0.126,0,0.333-0.036,0.567-0.036c0.117,0,0.18,0.018,0.18,0.081c0,0.081-0.09,0.117-0.197,0.153
					c-0.189,0.062-0.307,0.171-0.441,0.468c-0.297,0.675-0.783,1.882-0.99,2.403c-0.315,0.819-0.648,1.747-0.937,2.512
					c-0.036,0.117-0.207,0.252-0.468,0.252c-0.307,0-0.405-0.252-0.405-0.44c0-0.153,0.144-0.396,0.396-0.396
					c0.046,0,0.234,0.009,0.324,0.009c0.081,0,0.1-0.062,0.136-0.152c0.081-0.145,0.369-0.937,0.432-1.162
					c0.027-0.126,0.063-0.243,0.027-0.324c-0.027-0.062-0.1-0.27-0.135-0.368c-0.189-0.531-0.748-1.873-1.026-2.44
					c-0.081-0.162-0.126-0.252-0.424-0.351c-0.126-0.045-0.18-0.081-0.18-0.136C83.191,131.217,83.218,131.145,83.407,131.145z"/>
			</g>
		</g>
		<g>
			
				<line fill="none" stroke="#4E81BE" stroke-width="0.5" stroke-miterlimit="2.613" x1="39.102" y1="146.753" x2="54.798" y2="146.754"/>
			<path fill="#FFFFFF" d="M49.042,146.669c0,1.157-0.936,2.093-2.093,2.093c-1.156,0-2.093-0.936-2.093-2.093
				c0-1.151,0.937-2.093,2.093-2.093C48.107,144.577,49.042,145.518,49.042,146.669z"/>
			<path fill="#4E81BE" d="M49.042,146.669c0,1.157-0.936,2.093-2.093,2.093c-1.156,0-2.093-0.936-2.093-2.093
				c0-1.151,0.937-2.093,2.093-2.093C48.107,144.577,49.042,145.518,49.042,146.669z"/>
			<g>
				<path d="M62.879,144.29c0.234,0.036,0.549,0.153,0.685,0.171c0.045,0,0.135,0.063,0.135,0.271c0,0.188,0.045,0.585,0.063,0.783
					c0.009,0.188-0.063,0.297-0.136,0.297c-0.045,0-0.099-0.1-0.144-0.234c-0.081-0.314-0.252-0.585-0.369-0.675
					c-0.495-0.369-0.954-0.469-1.44-0.469c-1.449,0-2.377,1.198-2.377,2.558c0,0.603,0.117,1.089,0.315,1.485
					c0.504,1.035,1.548,1.44,2.277,1.44c0.171,0,0.612-0.027,0.981-0.243c0.396-0.207,0.621-0.495,0.837-0.874
					c0.117-0.188,0.153-0.233,0.189-0.233c0.09,0,0.099,0.198,0.081,0.297c-0.027,0.226-0.234,0.702-0.36,0.909
					c-0.036,0.081-0.189,0.189-0.279,0.234c-0.144,0.062-0.873,0.252-1.639,0.252c-1.269,0-2.196-0.63-2.557-1.054
					c-0.342-0.396-0.756-1.044-0.756-2.07s0.612-1.846,0.99-2.16c0.774-0.631,1.611-0.829,2.439-0.829
					C62.132,144.145,62.538,144.208,62.879,144.29z"/>
				<path d="M64.885,144.029c0.414-0.145,0.685-0.198,0.928-0.352c0.026-0.018,0.081,0.054,0.081,0.09
					c-0.027,0.226-0.081,1.242-0.081,2.449c0,1.314-0.019,3.033,0.026,3.276c0.036,0.181,0.072,0.288,0.459,0.396
					c0.136,0.036,0.207,0.081,0.207,0.135c0,0.063-0.126,0.1-0.233,0.1c-0.217,0-0.604-0.027-0.766-0.027
					c-0.207,0-0.604,0.027-0.792,0.027c-0.181,0-0.252-0.027-0.252-0.1c0-0.062,0.099-0.107,0.198-0.126
					c0.414-0.09,0.432-0.252,0.468-0.702c0.027-0.369,0.054-1.314,0.054-2.736c0-0.667,0-1.639-0.026-1.882
					c-0.01-0.072-0.01-0.126-0.217-0.252c-0.152-0.108-0.18-0.136-0.18-0.171C64.759,144.119,64.787,144.055,64.885,144.029z"/>
				<path d="M69.54,146.81c0.198,0.189,0.314,0.441,0.314,0.757c0,0.054-0.071,0.152-0.171,0.152c-0.099,0-1.639,0-2.053-0.009
					c-0.026,0-0.062,0.045-0.071,0.072c-0.027,0.072-0.045,0.225-0.045,0.314c0,0.352,0.144,0.766,0.342,1.026
					c0.198,0.271,0.576,0.495,1.008,0.495c0.396,0,0.667-0.099,0.819-0.323c0.036-0.055,0.081-0.108,0.117-0.108
					c0.054,0,0.072,0.062,0.072,0.108c0,0.071-0.036,0.171-0.063,0.216c-0.314,0.459-0.792,0.675-1.305,0.675
					c-0.973,0-1.621-0.738-1.621-1.791c0-0.721,0.378-1.44,1.08-1.765c0.234-0.108,0.531-0.162,0.685-0.162
					C68.963,146.468,69.314,146.585,69.54,146.81z M67.649,147.369c-0.019,0.045,0.018,0.099,0.036,0.099
					c0.233,0.009,0.711,0.009,1.161,0c0.216,0,0.306-0.045,0.306-0.225c0-0.252-0.27-0.54-0.594-0.54
					C68.153,146.703,67.811,146.955,67.649,147.369z"/>
				<path d="M70.691,146.774c0.297-0.099,0.576-0.233,0.666-0.288c0.108-0.071,0.153-0.107,0.181-0.107
					c0.035,0,0.081,0.081,0.081,0.107c0,0.162-0.019,0.324-0.019,0.495c0,0.036,0.045,0.045,0.063,0.036
					c0.351-0.333,0.747-0.558,1.026-0.558c0.369,0,0.449,0.225,0.449,0.306c0,0.019-0.026,0.081-0.054,0.126
					c-0.099,0.145-0.314,0.388-0.369,0.414c-0.018,0.009-0.099-0.009-0.126-0.026c-0.099-0.091-0.314-0.198-0.495-0.198
					c-0.153,0-0.306,0.026-0.396,0.126c-0.063,0.072-0.091,0.153-0.091,0.198c0,0.18,0.045,1.81,0.055,1.944
					c0.018,0.261,0.071,0.432,0.233,0.459c0.117,0.027,0.279,0.072,0.414,0.108c0.145,0.045,0.162,0.107,0.162,0.144
					c0,0.045-0.081,0.081-0.216,0.081c-0.225,0-0.54-0.045-1.062-0.045c-0.27,0-0.378,0.036-0.594,0.036
					c-0.1,0-0.189-0.036-0.189-0.108c0-0.054,0.108-0.09,0.181-0.117c0.351-0.116,0.378-0.207,0.387-0.747c0-0.225,0-1.125,0-1.72
					c0-0.09,0-0.207-0.099-0.27c-0.217-0.171-0.307-0.207-0.307-0.243C70.574,146.9,70.592,146.81,70.691,146.774z"/>
				<path d="M75.803,146.531c0.099,0.019,0.188,0.045,0.252,0.055c0.198,0.018,0.855,0.026,1.044,0.071
					c0.055,0.01,0.081,0.063,0.081,0.1c0,0.126-0.126,0.288-0.162,0.288c-0.054,0-0.378,0-0.603-0.019
					c-0.036,0-0.063,0.045-0.055,0.072c0.046,0.135,0.072,0.297,0.072,0.45c0,0.495-0.153,0.864-0.504,1.135
					c-0.396,0.306-0.766,0.342-0.981,0.342c-0.054,0-0.252-0.009-0.315-0.009c-0.054-0.009-0.099-0.009-0.135,0.009
					c-0.09,0.045-0.288,0.234-0.288,0.306c0,0.234,0.271,0.396,0.369,0.405c0.396,0.019,1.368,0.027,1.656,0.072
					c0.072,0.009,0.271,0.09,0.433,0.216c0.252,0.217,0.378,0.559,0.378,0.793c0,0.675-0.459,1.134-0.846,1.386
					c-0.496,0.324-0.973,0.388-1.297,0.388s-0.747-0.055-1.125-0.334c-0.252-0.197-0.414-0.53-0.414-0.783
					c0-0.396,0.18-0.504,0.261-0.566c0.225-0.189,0.504-0.388,0.621-0.486c0.018-0.019,0-0.045-0.027-0.063
					c-0.062-0.036-0.233-0.09-0.351-0.18c-0.181-0.126-0.307-0.378-0.307-0.666c0-0.019,0.027-0.063,0.045-0.081
					c0.136-0.108,0.522-0.324,0.667-0.469c0.018-0.018-0.01-0.054-0.036-0.081c-0.252-0.144-0.685-0.485-0.685-1.143
					c0-0.441,0.198-0.766,0.55-1.026c0.252-0.189,0.566-0.288,0.918-0.288C75.38,146.423,75.542,146.468,75.803,146.531z
					 M75.947,152.049c0.36-0.233,0.495-0.576,0.495-0.837c0-0.117-0.018-0.324-0.126-0.468c-0.09-0.117-0.261-0.234-0.477-0.279
					c-0.243-0.045-0.531-0.045-0.909-0.045c-0.288,0-0.433,0.054-0.486,0.09c-0.288,0.198-0.405,0.531-0.405,0.738
					c0,0.288,0.126,0.522,0.315,0.685c0.243,0.188,0.549,0.278,0.882,0.278C75.587,152.211,75.848,152.104,75.947,152.049z
					 M74.498,146.864c-0.135,0.145-0.234,0.379-0.234,0.802c0,0.45,0.307,1.125,0.892,1.125c0.063,0,0.171-0.045,0.297-0.126
					c0.226-0.144,0.343-0.585,0.343-0.954c0-0.162-0.055-0.459-0.198-0.675c-0.171-0.252-0.388-0.396-0.648-0.396
					C74.786,146.639,74.579,146.756,74.498,146.864z"/>
				<path d="M77.089,146.549c0.226,0,0.441,0.036,0.702,0.036c0.252,0,0.522-0.019,0.631-0.019c0.071,0,0.197,0.027,0.197,0.1
					c0,0.062-0.062,0.117-0.207,0.152c-0.252,0.072-0.278,0.117-0.188,0.352c0.135,0.432,0.711,1.846,0.783,1.953
					c0.009,0.019,0.045,0.019,0.071-0.035c0.108-0.243,0.667-1.702,0.712-1.846c0.081-0.252,0.009-0.36-0.343-0.441
					c-0.107-0.027-0.188-0.09-0.188-0.126c0-0.081,0.117-0.1,0.225-0.1c0.171,0,0.414,0.01,0.531,0.01
					c0.126,0,0.333-0.036,0.567-0.036c0.117,0,0.18,0.018,0.18,0.081c0,0.081-0.09,0.117-0.197,0.153
					c-0.189,0.062-0.307,0.171-0.441,0.468c-0.297,0.675-0.783,1.882-0.99,2.403c-0.315,0.819-0.648,1.747-0.937,2.512
					c-0.036,0.117-0.207,0.252-0.468,0.252c-0.307,0-0.405-0.252-0.405-0.44c0-0.153,0.144-0.396,0.396-0.396
					c0.046,0,0.234,0.009,0.324,0.009c0.081,0,0.1-0.062,0.136-0.152c0.081-0.145,0.369-0.937,0.432-1.162
					c0.027-0.126,0.063-0.243,0.027-0.324c-0.027-0.062-0.1-0.27-0.136-0.368c-0.188-0.531-0.747-1.873-1.025-2.44
					c-0.081-0.162-0.127-0.252-0.424-0.351c-0.126-0.045-0.18-0.081-0.18-0.136C76.874,146.622,76.901,146.549,77.089,146.549z"/>
			</g>
		</g>
	</g>
</g>
</svg>
