<?xml version="1.0" encoding="utf-8"?>
<!-- Generator: Adobe Illustrator 16.0.0, SVG Export Plug-In . SVG Version: 6.00 Build 0)  -->
<svg version="1.1" id="Layer_1" xmlns="http://www.w3.org/2000/svg" xmlns:xlink="http://www.w3.org/1999/xlink" x="0px" y="0px"
	 width="322.628px" height="155.878px" viewBox="0 0 322.628 155.878" enable-background="new 0 0 322.628 155.878"
	 xml:space="preserve">
<line fill="none" stroke="#999999" stroke-width="0.5" stroke-miterlimit="2.613" x1="42.336" y1="141.339" x2="316.835" y2="141.339"/>
<line fill="none" stroke="#999999" stroke-width="0.5" stroke-miterlimit="2.613" x1="42.336" y1="108.806" x2="316.835" y2="108.806"/>
<line fill="none" stroke="#999999" stroke-width="0.5" stroke-miterlimit="2.613" x1="42.336" y1="76.287" x2="316.835" y2="76.287"/>
<line fill="none" stroke="#999999" stroke-width="0.5" stroke-miterlimit="2.613" x1="42.336" y1="43.763" x2="316.835" y2="43.763"/>
<line fill="none" stroke="#999999" stroke-width="0.5" stroke-miterlimit="2.613" x1="42.336" y1="11.261" x2="316.835" y2="11.261"/>
<line fill="none" stroke="#999999" stroke-width="0.5" stroke-miterlimit="2.613" x1="58.04" y1="0.257" x2="58.04" y2="140.744"/>
<line fill="none" stroke="#999999" stroke-width="0.5" stroke-miterlimit="2.613" x1="73.722" y1="0.257" x2="73.722" y2="140.744"/>
<line fill="none" stroke="#999999" stroke-width="0.5" stroke-miterlimit="2.613" x1="89.407" y1="0.257" x2="89.407" y2="140.744"/>
<line fill="none" stroke="#999999" stroke-width="0.5" stroke-miterlimit="2.613" x1="105.093" y1="0.257" x2="105.093" y2="140.744"/>
<line fill="none" stroke="#999999" stroke-width="0.5" stroke-miterlimit="2.613" x1="120.778" y1="0.257" x2="120.778" y2="140.744"/>
<line fill="none" stroke="#999999" stroke-width="0.5" stroke-miterlimit="2.613" x1="136.464" y1="0.257" x2="136.464" y2="140.744"/>
<line fill="none" stroke="#999999" stroke-width="0.5" stroke-miterlimit="2.613" x1="152.15" y1="0.257" x2="152.15" y2="140.744"/>
<line fill="none" stroke="#999999" stroke-width="0.5" stroke-miterlimit="2.613" x1="167.831" y1="0.257" x2="167.831" y2="140.744"/>
<line fill="none" stroke="#999999" stroke-width="0.5" stroke-miterlimit="2.613" x1="183.518" y1="0.257" x2="183.518" y2="140.744"/>
<line fill="none" stroke="#999999" stroke-width="0.5" stroke-miterlimit="2.613" x1="199.203" y1="0.257" x2="199.203" y2="140.744"/>
<line fill="none" stroke="#999999" stroke-width="0.5" stroke-miterlimit="2.613" x1="214.889" y1="0.257" x2="214.889" y2="140.744"/>
<line fill="none" stroke="#999999" stroke-width="0.5" stroke-miterlimit="2.613" x1="230.574" y1="0.257" x2="230.574" y2="140.744"/>
<line fill="none" stroke="#999999" stroke-width="0.5" stroke-miterlimit="2.613" x1="246.26" y1="0.257" x2="246.26" y2="140.744"/>
<line fill="none" stroke="#999999" stroke-width="0.5" stroke-miterlimit="2.613" x1="261.944" y1="0.257" x2="261.944" y2="140.744"/>
<line fill="none" stroke="#999999" stroke-width="0.5" stroke-miterlimit="2.613" x1="277.626" y1="0.257" x2="277.626" y2="140.744"/>
<line fill="none" stroke="#999999" stroke-width="0.5" stroke-miterlimit="2.613" x1="293.312" y1="0.257" x2="293.312" y2="140.744"/>
<line fill="none" stroke="#999999" stroke-width="0.5" stroke-miterlimit="2.613" x1="308.997" y1="0.257" x2="308.997" y2="140.744"/>
<polyline fill="none" stroke="#000000" stroke-width="0.5" stroke-miterlimit="2.613" points="42.336,141.339 42.336,0.25 
	316.835,0.25 316.835,141.339 "/>
<line fill="none" stroke="#000000" stroke-width="0.5" stroke-miterlimit="2.613" x1="39.189" y1="141.339" x2="42.336" y2="141.339"/>
<line fill="none" stroke="#000000" stroke-width="0.5" stroke-miterlimit="2.613" x1="39.189" y1="108.806" x2="42.336" y2="108.806"/>
<line fill="none" stroke="#000000" stroke-width="0.5" stroke-miterlimit="2.613" x1="39.189" y1="76.287" x2="42.336" y2="76.287"/>
<line fill="none" stroke="#000000" stroke-width="0.5" stroke-miterlimit="2.613" x1="39.189" y1="43.763" x2="42.336" y2="43.763"/>
<line fill="none" stroke="#000000" stroke-width="0.5" stroke-miterlimit="2.613" x1="39.189" y1="11.261" x2="42.336" y2="11.261"/>
<line fill="none" stroke="#000000" stroke-width="0.5" stroke-miterlimit="2.613" x1="42.336" y1="141.339" x2="316.835" y2="141.339"/>
<line fill="none" stroke="#000000" stroke-width="0.5" stroke-miterlimit="2.613" x1="42.336" y1="141.339" x2="42.336" y2="144.486"/>
<line fill="none" stroke="#000000" stroke-width="0.5" stroke-miterlimit="2.613" x1="58.04" y1="141.339" x2="58.04" y2="144.486"/>
<line fill="none" stroke="#000000" stroke-width="0.5" stroke-miterlimit="2.613" x1="73.722" y1="141.339" x2="73.722" y2="144.486"/>
<line fill="none" stroke="#000000" stroke-width="0.5" stroke-miterlimit="2.613" x1="89.407" y1="141.339" x2="89.407" y2="144.486"/>
<line fill="none" stroke="#000000" stroke-width="0.5" stroke-miterlimit="2.613" x1="105.093" y1="141.339" x2="105.093" y2="144.486"/>
<line fill="none" stroke="#000000" stroke-width="0.5" stroke-miterlimit="2.613" x1="120.778" y1="141.339" x2="120.778" y2="144.486"/>
<line fill="none" stroke="#000000" stroke-width="0.5" stroke-miterlimit="2.613" x1="136.464" y1="141.339" x2="136.464" y2="144.486"/>
<line fill="none" stroke="#000000" stroke-width="0.5" stroke-miterlimit="2.613" x1="152.15" y1="141.339" x2="152.15" y2="144.486"/>
<line fill="none" stroke="#000000" stroke-width="0.5" stroke-miterlimit="2.613" x1="167.831" y1="141.339" x2="167.831" y2="144.486"/>
<line fill="none" stroke="#000000" stroke-width="0.5" stroke-miterlimit="2.613" x1="183.518" y1="141.339" x2="183.518" y2="144.486"/>
<line fill="none" stroke="#000000" stroke-width="0.5" stroke-miterlimit="2.613" x1="199.203" y1="141.339" x2="199.203" y2="144.486"/>
<line fill="none" stroke="#000000" stroke-width="0.5" stroke-miterlimit="2.613" x1="214.889" y1="141.339" x2="214.889" y2="144.486"/>
<line fill="none" stroke="#000000" stroke-width="0.5" stroke-miterlimit="2.613" x1="230.574" y1="141.339" x2="230.574" y2="144.486"/>
<line fill="none" stroke="#000000" stroke-width="0.5" stroke-miterlimit="2.613" x1="246.26" y1="141.339" x2="246.26" y2="144.486"/>
<line fill="none" stroke="#000000" stroke-width="0.5" stroke-miterlimit="2.613" x1="261.944" y1="141.339" x2="261.944" y2="144.486"/>
<line fill="none" stroke="#000000" stroke-width="0.5" stroke-miterlimit="2.613" x1="277.626" y1="141.339" x2="277.626" y2="144.486"/>
<line fill="none" stroke="#000000" stroke-width="0.5" stroke-miterlimit="2.613" x1="293.312" y1="141.339" x2="293.312" y2="144.486"/>
<line fill="none" stroke="#000000" stroke-width="0.5" stroke-miterlimit="2.613" x1="308.997" y1="141.339" x2="308.997" y2="144.486"/>
<path fill="none" stroke="#9CBB59" stroke-miterlimit="2.613" d="M42.336,117.844c7.841-0.923,31.372-3.699,47.057-5.547
	c15.685-1.848,32.679-3.124,47.056-5.541c14.377-2.423,27.451-6.042,39.216-8.968c11.766-2.921,20.914-5.829,31.37-8.565
	c10.457-2.735,23.531-3.336,31.372-7.849c7.845-4.518,10.456-12.287,15.686-19.239c5.229-6.956,10.457-15.892,15.685-22.491
	c5.229-6.603,11.766-13.511,15.687-17.113c3.328-3.054,5.626-3.218,7.845-4.486c2.612-1.493,3.921-2.917,7.841-4.481
	c3.924-1.57,10.456-3.284,15.685-4.924"/>
<path fill="none" stroke="#BF2026" stroke-miterlimit="2.613" d="M301.15,17.758c3.924,0.454,10.457,2.271,15.685,3.402
	 M269.779,26.95c5.228-3.933,11.765-6.42,15.686-7.84c3.703-1.343,5.379-0.463,7.845-0.675c2.608-0.226,3.933-1.127,7.841-0.676
	 M254.094,42.719c5.229-5.781,10.457-11.831,15.686-15.77 M238.408,61.631c7.845-4.902,10.456-13.131,15.686-18.912 M207.036,72.132
	c10.457-3.31,23.531-5.599,31.372-10.5 M175.666,81.506c11.766-1.078,20.914-6.06,31.37-9.374 M136.45,78.584
	c14.377-3.486,27.451,3.996,39.216,2.922 M89.394,102.406c15.685-7.942,32.679-20.339,47.056-23.822 M42.336,126.228
	c7.841-3.973,31.372-15.884,47.057-23.821"/>
<path fill="none" stroke="#4E81BE" stroke-miterlimit="2.613" d="M301.15,61.167c3.924-0.008,10.457,0.336,15.685,0.509
	 M269.779,65.273c5.228-1.225,11.765-2.417,15.686-3.01c3.89-0.583,5.254-0.362,7.845-0.543c2.612-0.182,3.921-0.543,7.841-0.553
	 M254.094,69.613c5.229-1.972,10.457-3.116,15.686-4.34 M238.408,77.096c7.845-2.374,10.456-5.511,15.686-7.482 M207.036,83.853
	c10.457-3.827,23.531-4.384,31.372-6.757 M175.666,100.059c11.766-5.453,20.914-12.378,31.37-16.206 M136.45,116.584
	c14.377-4.812,27.451-11.07,39.216-16.525 M89.394,128.928c15.685-4.104,32.679-7.53,47.056-12.344 M42.336,141.215
	c7.841-2.046,31.372-8.181,47.057-12.287"/>
<g>
	<path d="M22.646,141.025c0.171,0,0.379,0.027,0.712,0.027c0.252,0,0.505-0.036,0.757-0.036c0.126,0,0.189,0.009,0.189,0.081
		s-0.063,0.117-0.189,0.162c-0.261,0.09-0.378,0.108-0.388,0.532c-0.009,0.324-0.018,0.541-0.018,0.974c0,0.279,0,0.749,0,1.163
		c0,0.189-0.009,0.298,0.406,0.397c0.189,0.045,0.226,0.09,0.226,0.162c0,0.081-0.144,0.108-0.234,0.108
		c-0.271,0-0.505-0.027-0.785-0.027c-0.297,0-0.568,0.054-0.73,0.054c-0.18,0-0.252-0.036-0.252-0.107
		c0-0.046,0.063-0.108,0.198-0.145c0.406-0.1,0.442-0.208,0.478-0.613c0.018-0.207,0.054-0.947,0.054-1.371
		c0-0.216,0-0.414-0.009-0.567c-0.018-0.379-0.054-0.434-0.388-0.532c-0.171-0.045-0.243-0.091-0.243-0.189
		C22.429,141.053,22.51,141.025,22.646,141.025z"/>
	<path d="M29.419,142.721c0,1.082-0.766,1.957-1.776,1.957c-0.983,0-1.713-0.866-1.713-1.894c0-1.128,0.902-1.858,1.741-1.858
		C29.085,140.926,29.419,142.188,29.419,142.721z M26.389,142.774c0,0.442,0.162,0.758,0.397,1.02
		c0.252,0.279,0.676,0.433,0.947,0.433c0.649,0,1.217-0.631,1.217-1.38c0-0.405-0.117-0.812-0.361-1.063
		c-0.252-0.253-0.55-0.397-0.965-0.397C26.903,141.386,26.389,142.008,26.389,142.774z"/>
	<path d="M33.722,142.721c0,1.082-0.766,1.957-1.776,1.957c-0.983,0-1.713-0.866-1.713-1.894c0-1.128,0.902-1.858,1.741-1.858
		C33.388,140.926,33.722,142.188,33.722,142.721z M30.692,142.774c0,0.442,0.162,0.758,0.397,1.02
		c0.252,0.279,0.676,0.433,0.947,0.433c0.649,0,1.217-0.631,1.217-1.38c0-0.405-0.117-0.812-0.361-1.063
		c-0.252-0.253-0.55-0.397-0.965-0.397C31.206,141.386,30.692,142.008,30.692,142.774z"/>
</g>
<g>
	<path d="M23.033,107.558c0.361,0.217,0.505,0.658,0.505,0.947c0,0.396-0.262,0.748-0.379,0.92
		c-0.126,0.171-0.514,0.577-0.929,1.001c-0.027,0.036-0.045,0.081,0,0.081c0.451,0,1.371,0.018,1.56,0.009
		c0.171,0,0.315-0.045,0.559-0.334c0.018-0.018,0.09-0.09,0.18-0.09c0.036,0,0.082,0.072,0.009,0.234
		c-0.063,0.136-0.208,0.514-0.244,0.667c-0.018,0.055-0.117,0.117-0.162,0.117c-0.036,0-0.712-0.018-1.632-0.018
		c-0.469,0-0.749,0.027-0.884,0.027c-0.198,0-0.252-0.055-0.252-0.091c0-0.054,0.063-0.135,0.144-0.216
		c0.099-0.072,0.226-0.208,0.442-0.434c0.586-0.586,0.947-1.108,0.947-1.668c0-0.343-0.216-0.641-0.604-0.641
		c-0.28,0-0.469,0.136-0.595,0.235c-0.09,0.062-0.153,0.126-0.171,0.126c-0.045,0-0.108-0.036-0.108-0.081
		c0-0.081,0.216-0.415,0.514-0.649c0.153-0.117,0.379-0.253,0.704-0.253C22.798,107.449,22.961,107.521,23.033,107.558z"/>
	<path d="M28.914,109.244c0,1.082-0.767,1.957-1.777,1.957c-0.983,0-1.713-0.866-1.713-1.894c0-1.128,0.902-1.858,1.741-1.858
		C28.58,107.449,28.914,108.712,28.914,109.244z M25.884,109.298c0,0.442,0.162,0.758,0.397,1.02
		c0.252,0.279,0.676,0.433,0.947,0.433c0.649,0,1.217-0.631,1.217-1.38c0-0.405-0.117-0.812-0.361-1.063
		c-0.252-0.253-0.55-0.397-0.965-0.397C26.398,107.909,25.884,108.531,25.884,109.298z"/>
	<path d="M33.217,109.244c0,1.082-0.767,1.957-1.777,1.957c-0.983,0-1.713-0.866-1.713-1.894c0-1.128,0.902-1.858,1.741-1.858
		C32.883,107.449,33.217,108.712,33.217,109.244z M30.187,109.298c0,0.442,0.162,0.758,0.397,1.02
		c0.252,0.279,0.676,0.433,0.947,0.433c0.649,0,1.217-0.631,1.217-1.38c0-0.405-0.117-0.812-0.361-1.063
		c-0.252-0.253-0.55-0.397-0.965-0.397C30.701,107.909,30.187,108.531,30.187,109.298z"/>
</g>
<g>
	<path d="M23.83,74.815c0.063,0.063,0,1.903,0,2.714c0,0.036,0.027,0.081,0.081,0.081h0.775c0.036,0,0.081,0.063,0.081,0.145
		c0,0.072-0.045,0.378-0.144,0.378c-0.289,0-0.586,0-0.73,0c-0.045,0-0.063,0.027-0.063,0.072v1.533
		c0,0.099-0.424,0.153-0.568,0.153c-0.072,0-0.126-0.036-0.126-0.145c0-0.063,0.027-1.046,0.027-1.533
		c0-0.045-0.027-0.082-0.063-0.082s-1.668,0.009-2.02,0.027c-0.072,0.009-0.145-0.063-0.145-0.108c0-0.027,0.045-0.072,0.208-0.252
		c0.252-0.271,1.281-1.587,1.641-2.02c0.289-0.343,0.442-0.523,0.595-0.721c0.153-0.199,0.28-0.406,0.307-0.379
		C23.722,74.653,23.83,74.743,23.83,74.815z M23.171,77.521c0-0.55,0.027-1.227,0.027-1.759c0-0.036-0.054-0.054-0.108,0
		c-0.243,0.252-1.235,1.632-1.298,1.723c-0.045,0.054,0.018,0.117,0.045,0.117C22.053,77.62,23,77.611,23.1,77.611
		C23.145,77.611,23.171,77.566,23.171,77.521z"/>
	<path d="M28.899,76.718c0,1.082-0.767,1.957-1.777,1.957c-0.983,0-1.713-0.866-1.713-1.894c0-1.127,0.902-1.857,1.741-1.857
		C28.565,74.924,28.899,76.186,28.899,76.718z M25.869,76.772c0,0.442,0.162,0.757,0.397,1.019c0.252,0.279,0.676,0.433,0.947,0.433
		c0.649,0,1.217-0.631,1.217-1.38c0-0.406-0.117-0.812-0.361-1.064c-0.252-0.252-0.55-0.396-0.965-0.396
		C26.383,75.384,25.869,76.006,25.869,76.772z"/>
	<path d="M33.202,76.718c0,1.082-0.767,1.957-1.777,1.957c-0.983,0-1.713-0.866-1.713-1.894c0-1.127,0.902-1.857,1.741-1.857
		C32.868,74.924,33.202,76.186,33.202,76.718z M30.172,76.772c0,0.442,0.162,0.757,0.397,1.019c0.252,0.279,0.676,0.433,0.947,0.433
		c0.649,0,1.217-0.631,1.217-1.38c0-0.406-0.117-0.812-0.361-1.064c-0.252-0.252-0.55-0.396-0.965-0.396
		C30.686,75.384,30.172,76.006,30.172,76.772z"/>
</g>
<g>
	<path d="M24.236,41.985c0,0.361-0.189,0.64-0.415,0.839c-0.162,0.135-0.361,0.225-0.505,0.352
		c-0.027,0.018-0.018,0.063,0.009,0.081c0.406,0.325,0.965,0.839,0.965,1.497c0,0.478-0.262,0.839-0.586,1.073
		c-0.333,0.261-0.686,0.325-0.938,0.325c-0.965,0-1.397-0.659-1.397-1.236c0-0.505,0.352-0.866,0.541-1.01
		c0.108-0.09,0.406-0.307,0.487-0.361c0.009-0.009,0.009-0.045-0.009-0.063c-0.46-0.406-0.911-0.785-0.911-1.416
		c0-0.424,0.199-0.73,0.433-0.938c0.307-0.244,0.649-0.379,1.01-0.379C23.667,40.75,24.236,41.264,24.236,41.985z M23.649,45.024
		c0-0.604-0.496-1.01-0.938-1.308c-0.063-0.045-0.126-0.036-0.171-0.009c-0.28,0.207-0.532,0.694-0.532,1.127
		c0,0.262,0.108,0.532,0.252,0.712c0.171,0.199,0.406,0.334,0.622,0.334C23.37,45.881,23.649,45.511,23.649,45.024z M22.117,41.841
		c0,0.577,0.649,1.019,0.893,1.199c0.027,0.018,0.081,0.027,0.099,0.018c0.09-0.054,0.208-0.208,0.289-0.316
		c0.054-0.099,0.216-0.424,0.216-0.812c0-0.18-0.18-0.92-0.793-0.92C22.459,41.011,22.117,41.272,22.117,41.841z"/>
	<path d="M28.899,44.194c0,1.082-0.767,1.957-1.777,1.957c-0.983,0-1.713-0.866-1.713-1.894c0-1.127,0.902-1.857,1.741-1.857
		C28.565,42.4,28.899,43.662,28.899,44.194z M25.869,44.249c0,0.442,0.162,0.757,0.397,1.019c0.252,0.279,0.676,0.433,0.947,0.433
		c0.649,0,1.217-0.631,1.217-1.38c0-0.406-0.117-0.812-0.361-1.064c-0.252-0.252-0.55-0.396-0.965-0.396
		C26.383,42.86,25.869,43.482,25.869,44.249z"/>
	<path d="M33.202,44.194c0,1.082-0.767,1.957-1.777,1.957c-0.983,0-1.713-0.866-1.713-1.894c0-1.127,0.902-1.857,1.741-1.857
		C32.868,42.4,33.202,43.662,33.202,44.194z M30.172,44.249c0,0.442,0.162,0.757,0.397,1.019c0.252,0.279,0.676,0.433,0.947,0.433
		c0.649,0,1.217-0.631,1.217-1.38c0-0.406-0.117-0.812-0.361-1.064c-0.252-0.252-0.55-0.396-0.965-0.396
		C30.686,42.86,30.172,43.482,30.172,44.249z"/>
</g>
<g>
	<path d="M14.286,10.342c0.171,0,0.379,0.027,0.712,0.027c0.252,0,0.505-0.036,0.757-0.036c0.126,0,0.189,0.009,0.189,0.082
		c0,0.072-0.063,0.117-0.189,0.162c-0.261,0.09-0.378,0.108-0.388,0.532c-0.009,0.324-0.018,0.541-0.018,0.974
		c0,0.28,0,0.749,0,1.164c0,0.189-0.009,0.297,0.406,0.396c0.189,0.045,0.226,0.09,0.226,0.163c0,0.081-0.144,0.108-0.234,0.108
		c-0.271,0-0.505-0.027-0.785-0.027c-0.297,0-0.568,0.054-0.73,0.054c-0.18,0-0.252-0.036-0.252-0.108
		c0-0.045,0.063-0.108,0.198-0.144c0.406-0.099,0.442-0.208,0.478-0.613c0.018-0.208,0.054-0.947,0.054-1.371
		c0-0.217,0-0.415-0.009-0.568c-0.018-0.379-0.054-0.433-0.388-0.532c-0.171-0.045-0.243-0.09-0.243-0.189
		C14.07,10.369,14.151,10.342,14.286,10.342z"/>
	<path d="M18.661,13.714c0,0.812-0.857,1.127-1.037,1.127c-0.063,0-0.163-0.018-0.163-0.082c0-0.081,0.1-0.117,0.163-0.144
		c0.18-0.108,0.532-0.333,0.532-0.658c0-0.153-0.135-0.244-0.262-0.289c-0.099-0.036-0.343-0.117-0.343-0.379
		c0-0.297,0.252-0.415,0.424-0.415C18.318,12.876,18.661,13.182,18.661,13.714z"/>
	<path d="M22.034,13.651c-0.37,0.271-0.785,0.343-0.947,0.343c-0.992,0-1.551-0.803-1.551-1.759c0-0.73,0.352-1.659,1.037-2.381
		c0.884-0.956,1.894-1.379,2.2-1.379c0.063,0,0.153,0.045,0.153,0.108c0,0.045-0.108,0.1-0.198,0.153
		c-0.803,0.442-1.326,0.866-1.768,1.443c-0.514,0.667-0.685,1.398-0.685,2.002c0,0.298,0.027,0.532,0.198,0.839
		c0.189,0.325,0.532,0.613,0.884,0.613c0.208,0,0.352-0.072,0.496-0.198c0.198-0.189,0.307-0.532,0.307-0.821
		c0-0.631-0.334-0.983-0.812-0.983c-0.108,0-0.271,0.027-0.378,0.081c-0.063,0.036-0.108,0.063-0.135,0.063
		c-0.036,0-0.072-0.054-0.072-0.099c0-0.099,0.126-0.234,0.226-0.297c0.315-0.208,0.469-0.334,0.793-0.334
		c0.55,0,1.046,0.55,1.046,1.154C22.828,12.975,22.341,13.435,22.034,13.651z"/>
	<path d="M27.212,12.037c0,1.082-0.767,1.957-1.777,1.957c-0.983,0-1.713-0.866-1.713-1.894c0-1.127,0.902-1.857,1.741-1.857
		C26.878,10.243,27.212,11.505,27.212,12.037z M24.182,12.091c0,0.442,0.162,0.757,0.397,1.019c0.252,0.279,0.676,0.433,0.947,0.433
		c0.649,0,1.217-0.631,1.217-1.38c0-0.406-0.117-0.812-0.361-1.064c-0.252-0.252-0.55-0.396-0.965-0.396
		C24.696,10.703,24.182,11.325,24.182,12.091z"/>
	<path d="M31.515,12.037c0,1.082-0.767,1.957-1.777,1.957c-0.983,0-1.713-0.866-1.713-1.894c0-1.127,0.902-1.857,1.741-1.857
		C31.181,10.243,31.515,11.505,31.515,12.037z M28.484,12.091c0,0.442,0.162,0.757,0.397,1.019c0.252,0.279,0.676,0.433,0.947,0.433
		c0.649,0,1.217-0.631,1.217-1.38c0-0.406-0.117-0.812-0.361-1.064c-0.252-0.252-0.55-0.396-0.965-0.396
		C28.999,10.703,28.484,11.325,28.484,12.091z"/>
</g>
<g>
	<path d="M35.157,150.729c0.171,0,0.379,0.027,0.712,0.027c0.252,0,0.505-0.036,0.757-0.036c0.126,0,0.189,0.009,0.189,0.081
		s-0.063,0.117-0.189,0.162c-0.261,0.09-0.378,0.108-0.388,0.532c-0.009,0.324-0.018,0.541-0.018,0.974c0,0.279,0,0.749,0,1.163
		c0,0.189-0.009,0.298,0.406,0.397c0.189,0.045,0.226,0.09,0.226,0.162c0,0.081-0.144,0.108-0.234,0.108
		c-0.271,0-0.505-0.027-0.785-0.027c-0.297,0-0.568,0.054-0.73,0.054c-0.18,0-0.252-0.036-0.252-0.107
		c0-0.046,0.063-0.108,0.198-0.145c0.406-0.1,0.442-0.208,0.478-0.613c0.018-0.207,0.054-0.947,0.054-1.371
		c0-0.216,0-0.414-0.009-0.567c-0.018-0.379-0.054-0.434-0.388-0.532c-0.171-0.045-0.243-0.091-0.243-0.189
		C34.94,150.756,35.021,150.729,35.157,150.729z"/>
	<path d="M41.822,150.72c0.054,0,0.099,0.009,0.117,0.045c0.036,0.062,0.018,0.117-0.018,0.189
		c-0.036,0.099-0.216,0.424-0.469,0.884c-0.694,1.298-1.912,3.606-2.011,3.814c-0.045,0.135-0.126,0.198-0.171,0.198
		c-0.063,0-0.18-0.1-0.18-0.181c0-0.054,0.045-0.144,0.171-0.369c0.126-0.208,1.686-3.066,1.984-3.752
		c0.036-0.072-0.009-0.099-0.045-0.108c-0.171-0.036-1.164-0.062-2.029-0.062c-0.198,0-0.361,0.145-0.487,0.262
		c-0.054,0.054-0.117,0.09-0.189,0.09c-0.045,0-0.081-0.108-0.018-0.243c0.054-0.136,0.208-0.47,0.226-0.623
		c0.009-0.071,0.063-0.153,0.108-0.153c0.163,0,0.902,0.046,2.011,0.046C41.417,150.756,41.461,150.746,41.822,150.72z"/>
	<path d="M46.233,152.424c0,1.082-0.767,1.957-1.777,1.957c-0.983,0-1.713-0.866-1.713-1.894c0-1.128,0.902-1.858,1.741-1.858
		C45.899,150.629,46.233,151.892,46.233,152.424z M43.203,152.478c0,0.442,0.162,0.758,0.397,1.02
		c0.252,0.279,0.676,0.433,0.947,0.433c0.649,0,1.217-0.631,1.217-1.38c0-0.405-0.117-0.812-0.361-1.063
		c-0.252-0.253-0.55-0.397-0.965-0.397C43.717,151.089,43.203,151.711,43.203,152.478z"/>
	<path d="M50.536,152.424c0,1.082-0.767,1.957-1.777,1.957c-0.983,0-1.713-0.866-1.713-1.894c0-1.128,0.902-1.858,1.741-1.858
		C50.202,150.629,50.536,151.892,50.536,152.424z M47.506,152.478c0,0.442,0.162,0.758,0.397,1.02
		c0.252,0.279,0.676,0.433,0.947,0.433c0.649,0,1.217-0.631,1.217-1.38c0-0.405-0.117-0.812-0.361-1.063
		c-0.252-0.253-0.55-0.397-0.965-0.397C48.02,151.089,47.506,151.711,47.506,152.478z"/>
</g>
<g>
	<path d="M66.542,150.729c0.171,0,0.379,0.027,0.712,0.027c0.252,0,0.505-0.036,0.757-0.036c0.126,0,0.189,0.009,0.189,0.081
		s-0.063,0.117-0.189,0.162c-0.261,0.09-0.378,0.108-0.388,0.532c-0.009,0.324-0.018,0.541-0.018,0.974c0,0.279,0,0.749,0,1.163
		c0,0.189-0.009,0.298,0.406,0.397c0.189,0.045,0.226,0.09,0.226,0.162c0,0.081-0.144,0.108-0.234,0.108
		c-0.271,0-0.505-0.027-0.785-0.027c-0.297,0-0.568,0.054-0.73,0.054c-0.18,0-0.252-0.036-0.252-0.107
		c0-0.046,0.063-0.108,0.198-0.145c0.406-0.1,0.442-0.208,0.478-0.613c0.018-0.207,0.054-0.947,0.054-1.371
		c0-0.216,0-0.414-0.009-0.567c-0.018-0.379-0.054-0.434-0.388-0.532c-0.171-0.045-0.243-0.091-0.243-0.189
		C66.325,150.756,66.406,150.729,66.542,150.729z"/>
	<path d="M73.207,150.72c0.054,0,0.099,0.009,0.117,0.045c0.036,0.062,0.018,0.117-0.018,0.189
		c-0.036,0.099-0.216,0.424-0.469,0.884c-0.694,1.298-1.912,3.606-2.011,3.814c-0.045,0.135-0.126,0.198-0.171,0.198
		c-0.063,0-0.18-0.1-0.18-0.181c0-0.054,0.045-0.144,0.171-0.369c0.126-0.208,1.686-3.066,1.984-3.752
		c0.036-0.072-0.009-0.099-0.045-0.108c-0.171-0.036-1.164-0.062-2.029-0.062c-0.198,0-0.361,0.145-0.487,0.262
		c-0.054,0.054-0.117,0.09-0.189,0.09c-0.045,0-0.081-0.108-0.018-0.243c0.054-0.136,0.208-0.47,0.226-0.623
		c0.009-0.071,0.063-0.153,0.108-0.153c0.163,0,0.902,0.046,2.011,0.046C72.801,150.756,72.846,150.746,73.207,150.72z"/>
	<path d="M76.852,150.521c0.063,0.062,0,1.902,0,2.714c0,0.036,0.027,0.081,0.081,0.081h0.775c0.036,0,0.081,0.063,0.081,0.145
		c0,0.072-0.045,0.379-0.144,0.379c-0.289,0-0.586,0-0.73,0c-0.045,0-0.063,0.026-0.063,0.072v1.532c0,0.1-0.424,0.153-0.568,0.153
		c-0.072,0-0.126-0.035-0.126-0.144c0-0.063,0.027-1.046,0.027-1.533c0-0.045-0.027-0.081-0.063-0.081s-1.668,0.009-2.02,0.026
		c-0.072,0.01-0.145-0.062-0.145-0.107c0-0.027,0.045-0.072,0.208-0.253c0.252-0.271,1.281-1.587,1.641-2.02
		c0.289-0.343,0.442-0.523,0.595-0.722s0.28-0.406,0.307-0.379C76.743,150.358,76.852,150.449,76.852,150.521z M76.193,153.227
		c0-0.55,0.027-1.227,0.027-1.759c0-0.036-0.054-0.054-0.108,0c-0.243,0.253-1.235,1.633-1.298,1.723
		c-0.045,0.054,0.018,0.117,0.045,0.117c0.216,0.018,1.164,0.009,1.263,0.009C76.166,153.316,76.193,153.271,76.193,153.227z"/>
	<path d="M81.921,152.424c0,1.082-0.767,1.957-1.777,1.957c-0.983,0-1.713-0.866-1.713-1.894c0-1.128,0.902-1.858,1.741-1.858
		C81.587,150.629,81.921,151.892,81.921,152.424z M78.891,152.478c0,0.442,0.162,0.758,0.397,1.02
		c0.252,0.279,0.676,0.433,0.947,0.433c0.649,0,1.217-0.631,1.217-1.38c0-0.405-0.117-0.812-0.361-1.063
		c-0.252-0.253-0.55-0.397-0.965-0.397C79.405,151.089,78.891,151.711,78.891,152.478z"/>
</g>
<g>
	<path d="M97.913,150.729c0.171,0,0.379,0.027,0.712,0.027c0.252,0,0.505-0.036,0.757-0.036c0.126,0,0.189,0.009,0.189,0.081
		s-0.063,0.117-0.189,0.162c-0.261,0.09-0.378,0.108-0.388,0.532c-0.009,0.324-0.018,0.541-0.018,0.974c0,0.279,0,0.749,0,1.163
		c0,0.189-0.009,0.298,0.406,0.397c0.189,0.045,0.226,0.09,0.226,0.162c0,0.081-0.144,0.108-0.234,0.108
		c-0.271,0-0.505-0.027-0.785-0.027c-0.297,0-0.568,0.054-0.73,0.054c-0.18,0-0.252-0.036-0.252-0.107
		c0-0.046,0.063-0.108,0.198-0.145c0.406-0.1,0.442-0.208,0.478-0.613c0.018-0.207,0.054-0.947,0.054-1.371
		c0-0.216,0-0.414-0.009-0.567c-0.018-0.379-0.054-0.434-0.388-0.532c-0.171-0.045-0.243-0.091-0.243-0.189
		C97.696,150.756,97.777,150.729,97.913,150.729z"/>
	<path d="M104.578,150.72c0.054,0,0.099,0.009,0.117,0.045c0.036,0.062,0.018,0.117-0.018,0.189
		c-0.036,0.099-0.216,0.424-0.469,0.884c-0.694,1.298-1.912,3.606-2.011,3.814c-0.045,0.135-0.126,0.198-0.171,0.198
		c-0.063,0-0.18-0.1-0.18-0.181c0-0.054,0.045-0.144,0.171-0.369c0.126-0.208,1.686-3.066,1.984-3.752
		c0.036-0.072-0.009-0.099-0.045-0.108c-0.171-0.036-1.164-0.062-2.029-0.062c-0.198,0-0.361,0.145-0.487,0.262
		c-0.054,0.054-0.117,0.09-0.189,0.09c-0.045,0-0.081-0.108-0.018-0.243c0.054-0.136,0.208-0.47,0.226-0.623
		c0.009-0.071,0.063-0.153,0.108-0.153c0.163,0,0.902,0.046,2.011,0.046C104.172,150.756,104.217,150.746,104.578,150.72z"/>
	<path d="M108.628,150.215c0,0.36-0.189,0.64-0.415,0.838c-0.162,0.136-0.361,0.226-0.505,0.352
		c-0.027,0.019-0.018,0.063,0.009,0.082c0.406,0.324,0.965,0.838,0.965,1.496c0,0.479-0.262,0.839-0.586,1.073
		c-0.333,0.262-0.686,0.325-0.938,0.325c-0.965,0-1.397-0.658-1.397-1.235c0-0.505,0.352-0.866,0.541-1.011
		c0.108-0.09,0.406-0.307,0.487-0.36c0.009-0.009,0.009-0.045-0.009-0.063c-0.46-0.405-0.911-0.784-0.911-1.415
		c0-0.424,0.199-0.73,0.433-0.938c0.307-0.243,0.649-0.379,1.01-0.379C108.06,148.979,108.628,149.493,108.628,150.215z
		 M108.042,153.254c0-0.604-0.496-1.011-0.938-1.308c-0.063-0.046-0.126-0.036-0.171-0.01c-0.28,0.208-0.532,0.694-0.532,1.128
		c0,0.261,0.108,0.531,0.252,0.712c0.171,0.198,0.406,0.334,0.622,0.334C107.763,154.11,108.042,153.74,108.042,153.254z
		 M106.509,150.07c0,0.577,0.649,1.019,0.893,1.199c0.027,0.018,0.081,0.027,0.099,0.018c0.09-0.054,0.208-0.207,0.289-0.315
		c0.054-0.099,0.216-0.424,0.216-0.812c0-0.181-0.18-0.92-0.793-0.92C106.852,149.24,106.509,149.502,106.509,150.07z"/>
	<path d="M113.292,152.424c0,1.082-0.767,1.957-1.777,1.957c-0.983,0-1.713-0.866-1.713-1.894c0-1.128,0.902-1.858,1.741-1.858
		C112.958,150.629,113.292,151.892,113.292,152.424z M110.262,152.478c0,0.442,0.162,0.758,0.397,1.02
		c0.252,0.279,0.676,0.433,0.947,0.433c0.649,0,1.217-0.631,1.217-1.38c0-0.405-0.117-0.812-0.361-1.063
		c-0.252-0.253-0.55-0.397-0.965-0.397C110.776,151.089,110.262,151.711,110.262,152.478z"/>
</g>
<g>
	<path d="M129.27,150.729c0.171,0,0.379,0.027,0.712,0.027c0.252,0,0.505-0.036,0.757-0.036c0.126,0,0.189,0.009,0.189,0.081
		s-0.063,0.117-0.189,0.162c-0.261,0.09-0.378,0.108-0.388,0.532c-0.009,0.324-0.018,0.541-0.018,0.974c0,0.279,0,0.749,0,1.163
		c0,0.189-0.009,0.298,0.406,0.397c0.189,0.045,0.226,0.09,0.226,0.162c0,0.081-0.144,0.108-0.234,0.108
		c-0.271,0-0.505-0.027-0.785-0.027c-0.297,0-0.568,0.054-0.73,0.054c-0.18,0-0.252-0.036-0.252-0.107
		c0-0.046,0.063-0.108,0.198-0.145c0.406-0.1,0.442-0.208,0.478-0.613c0.018-0.207,0.054-0.947,0.054-1.371
		c0-0.216,0-0.414-0.009-0.567c-0.018-0.379-0.054-0.434-0.388-0.532c-0.171-0.045-0.243-0.091-0.243-0.189
		C129.054,150.756,129.135,150.729,129.27,150.729z"/>
	<path d="M135.683,150.215c0,0.36-0.189,0.64-0.415,0.838c-0.162,0.136-0.361,0.226-0.505,0.352
		c-0.027,0.019-0.018,0.063,0.009,0.082c0.406,0.324,0.965,0.838,0.965,1.496c0,0.479-0.262,0.839-0.586,1.073
		c-0.333,0.262-0.686,0.325-0.938,0.325c-0.965,0-1.397-0.658-1.397-1.235c0-0.505,0.352-0.866,0.541-1.011
		c0.108-0.09,0.406-0.307,0.487-0.36c0.009-0.009,0.009-0.045-0.009-0.063c-0.46-0.405-0.911-0.784-0.911-1.415
		c0-0.424,0.199-0.73,0.433-0.938c0.307-0.243,0.649-0.379,1.01-0.379C135.115,148.979,135.683,149.493,135.683,150.215z
		 M135.097,153.254c0-0.604-0.496-1.011-0.938-1.308c-0.063-0.046-0.126-0.036-0.171-0.01c-0.28,0.208-0.532,0.694-0.532,1.128
		c0,0.261,0.108,0.531,0.252,0.712c0.171,0.198,0.406,0.334,0.622,0.334C134.817,154.11,135.097,153.74,135.097,153.254z
		 M133.564,150.07c0,0.577,0.649,1.019,0.893,1.199c0.027,0.018,0.081,0.027,0.099,0.018c0.09-0.054,0.208-0.207,0.289-0.315
		c0.054-0.099,0.216-0.424,0.216-0.812c0-0.181-0.18-0.92-0.793-0.92C133.906,149.24,133.564,149.502,133.564,150.07z"/>
	<path d="M138.768,150.737c0.361,0.217,0.505,0.658,0.505,0.947c0,0.396-0.262,0.748-0.379,0.92
		c-0.126,0.171-0.514,0.577-0.929,1.001c-0.027,0.036-0.045,0.081,0,0.081c0.451,0,1.371,0.018,1.56,0.009
		c0.171,0,0.315-0.045,0.559-0.334c0.018-0.018,0.09-0.09,0.18-0.09c0.036,0,0.082,0.072,0.009,0.234
		c-0.063,0.136-0.208,0.514-0.244,0.667c-0.018,0.055-0.117,0.117-0.162,0.117c-0.036,0-0.712-0.018-1.632-0.018
		c-0.469,0-0.749,0.027-0.884,0.027c-0.198,0-0.252-0.055-0.252-0.091c0-0.054,0.063-0.135,0.144-0.216
		c0.099-0.072,0.226-0.208,0.442-0.434c0.586-0.586,0.947-1.108,0.947-1.668c0-0.343-0.216-0.641-0.604-0.641
		c-0.28,0-0.469,0.136-0.595,0.235c-0.09,0.062-0.153,0.126-0.171,0.126c-0.045,0-0.108-0.036-0.108-0.081
		c0-0.081,0.216-0.415,0.514-0.649c0.153-0.117,0.379-0.253,0.704-0.253C138.534,150.629,138.696,150.701,138.768,150.737z"/>
	<path d="M144.649,152.424c0,1.082-0.767,1.957-1.777,1.957c-0.983,0-1.713-0.866-1.713-1.894c0-1.128,0.902-1.858,1.741-1.858
		C144.315,150.629,144.649,151.892,144.649,152.424z M141.619,152.478c0,0.442,0.162,0.758,0.397,1.02
		c0.252,0.279,0.676,0.433,0.947,0.433c0.649,0,1.217-0.631,1.217-1.38c0-0.405-0.117-0.812-0.361-1.063
		c-0.252-0.253-0.55-0.397-0.965-0.397C142.133,151.089,141.619,151.711,141.619,152.478z"/>
</g>
<g>
	<path d="M160.651,150.729c0.171,0,0.379,0.027,0.712,0.027c0.252,0,0.505-0.036,0.757-0.036c0.126,0,0.189,0.009,0.189,0.081
		s-0.063,0.117-0.189,0.162c-0.261,0.09-0.378,0.108-0.388,0.532c-0.009,0.324-0.018,0.541-0.018,0.974c0,0.279,0,0.749,0,1.163
		c0,0.189-0.009,0.298,0.406,0.397c0.189,0.045,0.226,0.09,0.226,0.162c0,0.081-0.144,0.108-0.234,0.108
		c-0.271,0-0.505-0.027-0.785-0.027c-0.297,0-0.568,0.054-0.73,0.054c-0.18,0-0.252-0.036-0.252-0.107
		c0-0.046,0.063-0.108,0.198-0.145c0.406-0.1,0.442-0.208,0.478-0.613c0.018-0.207,0.054-0.947,0.054-1.371
		c0-0.216,0-0.414-0.009-0.567c-0.018-0.379-0.054-0.434-0.388-0.532c-0.171-0.045-0.243-0.091-0.243-0.189
		C160.435,150.756,160.516,150.729,160.651,150.729z"/>
	<path d="M167.064,150.215c0,0.36-0.189,0.64-0.415,0.838c-0.162,0.136-0.36,0.226-0.505,0.352
		c-0.027,0.019-0.018,0.063,0.009,0.082c0.406,0.324,0.965,0.838,0.965,1.496c0,0.479-0.262,0.839-0.586,1.073
		c-0.334,0.262-0.686,0.325-0.938,0.325c-0.965,0-1.398-0.658-1.398-1.235c0-0.505,0.352-0.866,0.541-1.011
		c0.108-0.09,0.406-0.307,0.487-0.36c0.009-0.009,0.009-0.045-0.009-0.063c-0.46-0.405-0.911-0.784-0.911-1.415
		c0-0.424,0.198-0.73,0.433-0.938c0.307-0.243,0.649-0.379,1.011-0.379C166.496,148.979,167.064,149.493,167.064,150.215z
		 M166.479,153.254c0-0.604-0.496-1.011-0.938-1.308c-0.062-0.046-0.126-0.036-0.171-0.01c-0.279,0.208-0.532,0.694-0.532,1.128
		c0,0.261,0.108,0.531,0.253,0.712c0.171,0.198,0.405,0.334,0.622,0.334C166.198,154.11,166.479,153.74,166.479,153.254z
		 M164.945,150.07c0,0.577,0.649,1.019,0.893,1.199c0.027,0.018,0.081,0.027,0.1,0.018c0.09-0.054,0.207-0.207,0.288-0.315
		c0.054-0.099,0.217-0.424,0.217-0.812c0-0.181-0.181-0.92-0.794-0.92C165.288,149.24,164.945,149.502,164.945,150.07z"/>
	<path d="M170.854,154.038c-0.37,0.271-0.785,0.343-0.947,0.343c-0.992,0-1.551-0.803-1.551-1.759c0-0.73,0.352-1.659,1.037-2.381
		c0.884-0.956,1.894-1.38,2.2-1.38c0.062,0,0.153,0.046,0.153,0.108c0,0.045-0.108,0.1-0.198,0.153
		c-0.803,0.442-1.326,0.866-1.768,1.443c-0.515,0.667-0.686,1.397-0.686,2.002c0,0.297,0.027,0.532,0.198,0.838
		c0.189,0.325,0.532,0.613,0.884,0.613c0.207,0,0.352-0.071,0.496-0.198c0.198-0.189,0.307-0.532,0.307-0.82
		c0-0.631-0.334-0.983-0.812-0.983c-0.108,0-0.271,0.027-0.379,0.082c-0.063,0.035-0.108,0.062-0.136,0.062
		c-0.036,0-0.072-0.054-0.072-0.099c0-0.1,0.127-0.235,0.226-0.298c0.316-0.208,0.47-0.334,0.794-0.334
		c0.55,0,1.046,0.55,1.046,1.154C171.646,153.361,171.159,153.821,170.854,154.038z"/>
	<path d="M176.03,152.424c0,1.082-0.767,1.957-1.776,1.957c-0.982,0-1.713-0.866-1.713-1.894c0-1.128,0.901-1.858,1.74-1.858
		C175.697,150.629,176.03,151.892,176.03,152.424z M173,152.478c0,0.442,0.163,0.758,0.397,1.02
		c0.252,0.279,0.676,0.433,0.946,0.433c0.649,0,1.218-0.631,1.218-1.38c0-0.405-0.117-0.812-0.36-1.063
		c-0.253-0.253-0.551-0.397-0.965-0.397C173.515,151.089,173,151.711,173,152.478z"/>
</g>
<g>
	<path d="M192.023,150.729c0.171,0,0.379,0.027,0.713,0.027c0.252,0,0.505-0.036,0.757-0.036c0.127,0,0.189,0.009,0.189,0.081
		s-0.062,0.117-0.189,0.162c-0.262,0.09-0.379,0.108-0.388,0.532c-0.009,0.324-0.018,0.541-0.018,0.974c0,0.279,0,0.749,0,1.163
		c0,0.189-0.01,0.298,0.405,0.397c0.189,0.045,0.226,0.09,0.226,0.162c0,0.081-0.145,0.108-0.234,0.108
		c-0.271,0-0.505-0.027-0.784-0.027c-0.298,0-0.568,0.054-0.73,0.054c-0.181,0-0.253-0.036-0.253-0.107
		c0-0.046,0.063-0.108,0.198-0.145c0.406-0.1,0.442-0.208,0.479-0.613c0.018-0.207,0.054-0.947,0.054-1.371
		c0-0.216,0-0.414-0.009-0.567c-0.019-0.379-0.055-0.434-0.388-0.532c-0.172-0.045-0.244-0.091-0.244-0.189
		C191.807,150.756,191.889,150.729,192.023,150.729z"/>
	<path d="M198.607,152.288c0,0.74-0.343,1.759-1.227,2.562c-0.631,0.586-1.506,1.028-1.839,1.028c-0.136,0-0.172-0.055-0.172-0.091
		c0-0.054,0.019-0.062,0.153-0.135c0.487-0.243,1.127-0.622,1.695-1.407c0.613-0.839,0.658-1.641,0.658-2.002
		c0-0.649-0.36-1.289-1.01-1.289c-0.424,0-0.748,0.405-0.748,1.027c0,0.613,0.414,0.956,0.757,0.956
		c0.181,0,0.334-0.026,0.415-0.072c0.072-0.035,0.108-0.045,0.108,0.027c0,0.117-0.027,0.189-0.243,0.361
		c-0.208,0.162-0.487,0.225-0.686,0.225c-0.515,0-1.037-0.486-1.037-1.199c0-0.522,0.271-0.946,0.667-1.263
		c0.343-0.261,0.749-0.388,1.082-0.388C198.166,150.629,198.607,151.585,198.607,152.288z"/>
	<path d="M203.1,152.424c0,1.082-0.767,1.957-1.776,1.957c-0.982,0-1.713-0.866-1.713-1.894c0-1.128,0.901-1.858,1.74-1.858
		C202.767,150.629,203.1,151.892,203.1,152.424z M200.07,152.478c0,0.442,0.162,0.758,0.396,1.02
		c0.252,0.279,0.676,0.433,0.946,0.433c0.649,0,1.218-0.631,1.218-1.38c0-0.405-0.117-0.812-0.36-1.063
		c-0.253-0.253-0.551-0.397-0.965-0.397C200.584,151.089,200.07,151.711,200.07,152.478z"/>
	<path d="M207.402,152.424c0,1.082-0.767,1.957-1.776,1.957c-0.982,0-1.713-0.866-1.713-1.894c0-1.128,0.901-1.858,1.74-1.858
		C207.069,150.629,207.402,151.892,207.402,152.424z M204.373,152.478c0,0.442,0.162,0.758,0.396,1.02
		c0.252,0.279,0.676,0.433,0.946,0.433c0.649,0,1.218-0.631,1.218-1.38c0-0.405-0.117-0.812-0.36-1.063
		c-0.253-0.253-0.551-0.397-0.965-0.397C204.887,151.089,204.373,151.711,204.373,152.478z"/>
</g>
<g>
	<path d="M223.393,150.729c0.171,0,0.379,0.027,0.713,0.027c0.252,0,0.505-0.036,0.757-0.036c0.127,0,0.189,0.009,0.189,0.081
		s-0.062,0.117-0.189,0.162c-0.262,0.09-0.379,0.108-0.388,0.532c-0.009,0.324-0.018,0.541-0.018,0.974c0,0.279,0,0.749,0,1.163
		c0,0.189-0.01,0.298,0.405,0.397c0.189,0.045,0.226,0.09,0.226,0.162c0,0.081-0.145,0.108-0.234,0.108
		c-0.271,0-0.505-0.027-0.784-0.027c-0.298,0-0.568,0.054-0.73,0.054c-0.181,0-0.253-0.036-0.253-0.107
		c0-0.046,0.063-0.108,0.198-0.145c0.406-0.1,0.442-0.208,0.479-0.613c0.018-0.207,0.054-0.947,0.054-1.371
		c0-0.216,0-0.414-0.009-0.567c-0.019-0.379-0.055-0.434-0.388-0.532c-0.172-0.045-0.244-0.091-0.244-0.189
		C223.176,150.756,223.258,150.729,223.393,150.729z"/>
	<path d="M229.977,152.288c0,0.74-0.343,1.759-1.227,2.562c-0.631,0.586-1.506,1.028-1.839,1.028c-0.136,0-0.172-0.055-0.172-0.091
		c0-0.054,0.019-0.062,0.153-0.135c0.487-0.243,1.127-0.622,1.695-1.407c0.613-0.839,0.658-1.641,0.658-2.002
		c0-0.649-0.36-1.289-1.01-1.289c-0.424,0-0.748,0.405-0.748,1.027c0,0.613,0.414,0.956,0.757,0.956
		c0.181,0,0.334-0.026,0.415-0.072c0.072-0.035,0.108-0.045,0.108,0.027c0,0.117-0.027,0.189-0.243,0.361
		c-0.208,0.162-0.487,0.225-0.686,0.225c-0.515,0-1.037-0.486-1.037-1.199c0-0.522,0.271-0.946,0.667-1.263
		c0.343-0.261,0.749-0.388,1.082-0.388C229.535,150.629,229.977,151.585,229.977,152.288z"/>
	<path d="M233.702,150.521c0.063,0.062,0,1.902,0,2.714c0,0.036,0.027,0.081,0.081,0.081h0.776c0.036,0,0.081,0.063,0.081,0.145
		c0,0.072-0.045,0.379-0.145,0.379c-0.289,0-0.586,0-0.73,0c-0.045,0-0.063,0.026-0.063,0.072v1.532c0,0.1-0.424,0.153-0.567,0.153
		c-0.072,0-0.127-0.035-0.127-0.144c0-0.063,0.027-1.046,0.027-1.533c0-0.045-0.027-0.081-0.063-0.081s-1.668,0.009-2.02,0.026
		c-0.072,0.01-0.145-0.062-0.145-0.107c0-0.027,0.045-0.072,0.207-0.253c0.253-0.271,1.281-1.587,1.642-2.02
		c0.289-0.343,0.442-0.523,0.596-0.722s0.279-0.406,0.307-0.379C233.595,150.358,233.702,150.449,233.702,150.521z M233.044,153.227
		c0-0.55,0.027-1.227,0.027-1.759c0-0.036-0.054-0.054-0.108,0c-0.243,0.253-1.235,1.633-1.299,1.723
		c-0.045,0.054,0.019,0.117,0.046,0.117c0.216,0.018,1.163,0.009,1.262,0.009C233.018,153.316,233.044,153.271,233.044,153.227z"/>
	<path d="M238.771,152.424c0,1.082-0.767,1.957-1.776,1.957c-0.982,0-1.713-0.866-1.713-1.894c0-1.128,0.901-1.858,1.74-1.858
		C238.438,150.629,238.771,151.892,238.771,152.424z M235.742,152.478c0,0.442,0.162,0.758,0.396,1.02
		c0.252,0.279,0.676,0.433,0.946,0.433c0.649,0,1.218-0.631,1.218-1.38c0-0.405-0.117-0.812-0.36-1.063
		c-0.253-0.253-0.551-0.397-0.965-0.397C236.256,151.089,235.742,151.711,235.742,152.478z"/>
</g>
<g>
	<path d="M254.756,150.729c0.171,0,0.379,0.027,0.713,0.027c0.252,0,0.505-0.036,0.757-0.036c0.127,0,0.189,0.009,0.189,0.081
		s-0.062,0.117-0.189,0.162c-0.262,0.09-0.379,0.108-0.388,0.532c-0.009,0.324-0.018,0.541-0.018,0.974c0,0.279,0,0.749,0,1.163
		c0,0.189-0.01,0.298,0.405,0.397c0.189,0.045,0.226,0.09,0.226,0.162c0,0.081-0.145,0.108-0.234,0.108
		c-0.271,0-0.505-0.027-0.784-0.027c-0.298,0-0.568,0.054-0.73,0.054c-0.181,0-0.253-0.036-0.253-0.107
		c0-0.046,0.063-0.108,0.198-0.145c0.406-0.1,0.442-0.208,0.479-0.613c0.018-0.207,0.054-0.947,0.054-1.371
		c0-0.216,0-0.414-0.009-0.567c-0.019-0.379-0.055-0.434-0.388-0.532c-0.172-0.045-0.244-0.091-0.244-0.189
		C254.539,150.756,254.621,150.729,254.756,150.729z"/>
	<path d="M261.34,152.288c0,0.74-0.343,1.759-1.227,2.562c-0.631,0.586-1.506,1.028-1.839,1.028c-0.136,0-0.172-0.055-0.172-0.091
		c0-0.054,0.019-0.062,0.153-0.135c0.487-0.243,1.127-0.622,1.695-1.407c0.613-0.839,0.658-1.641,0.658-2.002
		c0-0.649-0.36-1.289-1.01-1.289c-0.424,0-0.748,0.405-0.748,1.027c0,0.613,0.414,0.956,0.757,0.956
		c0.181,0,0.334-0.026,0.415-0.072c0.072-0.035,0.108-0.045,0.108,0.027c0,0.117-0.027,0.189-0.243,0.361
		c-0.208,0.162-0.487,0.225-0.686,0.225c-0.515,0-1.037-0.486-1.037-1.199c0-0.522,0.271-0.946,0.667-1.263
		c0.343-0.261,0.749-0.388,1.082-0.388C260.898,150.629,261.34,151.585,261.34,152.288z"/>
	<path d="M265.472,150.215c0,0.36-0.189,0.64-0.415,0.838c-0.162,0.136-0.36,0.226-0.505,0.352
		c-0.027,0.019-0.019,0.063,0.009,0.082c0.406,0.324,0.965,0.838,0.965,1.496c0,0.479-0.262,0.839-0.586,1.073
		c-0.334,0.262-0.686,0.325-0.938,0.325c-0.965,0-1.398-0.658-1.398-1.235c0-0.505,0.352-0.866,0.541-1.011
		c0.108-0.09,0.406-0.307,0.487-0.36c0.009-0.009,0.009-0.045-0.009-0.063c-0.46-0.405-0.911-0.784-0.911-1.415
		c0-0.424,0.198-0.73,0.433-0.938c0.307-0.243,0.649-0.379,1.011-0.379C264.903,148.979,265.472,149.493,265.472,150.215z
		 M264.886,153.254c0-0.604-0.496-1.011-0.938-1.308c-0.062-0.046-0.126-0.036-0.171-0.01c-0.279,0.208-0.532,0.694-0.532,1.128
		c0,0.261,0.108,0.531,0.253,0.712c0.171,0.198,0.405,0.334,0.622,0.334C264.605,154.11,264.886,153.74,264.886,153.254z
		 M263.353,150.07c0,0.577,0.649,1.019,0.893,1.199c0.027,0.018,0.081,0.027,0.1,0.018c0.09-0.054,0.207-0.207,0.288-0.315
		c0.054-0.099,0.217-0.424,0.217-0.812c0-0.181-0.181-0.92-0.794-0.92C263.695,149.24,263.353,149.502,263.353,150.07z"/>
	<path d="M270.135,152.424c0,1.082-0.767,1.957-1.776,1.957c-0.982,0-1.713-0.866-1.713-1.894c0-1.128,0.901-1.858,1.74-1.858
		C269.802,150.629,270.135,151.892,270.135,152.424z M267.105,152.478c0,0.442,0.162,0.758,0.396,1.02
		c0.252,0.279,0.676,0.433,0.946,0.433c0.649,0,1.218-0.631,1.218-1.38c0-0.405-0.117-0.812-0.36-1.063
		c-0.253-0.253-0.551-0.397-0.965-0.397C267.619,151.089,267.105,151.711,267.105,152.478z"/>
</g>
<g>
	<path d="M287.025,150.737c0.361,0.217,0.505,0.658,0.505,0.947c0,0.396-0.261,0.748-0.378,0.92
		c-0.127,0.171-0.515,0.577-0.93,1.001c-0.026,0.036-0.045,0.081,0,0.081c0.451,0,1.371,0.018,1.561,0.009
		c0.171,0,0.315-0.045,0.559-0.334c0.019-0.018,0.091-0.09,0.181-0.09c0.036,0,0.081,0.072,0.009,0.234
		c-0.062,0.136-0.207,0.514-0.243,0.667c-0.018,0.055-0.117,0.117-0.162,0.117c-0.036,0-0.713-0.018-1.633-0.018
		c-0.469,0-0.748,0.027-0.884,0.027c-0.198,0-0.252-0.055-0.252-0.091c0-0.054,0.063-0.135,0.145-0.216
		c0.099-0.072,0.225-0.208,0.441-0.434c0.586-0.586,0.947-1.108,0.947-1.668c0-0.343-0.217-0.641-0.604-0.641
		c-0.279,0-0.469,0.136-0.595,0.235c-0.091,0.062-0.153,0.126-0.172,0.126c-0.045,0-0.108-0.036-0.108-0.081
		c0-0.081,0.217-0.415,0.515-0.649c0.153-0.117,0.378-0.253,0.703-0.253C286.791,150.629,286.953,150.701,287.025,150.737z"/>
	<path d="M292.906,152.424c0,1.082-0.767,1.957-1.776,1.957c-0.982,0-1.713-0.866-1.713-1.894c0-1.128,0.901-1.858,1.74-1.858
		C292.573,150.629,292.906,151.892,292.906,152.424z M289.877,152.478c0,0.442,0.162,0.758,0.396,1.02
		c0.252,0.279,0.676,0.433,0.946,0.433c0.649,0,1.218-0.631,1.218-1.38c0-0.405-0.117-0.812-0.36-1.063
		c-0.253-0.253-0.551-0.397-0.965-0.397C290.391,151.089,289.877,151.711,289.877,152.478z"/>
	<path d="M295.631,150.737c0.361,0.217,0.505,0.658,0.505,0.947c0,0.396-0.261,0.748-0.378,0.92
		c-0.127,0.171-0.515,0.577-0.93,1.001c-0.026,0.036-0.045,0.081,0,0.081c0.451,0,1.371,0.018,1.561,0.009
		c0.171,0,0.315-0.045,0.559-0.334c0.019-0.018,0.091-0.09,0.181-0.09c0.036,0,0.081,0.072,0.009,0.234
		c-0.062,0.136-0.207,0.514-0.243,0.667c-0.018,0.055-0.117,0.117-0.162,0.117c-0.036,0-0.713-0.018-1.633-0.018
		c-0.469,0-0.748,0.027-0.884,0.027c-0.198,0-0.252-0.055-0.252-0.091c0-0.054,0.063-0.135,0.145-0.216
		c0.099-0.072,0.225-0.208,0.441-0.434c0.586-0.586,0.947-1.108,0.947-1.668c0-0.343-0.217-0.641-0.604-0.641
		c-0.279,0-0.469,0.136-0.595,0.235c-0.091,0.062-0.153,0.126-0.172,0.126c-0.045,0-0.108-0.036-0.108-0.081
		c0-0.081,0.217-0.415,0.515-0.649c0.153-0.117,0.378-0.253,0.703-0.253C295.396,150.629,295.559,150.701,295.631,150.737z"/>
	<path d="M301.512,152.424c0,1.082-0.767,1.957-1.776,1.957c-0.982,0-1.713-0.866-1.713-1.894c0-1.128,0.901-1.858,1.74-1.858
		C301.179,150.629,301.512,151.892,301.512,152.424z M298.482,152.478c0,0.442,0.162,0.758,0.396,1.02
		c0.252,0.279,0.676,0.433,0.946,0.433c0.649,0,1.218-0.631,1.218-1.38c0-0.405-0.117-0.812-0.36-1.063
		c-0.253-0.253-0.551-0.397-0.965-0.397C298.996,151.089,298.482,151.711,298.482,152.478z"/>
</g>
<g>
	<path d="M308.142,150.737c0.361,0.217,0.505,0.658,0.505,0.947c0,0.396-0.261,0.748-0.378,0.92
		c-0.127,0.171-0.515,0.577-0.93,1.001c-0.026,0.036-0.045,0.081,0,0.081c0.451,0,1.371,0.018,1.561,0.009
		c0.171,0,0.315-0.045,0.559-0.334c0.019-0.018,0.091-0.09,0.181-0.09c0.036,0,0.081,0.072,0.009,0.234
		c-0.062,0.136-0.207,0.514-0.243,0.667c-0.018,0.055-0.117,0.117-0.162,0.117c-0.036,0-0.713-0.018-1.633-0.018
		c-0.469,0-0.748,0.027-0.884,0.027c-0.198,0-0.252-0.055-0.252-0.091c0-0.054,0.063-0.135,0.145-0.216
		c0.099-0.072,0.225-0.208,0.441-0.434c0.586-0.586,0.947-1.108,0.947-1.668c0-0.343-0.217-0.641-0.604-0.641
		c-0.279,0-0.469,0.136-0.595,0.235c-0.091,0.062-0.153,0.126-0.172,0.126c-0.045,0-0.108-0.036-0.108-0.081
		c0-0.081,0.217-0.415,0.515-0.649c0.153-0.117,0.378-0.253,0.703-0.253C307.907,150.629,308.069,150.701,308.142,150.737z"/>
	<path d="M314.022,152.424c0,1.082-0.767,1.957-1.776,1.957c-0.982,0-1.713-0.866-1.713-1.894c0-1.128,0.901-1.858,1.74-1.858
		C313.689,150.629,314.022,151.892,314.022,152.424z M310.992,152.478c0,0.442,0.163,0.758,0.397,1.02
		c0.252,0.279,0.676,0.433,0.946,0.433c0.649,0,1.218-0.631,1.218-1.38c0-0.405-0.117-0.812-0.36-1.063
		c-0.253-0.253-0.551-0.397-0.965-0.397C311.507,151.089,310.992,151.711,310.992,152.478z"/>
	<path d="M315.782,151.125c0.009-0.036,0.126-0.153,0.172-0.171c0.243-0.145,1.145-0.343,1.379-0.343
		c0.036,0,0.072,0.054,0.072,0.062c-0.018,0.217-0.162,0.668-0.441,0.713c-0.181,0.036-0.83,0.072-1.037,0.09
		c-0.045,0-0.153,0.226-0.153,0.307c0,0.045,0.036,0.153,0.153,0.217c0.451,0.243,0.992,0.577,1.299,0.865
		c0.333,0.316,0.496,0.73,0.496,1.128c0,0.658-0.442,1.217-1.011,1.56c-0.226,0.127-0.686,0.271-0.946,0.271
		c-0.189,0-0.271-0.036-0.271-0.108c0.009-0.054,0.081-0.099,0.189-0.126c0.307-0.081,0.631-0.198,0.838-0.343
		c0.316-0.216,0.541-0.613,0.541-0.974c0-0.677-0.55-1.046-1.127-1.425c-0.469-0.315-0.496-0.496-0.496-0.56
		C315.439,152.126,315.638,151.342,315.782,151.125z"/>
	<path d="M322.628,152.424c0,1.082-0.767,1.957-1.776,1.957c-0.982,0-1.713-0.866-1.713-1.894c0-1.128,0.901-1.858,1.74-1.858
		C322.295,150.629,322.628,151.892,322.628,152.424z M319.598,152.478c0,0.442,0.163,0.758,0.397,1.02
		c0.252,0.279,0.676,0.433,0.946,0.433c0.649,0,1.218-0.631,1.218-1.38c0-0.405-0.117-0.812-0.36-1.063
		c-0.253-0.253-0.551-0.397-0.965-0.397C320.112,151.089,319.598,151.711,319.598,152.478z"/>
</g>
<g>
	<path d="M0.823,118.396c0,0.1,0.036,0.189,0.082,0.262c0.027,0.036,0.135,0.081,0.352,0.091c0.189,0.009,1.308,0.009,2.345,0.018
		c0.82,0,1.569-0.018,1.794-0.018c0.586-0.01,0.658-0.082,0.793-0.541c0.045-0.172,0.09-0.244,0.171-0.244s0.108,0.162,0.108,0.298
		c0,0.226-0.036,0.55-0.036,0.947c0,0.261,0.036,0.631,0.036,0.91c0,0.153-0.045,0.253-0.126,0.253
		c-0.063,0-0.117-0.091-0.144-0.181c-0.108-0.505-0.289-0.604-0.658-0.631c-0.442-0.027-1.182-0.045-1.632-0.045
		c-0.298,0-2.209,0.018-2.498,0.026c-0.325,0.009-0.451,0-0.523,0.505c-0.027,0.181-0.081,0.28-0.135,0.28
		c-0.072,0-0.117-0.091-0.126-0.208c-0.009-0.062,0-0.216,0-0.298c0-0.36-0.072-1.055-0.072-1.506c0-0.82,0.217-1.353,0.532-1.686
		c0.415-0.434,0.929-0.523,1.227-0.523c0.803,0,1.172,0.37,1.397,0.631c0.199,0.234,0.397,0.649,0.397,1.037
		c0,0.1-0.009,0.334-0.063,0.479c-0.045,0.108-0.09,0.153-0.145,0.153c-0.036,0-0.081-0.036-0.081-0.108c0-0.081,0-0.181,0-0.226
		c0-0.478-0.424-1.146-1.461-1.146C1.536,116.926,0.823,117.548,0.823,118.396z"/>
	<path d="M4.629,111.713c0.749,0,1.335,0.45,1.551,0.784c0.261,0.36,0.361,0.712,0.361,1.118c0,0.415-0.189,0.865-0.469,1.199
		c-0.315,0.388-0.929,0.668-1.379,0.668c-0.686,0-1.119-0.289-1.407-0.632c-0.243-0.279-0.496-0.73-0.496-1.335
		C2.79,112.623,3.493,111.713,4.629,111.713z M3.321,114.273c0.217,0.234,0.686,0.442,1.154,0.442c0.298,0,0.577-0.036,0.803-0.108
		c0.676-0.226,1.001-0.739,1.001-1.173c0-0.099-0.045-0.297-0.297-0.55c-0.244-0.226-0.803-0.406-1.19-0.406
		c-0.469,0-0.983,0.108-1.38,0.451c-0.216,0.198-0.352,0.523-0.352,0.758C3.06,113.877,3.159,114.084,3.321,114.273z"/>
	<path d="M3.312,107.662c0.243-0.216,0.685-0.424,1.181-0.424c0.451,0,1.118,0.189,1.551,0.767c0.388,0.496,0.46,1.028,0.46,1.434
		c0,0.208-0.018,0.389-0.036,0.506c0,0.026,0.072,0.062,0.117,0.062c0.875,0,1.245-0.009,1.497-0.036
		c0.234-0.026,0.352-0.09,0.46-0.433c0.054-0.181,0.09-0.253,0.153-0.253c0.072,0,0.117,0.117,0.117,0.235
		c0,0.198-0.045,0.721-0.045,1.072c0,0.217,0.027,0.307,0.027,0.577c0,0.136-0.027,0.271-0.117,0.271
		c-0.036,0-0.108-0.062-0.135-0.207c-0.099-0.478-0.181-0.523-0.821-0.559c-0.297-0.019-1.046-0.027-1.966-0.027
		c-0.613,0-1.29-0.009-1.822,0c-0.379,0-0.442,0.045-0.46,0.072c-0.162,0.226-0.243,0.333-0.289,0.333
		c-0.045,0-0.153-0.09-0.162-0.126c-0.036-0.135-0.226-0.532-0.316-0.686c-0.045-0.09-0.081-0.162-0.081-0.18
		c0-0.027,0.072-0.1,0.108-0.1c0.144,0.019,0.315,0.019,0.46,0.027c0.036,0,0.072-0.036,0.045-0.072
		c-0.144-0.217-0.271-0.46-0.325-0.586c-0.063-0.145-0.108-0.415-0.108-0.668C2.808,108.339,3.015,107.933,3.312,107.662z
		 M3.43,109.862c0.036,0.046,0.108,0.091,0.271,0.118c0.271,0.045,1.253,0.054,1.623,0.018c0.163-0.018,0.316-0.054,0.397-0.117
		c0.343-0.243,0.496-0.677,0.496-0.902c0-0.099-0.045-0.288-0.153-0.414c-0.379-0.451-1.055-0.613-1.326-0.613
		c-0.208,0-0.694,0-1.1,0.369c-0.244,0.234-0.37,0.604-0.37,0.812C3.267,109.511,3.349,109.764,3.43,109.862z"/>
	<path d="M5.774,104.045c-0.045-0.055-0.181-0.136-0.216-0.136l-2.074-0.018c-0.054,0-0.181,0.099-0.199,0.153
		c-0.036,0.135-0.09,0.333-0.108,0.414c-0.018,0.063-0.072,0.181-0.145,0.181c-0.036,0-0.081-0.117-0.081-0.207
		c0-0.361-0.045-0.758-0.099-0.965c-0.027-0.091-0.036-0.153-0.036-0.217c0-0.045,0.099-0.063,0.135-0.063
		c0.252,0.019,2.254,0.091,2.994,0.091c0.018,0,0.126-0.036,0.126-0.108c0-0.063-0.045-0.343-0.045-0.451
		c0-0.036,0.144-0.1,0.171-0.108c0.027,0,0.09,0.063,0.09,0.1c0.018,0.234,0.118,0.613,0.171,0.82
		c0.045,0.153,0.082,0.298,0.082,0.315c0,0.036-0.063,0.091-0.126,0.091c-0.054,0-0.226-0.027-0.379-0.036
		c-0.045,0-0.072,0.026-0.063,0.045c0.18,0.262,0.415,0.622,0.46,0.739c0.063,0.153,0.108,0.352,0.108,0.604
		c0,0.324-0.145,0.613-0.424,0.793c-0.1,0.063-0.28,0.127-0.424,0.127c-0.649,0-1.668,0-2.146,0.018
		c-0.252,0.009-0.289,0.181-0.352,0.334c-0.036,0.081-0.081,0.162-0.163,0.162c-0.027,0-0.081-0.045-0.081-0.153
		c0-0.252-0.099-0.92-0.099-0.956s0.081-0.072,0.135-0.072c0.307-0.009,2.011,0.027,2.417,0.027c0.207,0,0.415-0.099,0.505-0.226
		c0.18-0.234,0.18-0.396,0.18-0.613C6.09,104.514,5.973,104.27,5.774,104.045z"/>
	<path d="M0.354,101.96c-0.144-0.415-0.198-0.686-0.352-0.929c-0.018-0.027,0.054-0.081,0.09-0.081
		c0.226,0.027,1.245,0.081,2.453,0.081c1.316,0,3.039,0.018,3.283-0.027c0.18-0.036,0.289-0.072,0.396-0.46
		c0.036-0.135,0.081-0.207,0.135-0.207c0.063,0,0.099,0.126,0.099,0.234c0,0.217-0.027,0.604-0.027,0.767
		c0,0.207,0.027,0.604,0.027,0.794c0,0.18-0.027,0.252-0.099,0.252c-0.063,0-0.108-0.099-0.126-0.198
		c-0.09-0.415-0.252-0.433-0.704-0.469c-0.37-0.027-1.316-0.055-2.741-0.055c-0.667,0-1.642,0-1.885,0.027
		c-0.072,0.009-0.126,0.009-0.252,0.217c-0.108,0.153-0.136,0.18-0.171,0.18C0.445,102.086,0.381,102.06,0.354,101.96z"/>
	<path d="M3.213,97.567c0.189-0.135,0.37-0.181,0.749-0.181c0.352,0,1.488,0.036,1.587,0.036c0.415,0,0.451-0.288,0.451-0.36
		c0-0.036-0.063-0.243-0.136-0.343c-0.018-0.027,0-0.036,0.027-0.054c0.027-0.027,0.081-0.027,0.09-0.027
		c0.171,0,0.559,0.406,0.559,0.812c0,0.208-0.117,0.469-0.451,0.577c-0.009,0-0.045,0.036-0.036,0.055
		c0.234,0.333,0.388,0.721,0.415,0.812c0.036,0.099,0.054,0.315,0.054,0.36c0,0.315-0.388,0.622-0.839,0.622
		c-0.162,0-0.333-0.072-0.46-0.171c-0.117-0.091-0.162-0.226-0.226-0.361c-0.054-0.135-0.252-0.856-0.315-1.055
		c-0.063-0.207-0.108-0.262-0.162-0.262c-0.082-0.009-0.631-0.018-0.74-0.018c-0.226,0-0.604,0.261-0.604,0.703
		c0,0.189,0.054,0.307,0.099,0.37c0.027,0.054,0.189,0.081,0.37,0.062c0.027,0,0.081,0.036,0.099,0.055
		c0.072,0.09,0.298,0.541,0.298,0.586c0,0.054-0.072,0.108-0.117,0.108c-0.262,0-0.514-0.253-0.794-0.677
		c-0.189-0.262-0.342-0.667-0.342-0.839C2.79,97.929,3.015,97.703,3.213,97.567z M5.9,98.163c-0.036-0.055-0.207-0.108-0.225-0.108
		c-0.217-0.019-0.523-0.019-0.704-0.019c-0.027,0-0.072,0.036-0.072,0.072c0,0.253,0.153,0.686,0.271,0.929
		c0.063,0.091,0.126,0.181,0.343,0.181c0.397,0,0.541-0.379,0.541-0.568C6.054,98.515,5.991,98.334,5.9,98.163z"/>
	<path d="M2.879,94.086c0-0.01,0.045-0.1,0.072-0.1c-0.027,0,0.226-0.027,0.343-0.027c0.081,0,0.099,0.172,0.099,0.235
		c0,0.035,0,0.884,0,0.982c0,0.045,0.045,0.081,0.063,0.081c0.181,0.009,1.506,0.019,1.939,0.019c0.226,0,0.343-0.055,0.442-0.153
		c0.153-0.172,0.171-0.361,0.171-0.551c0-0.117-0.054-0.307-0.135-0.441c-0.045-0.081-0.054-0.1-0.054-0.136
		c0-0.009,0.018-0.054,0.099-0.054c0.072,0,0.163,0.063,0.226,0.126c0.234,0.244,0.397,0.56,0.397,0.965
		c0,0.37-0.226,0.686-0.424,0.794c-0.153,0.1-0.343,0.117-0.595,0.117c-0.334,0-1.687-0.036-2.002-0.036
		c-0.063,0-0.126,0.162-0.181,0.343c-0.027,0.072-0.072,0.126-0.099,0.126c-0.036,0-0.072-0.026-0.099-0.054
		c-0.252-0.315-0.469-0.596-0.622-0.722C2.393,95.492,2.32,95.43,2.32,95.394c0-0.045,0.081-0.127,0.099-0.127
		c0.036,0,0.163,0,0.424,0c0.027,0,0.072-0.036,0.072-0.071C2.916,94.996,2.879,94.122,2.879,94.086z"/>
	<path d="M1.4,92.146c0.244,0,0.442,0.252,0.442,0.433c0,0.063-0.036,0.207-0.108,0.289c-0.081,0.071-0.181,0.135-0.334,0.135
		c-0.081,0-0.225-0.036-0.324-0.108c-0.082-0.09-0.118-0.226-0.118-0.352C0.958,92.3,1.238,92.146,1.4,92.146z M6.469,93.292
		c0,0.144-0.036,0.234-0.099,0.234c-0.054,0-0.099-0.063-0.145-0.217c-0.054-0.207-0.162-0.343-0.252-0.36
		c-0.126-0.027-0.667-0.036-0.929-0.036c-0.271,0-1.299-0.009-1.407,0.009c-0.063,0.009-0.135,0.108-0.325,0.37
		c-0.036,0.054-0.063,0.071-0.099,0.071c-0.063,0-0.135-0.081-0.153-0.18c-0.072-0.334-0.271-0.758-0.307-0.893
		c0-0.036,0.09-0.082,0.099-0.082c0.099,0,1.271,0.055,1.786,0.055c0.505,0,0.884-0.009,1.199-0.019
		c0.289-0.009,0.307-0.207,0.379-0.433c0.045-0.144,0.09-0.198,0.153-0.198c0.054,0,0.09,0.108,0.09,0.207
		c0,0.063-0.027,0.515-0.027,0.704C6.433,92.822,6.469,93.139,6.469,93.292z"/>
	<path d="M4.629,87.429c0.749,0,1.335,0.451,1.551,0.785c0.261,0.361,0.361,0.712,0.361,1.118c0,0.415-0.189,0.866-0.469,1.199
		c-0.315,0.388-0.929,0.667-1.379,0.667c-0.686,0-1.119-0.289-1.407-0.631c-0.243-0.279-0.496-0.73-0.496-1.334
		C2.79,88.34,3.493,87.429,4.629,87.429z M3.321,89.99c0.217,0.234,0.686,0.442,1.154,0.442c0.298,0,0.577-0.036,0.803-0.108
		c0.676-0.226,1.001-0.74,1.001-1.172c0-0.1-0.045-0.298-0.297-0.55c-0.244-0.226-0.803-0.406-1.19-0.406
		c-0.469,0-0.983,0.108-1.38,0.451C3.195,88.845,3.06,89.17,3.06,89.404C3.06,89.594,3.159,89.801,3.321,89.99z"/>
	<path d="M3.042,86.499c-0.054-0.153-0.171-0.478-0.262-0.604c-0.054-0.09-0.099-0.171-0.099-0.216s0.099-0.09,0.135-0.09
		c0.153,0,0.37,0.036,0.451,0.036c0.045,0,0.027-0.045,0.027-0.054c-0.244-0.36-0.496-0.83-0.496-1.208
		c0-0.442,0.198-0.694,0.343-0.821c0.234-0.198,0.649-0.315,1.1-0.315c0.171,0,1.515-0.018,1.641-0.027
		c0.135-0.018,0.253-0.108,0.316-0.333c0.045-0.171,0.09-0.226,0.153-0.226c0.063,0,0.099,0.126,0.099,0.271
		c0,0.208-0.018,0.415-0.018,0.667c0,0.226,0.018,0.505,0.018,0.622c0,0.081-0.036,0.208-0.108,0.208
		c-0.063,0-0.117-0.099-0.153-0.208c-0.081-0.216-0.153-0.261-0.451-0.279c-0.298-0.018-1.389-0.027-1.65-0.027
		c-0.325,0-0.586,0.163-0.667,0.271c-0.072,0.099-0.171,0.37-0.171,0.577c0,0.397,0.135,0.631,0.289,0.803
		c0.027,0.027,0.135,0.09,0.216,0.09c0.117,0,2.056,0,2.164-0.009c0.126-0.009,0.199-0.045,0.28-0.333
		c0.027-0.09,0.081-0.163,0.135-0.163c0.063,0,0.108,0.1,0.108,0.226c0,0.108-0.009,0.361-0.009,0.55
		c0,0.333,0.027,0.595,0.027,0.749c0,0.135-0.036,0.234-0.117,0.234c-0.063,0-0.108-0.09-0.135-0.189
		c-0.09-0.297-0.18-0.352-0.505-0.379c-0.271-0.027-1.055-0.045-1.975-0.045c-0.099,0-0.189,0.018-0.352,0.216
		c-0.081,0.117-0.126,0.171-0.153,0.171C3.159,86.661,3.069,86.562,3.042,86.499z"/>
	<path d="M1.4,79.021c0.244,0,0.442,0.252,0.442,0.433c0,0.063-0.036,0.208-0.108,0.289c-0.081,0.072-0.181,0.135-0.334,0.135
		c-0.081,0-0.225-0.036-0.324-0.108c-0.082-0.09-0.118-0.226-0.118-0.352C0.958,79.175,1.238,79.021,1.4,79.021z M6.469,80.167
		c0,0.145-0.036,0.234-0.099,0.234c-0.054,0-0.099-0.063-0.145-0.216c-0.054-0.208-0.162-0.343-0.252-0.361
		c-0.126-0.027-0.667-0.036-0.929-0.036c-0.271,0-1.299-0.009-1.407,0.009c-0.063,0.009-0.135,0.108-0.325,0.37
		c-0.036,0.054-0.063,0.072-0.099,0.072c-0.063,0-0.135-0.081-0.153-0.18c-0.072-0.334-0.271-0.758-0.307-0.893
		c0-0.036,0.09-0.081,0.099-0.081c0.099,0,1.271,0.054,1.786,0.054c0.505,0,0.884-0.009,1.199-0.018
		c0.289-0.009,0.307-0.208,0.379-0.433c0.045-0.144,0.09-0.198,0.153-0.198c0.054,0,0.09,0.108,0.09,0.208
		c0,0.063-0.027,0.514-0.027,0.703C6.433,79.698,6.469,80.013,6.469,80.167z"/>
	<path d="M3.042,77.722c-0.054-0.153-0.171-0.478-0.262-0.604c-0.054-0.09-0.099-0.171-0.099-0.216s0.099-0.09,0.135-0.09
		c0.153,0,0.37,0.036,0.451,0.036c0.045,0,0.027-0.045,0.027-0.054c-0.244-0.36-0.496-0.83-0.496-1.208
		c0-0.442,0.198-0.694,0.343-0.821c0.234-0.198,0.649-0.315,1.1-0.315c0.171,0,1.515-0.018,1.641-0.027
		c0.135-0.018,0.253-0.108,0.316-0.333c0.045-0.171,0.09-0.226,0.153-0.226c0.063,0,0.099,0.126,0.099,0.271
		c0,0.208-0.018,0.415-0.018,0.667c0,0.226,0.018,0.505,0.018,0.622c0,0.081-0.036,0.208-0.108,0.208
		c-0.063,0-0.117-0.099-0.153-0.208c-0.081-0.216-0.153-0.261-0.451-0.279c-0.298-0.018-1.389-0.027-1.65-0.027
		c-0.325,0-0.586,0.163-0.667,0.271c-0.072,0.099-0.171,0.37-0.171,0.577c0,0.397,0.135,0.631,0.289,0.803
		c0.027,0.027,0.135,0.09,0.216,0.09c0.117,0,2.056,0,2.164-0.009c0.126-0.009,0.199-0.045,0.28-0.333
		c0.027-0.09,0.081-0.163,0.135-0.163c0.063,0,0.108,0.1,0.108,0.226c0,0.108-0.009,0.361-0.009,0.55
		c0,0.333,0.027,0.595,0.027,0.749c0,0.135-0.036,0.234-0.117,0.234c-0.063,0-0.108-0.09-0.135-0.189
		c-0.09-0.297-0.18-0.352-0.505-0.379c-0.271-0.027-1.055-0.045-1.975-0.045c-0.099,0-0.189,0.018-0.352,0.216
		c-0.081,0.117-0.126,0.171-0.153,0.171C3.159,77.884,3.069,77.785,3.042,77.722z"/>
	<path d="M3.114,71.218c-0.072-0.18-0.307-0.586-0.37-0.685c-0.027-0.036-0.036-0.054-0.036-0.072
		c0.009-0.045,0.072-0.108,0.09-0.108c0.126,0,0.379,0.036,0.469,0.036c0.027,0,0.09-0.018,0.054-0.054
		c-0.18-0.225-0.523-0.784-0.523-1.208c0-0.324,0.063-0.541,0.18-0.703c0.118-0.162,0.253-0.252,0.316-0.289
		c0.036-0.018,0.054-0.036,0.036-0.072c-0.126-0.171-0.271-0.406-0.388-0.64c-0.1-0.208-0.145-0.415-0.145-0.577
		c0-0.333,0.108-0.586,0.307-0.775c0.226-0.199,0.541-0.28,0.866-0.298c0.469-0.036,1.1-0.018,1.84-0.018
		c0.162-0.009,0.333-0.063,0.424-0.388c0.036-0.117,0.072-0.171,0.126-0.171c0.063,0,0.099,0.081,0.099,0.252
		c0,0.181-0.027,0.424-0.027,0.649c0,0.271,0.018,0.406,0.018,0.613c0,0.171-0.054,0.226-0.117,0.226c-0.054,0-0.09-0.1-0.117-0.199
		c-0.09-0.289-0.199-0.325-0.514-0.325c-0.216,0-1.227,0.018-1.524,0.018c-0.316,0-0.442,0.054-0.604,0.145
		c-0.171,0.108-0.315,0.307-0.315,0.685c0,0.406,0.171,0.568,0.28,0.695c0.027,0.027,0.198,0.09,0.261,0.09s1.768,0.018,1.966,0
		c0.289-0.027,0.379-0.072,0.451-0.378c0.027-0.1,0.081-0.189,0.126-0.189c0.063,0,0.108,0.072,0.108,0.216
		c0,0.198-0.018,0.469-0.018,0.676c0,0.189,0.018,0.451,0.018,0.64c0,0.208-0.072,0.235-0.108,0.235
		c-0.027,0-0.09-0.036-0.126-0.181c-0.072-0.307-0.163-0.343-0.487-0.343H3.962c-0.262,0-0.379,0.054-0.46,0.118
		c-0.153,0.117-0.271,0.352-0.271,0.676c0,0.297,0.108,0.505,0.279,0.721c0.054,0.063,0.126,0.09,0.226,0.099
		c0.234,0.018,1.371,0.018,2.056,0.018c0.171,0,0.315-0.036,0.406-0.325c0.054-0.171,0.09-0.243,0.162-0.243
		c0.063,0,0.09,0.126,0.09,0.243c0,0.036-0.018,0.37-0.018,0.712c0,0.298,0.027,0.478,0.027,0.677c0,0.135-0.036,0.225-0.099,0.225
		c-0.036,0-0.099-0.054-0.135-0.216c-0.072-0.289-0.208-0.343-0.595-0.379c-0.261-0.018-1.163-0.027-1.786-0.027
		c-0.045,0-0.162-0.018-0.243,0.063c-0.234,0.252-0.28,0.316-0.325,0.316C3.222,71.399,3.168,71.317,3.114,71.218z"/>
	<path d="M1.4,63.371c0.244,0,0.442,0.252,0.442,0.433c0,0.063-0.036,0.208-0.108,0.289c-0.081,0.072-0.181,0.135-0.334,0.135
		c-0.081,0-0.225-0.036-0.324-0.108c-0.082-0.09-0.118-0.226-0.118-0.352C0.958,63.524,1.238,63.371,1.4,63.371z M6.469,64.516
		c0,0.145-0.036,0.234-0.099,0.234c-0.054,0-0.099-0.063-0.145-0.216c-0.054-0.208-0.162-0.343-0.252-0.361
		c-0.126-0.027-0.667-0.036-0.929-0.036c-0.271,0-1.299-0.009-1.407,0.009c-0.063,0.009-0.135,0.108-0.325,0.37
		c-0.036,0.054-0.063,0.072-0.099,0.072c-0.063,0-0.135-0.081-0.153-0.18c-0.072-0.334-0.271-0.758-0.307-0.893
		c0-0.036,0.09-0.081,0.099-0.081c0.099,0,1.271,0.054,1.786,0.054c0.505,0,0.884-0.009,1.199-0.018
		c0.289-0.009,0.307-0.208,0.379-0.433c0.045-0.144,0.09-0.198,0.153-0.198c0.054,0,0.09,0.108,0.09,0.208
		c0,0.063-0.027,0.514-0.027,0.703C6.433,64.047,6.469,64.363,6.469,64.516z"/>
	<path d="M0.354,62.216c-0.144-0.415-0.198-0.685-0.352-0.929c-0.018-0.027,0.054-0.081,0.09-0.081
		c0.226,0.027,1.245,0.081,2.453,0.081c1.316,0,3.039,0.018,3.283-0.027c0.18-0.036,0.289-0.072,0.396-0.46
		c0.036-0.135,0.081-0.208,0.135-0.208c0.063,0,0.099,0.126,0.099,0.234c0,0.216-0.027,0.604-0.027,0.767
		c0,0.208,0.027,0.604,0.027,0.793c0,0.18-0.027,0.252-0.099,0.252c-0.063,0-0.108-0.099-0.126-0.198
		c-0.09-0.415-0.252-0.433-0.704-0.469c-0.37-0.027-1.316-0.054-2.741-0.054c-0.667,0-1.642,0-1.885,0.027
		c-0.072,0.009-0.126,0.009-0.252,0.216c-0.108,0.153-0.136,0.181-0.171,0.181C0.445,62.342,0.381,62.315,0.354,62.216z"/>
	<path d="M0.354,60.015C0.21,59.6,0.156,59.33,0.003,59.086c-0.018-0.027,0.054-0.081,0.09-0.081
		c0.226,0.027,1.245,0.081,2.453,0.081c1.316,0,3.039,0.018,3.283-0.027c0.18-0.036,0.289-0.072,0.396-0.46
		c0.036-0.135,0.081-0.208,0.135-0.208c0.063,0,0.099,0.126,0.099,0.234c0,0.216-0.027,0.604-0.027,0.767
		c0,0.208,0.027,0.604,0.027,0.793c0,0.18-0.027,0.252-0.099,0.252c-0.063,0-0.108-0.099-0.126-0.198
		c-0.09-0.415-0.252-0.433-0.704-0.469c-0.37-0.027-1.316-0.054-2.741-0.054c-0.667,0-1.642,0-1.885,0.027
		c-0.072,0.009-0.126,0.009-0.252,0.216c-0.108,0.153-0.136,0.181-0.171,0.181C0.445,60.141,0.381,60.114,0.354,60.015z"/>
	<path d="M1.4,56.687c0.244,0,0.442,0.252,0.442,0.433c0,0.063-0.036,0.208-0.108,0.289C1.653,57.48,1.554,57.543,1.4,57.543
		c-0.081,0-0.225-0.036-0.324-0.108c-0.082-0.09-0.118-0.226-0.118-0.352C0.958,56.84,1.238,56.687,1.4,56.687z M6.469,57.832
		c0,0.145-0.036,0.234-0.099,0.234c-0.054,0-0.099-0.063-0.145-0.216c-0.054-0.208-0.162-0.343-0.252-0.361
		c-0.126-0.027-0.667-0.036-0.929-0.036c-0.271,0-1.299-0.009-1.407,0.009c-0.063,0.009-0.135,0.108-0.325,0.37
		c-0.036,0.054-0.063,0.072-0.099,0.072c-0.063,0-0.135-0.081-0.153-0.18c-0.072-0.334-0.271-0.758-0.307-0.893
		c0-0.036,0.09-0.081,0.099-0.081c0.099,0,1.271,0.054,1.786,0.054c0.505,0,0.884-0.009,1.199-0.018
		c0.289-0.009,0.307-0.208,0.379-0.433c0.045-0.144,0.09-0.198,0.153-0.198c0.054,0,0.09,0.108,0.09,0.208
		c0,0.063-0.027,0.514-0.027,0.703C6.433,57.363,6.469,57.678,6.469,57.832z"/>
	<path d="M4.629,51.969c0.749,0,1.335,0.451,1.551,0.785c0.261,0.361,0.361,0.712,0.361,1.118c0,0.415-0.189,0.866-0.469,1.199
		c-0.315,0.388-0.929,0.667-1.379,0.667c-0.686,0-1.119-0.289-1.407-0.631c-0.243-0.279-0.496-0.73-0.496-1.334
		C2.79,52.88,3.493,51.969,4.629,51.969z M3.321,54.53c0.217,0.234,0.686,0.442,1.154,0.442c0.298,0,0.577-0.036,0.803-0.108
		c0.676-0.226,1.001-0.74,1.001-1.172c0-0.1-0.045-0.298-0.297-0.55c-0.244-0.226-0.803-0.406-1.19-0.406
		c-0.469,0-0.983,0.108-1.38,0.451C3.195,53.385,3.06,53.71,3.06,53.944C3.06,54.134,3.159,54.341,3.321,54.53z"/>
	<path d="M3.042,51.039c-0.054-0.153-0.171-0.478-0.262-0.604c-0.054-0.09-0.099-0.171-0.099-0.216s0.099-0.09,0.135-0.09
		c0.153,0,0.37,0.036,0.451,0.036c0.045,0,0.027-0.045,0.027-0.054c-0.244-0.36-0.496-0.83-0.496-1.208
		c0-0.442,0.198-0.694,0.343-0.821c0.234-0.198,0.649-0.315,1.1-0.315c0.171,0,1.515-0.018,1.641-0.027
		c0.135-0.018,0.253-0.108,0.316-0.333c0.045-0.171,0.09-0.226,0.153-0.226c0.063,0,0.099,0.126,0.099,0.271
		c0,0.208-0.018,0.415-0.018,0.667c0,0.226,0.018,0.505,0.018,0.622c0,0.081-0.036,0.208-0.108,0.208
		c-0.063,0-0.117-0.099-0.153-0.208c-0.081-0.216-0.153-0.261-0.451-0.279c-0.298-0.018-1.389-0.027-1.65-0.027
		c-0.325,0-0.586,0.163-0.667,0.271c-0.072,0.099-0.171,0.37-0.171,0.577c0,0.397,0.135,0.631,0.289,0.803
		c0.027,0.027,0.135,0.09,0.216,0.09c0.117,0,2.056,0,2.164-0.009c0.126-0.009,0.199-0.045,0.28-0.333
		c0.027-0.09,0.081-0.163,0.135-0.163c0.063,0,0.108,0.1,0.108,0.226c0,0.108-0.009,0.361-0.009,0.55
		c0,0.333,0.027,0.595,0.027,0.749c0,0.135-0.036,0.234-0.117,0.234c-0.063,0-0.108-0.09-0.135-0.189
		c-0.09-0.297-0.18-0.352-0.505-0.379c-0.271-0.027-1.055-0.045-1.975-0.045c-0.099,0-0.189,0.018-0.352,0.216
		c-0.081,0.117-0.126,0.171-0.153,0.171C3.159,51.201,3.069,51.102,3.042,51.039z"/>
	<path d="M2.843,44.851c0.018-0.099,0.09-0.271,0.1-0.289c0.009-0.018,0.072-0.072,0.126-0.072c0.163,0,0.469-0.027,0.532-0.027
		c0.081,0,0.162,0.036,0.162,0.108c0,0.036-0.054,0.09-0.153,0.135c-0.424,0.198-0.604,0.424-0.604,0.721
		c0,0.37,0.37,0.542,0.559,0.542c0.307,0,0.541-0.289,0.875-0.893c0.298-0.505,0.604-0.703,1.01-0.703
		c0.415,0,0.721,0.297,0.884,0.523c0.108,0.162,0.208,0.478,0.208,0.757c0,0.271-0.072,0.722-0.199,0.875
		c-0.045,0.027-0.424,0.135-0.685,0.135c-0.099,0-0.189-0.018-0.189-0.072c0-0.072,0.108-0.135,0.208-0.189
		c0.46-0.252,0.64-0.496,0.64-0.821c0-0.117-0.063-0.261-0.135-0.36c-0.108-0.135-0.325-0.208-0.496-0.208
		c-0.244,0-0.433,0.126-0.604,0.406c-0.153,0.216-0.199,0.271-0.379,0.55c-0.171,0.271-0.487,0.559-0.911,0.559
		c-0.307,0-0.604-0.153-0.812-0.496c-0.108-0.171-0.189-0.415-0.189-0.722C2.79,45.14,2.816,44.951,2.843,44.851z"/>
</g>
<rect x="48.57" y="5.17" fill="#FFFFFF" stroke="#000000" stroke-width="0.5" stroke-miterlimit="10" width="174.324" height="18.559"/>
<line fill="none" stroke="#9CBB59" stroke-miterlimit="2.613" x1="55.051" y1="14.4" x2="70.788" y2="14.4"/>
<g>
	<path d="M74.204,12.51c-0.027-0.415-0.027-0.55-0.532-0.64c-0.198-0.036-0.252-0.1-0.252-0.163c0-0.071,0.099-0.107,0.226-0.107
		c0.234,0,0.685,0.026,0.983,0.026c0.442,0,0.649-0.026,0.965-0.026c0.144,0,0.225,0.036,0.225,0.107
		c0,0.072-0.09,0.127-0.234,0.153c-0.523,0.108-0.514,0.334-0.55,0.577c-0.045,0.298-0.054,0.884-0.054,2.651
		c0,0.496,0.009,1.056,0.027,1.344c0.027,0.487,0.072,0.658,0.659,0.775c0.162,0.027,0.234,0.091,0.234,0.153
		c0,0.072-0.135,0.117-0.244,0.117c-0.46,0-1.1-0.054-1.344-0.054c-0.271,0-0.352,0.018-0.685,0.018
		c-0.171,0-0.235-0.062-0.235-0.126c0-0.062,0.09-0.117,0.271-0.153c0.451-0.099,0.487-0.234,0.523-0.658
		c0.027-0.315,0.045-1.253,0.045-2.02C74.23,13.926,74.222,12.808,74.204,12.51z"/>
	<path d="M76.774,14.034c0.153-0.055,0.478-0.172,0.604-0.262c0.09-0.054,0.171-0.1,0.216-0.1s0.09,0.1,0.09,0.136
		c0,0.153-0.036,0.37-0.036,0.451c0,0.045,0.045,0.026,0.054,0.026c0.36-0.243,0.83-0.495,1.208-0.495
		c0.442,0,0.694,0.198,0.821,0.342c0.198,0.235,0.315,0.649,0.315,1.101c0,0.172,0.018,1.515,0.027,1.642
		c0.018,0.135,0.108,0.252,0.333,0.315c0.171,0.045,0.226,0.09,0.226,0.153s-0.126,0.099-0.271,0.099
		c-0.208,0-0.415-0.018-0.667-0.018c-0.226,0-0.505,0.018-0.622,0.018c-0.081,0-0.208-0.035-0.208-0.107
		c0-0.063,0.099-0.117,0.208-0.153c0.216-0.081,0.261-0.153,0.279-0.451s0.027-1.389,0.027-1.65c0-0.324-0.163-0.586-0.271-0.667
		c-0.099-0.072-0.37-0.172-0.577-0.172c-0.397,0-0.631,0.136-0.803,0.289c-0.027,0.026-0.09,0.135-0.09,0.216
		c0,0.117,0,2.057,0.009,2.165c0.009,0.126,0.045,0.198,0.333,0.279c0.09,0.027,0.163,0.081,0.163,0.135
		c0,0.063-0.1,0.108-0.226,0.108c-0.108,0-0.361-0.009-0.55-0.009c-0.333,0-0.595,0.027-0.749,0.027
		c-0.135,0-0.234-0.036-0.234-0.117c0-0.063,0.09-0.108,0.189-0.136c0.297-0.09,0.352-0.181,0.379-0.505
		C76.982,16.424,77,15.64,77,14.72c0-0.1-0.018-0.189-0.216-0.352c-0.117-0.082-0.171-0.127-0.171-0.153
		C76.612,14.151,76.711,14.062,76.774,14.034z"/>
	<path d="M83.846,13.817c0.036,0.009,0.063-0.054,0.072-0.099c0.045-0.244,0.018-1.624-0.009-1.84
		c-0.009-0.045-0.009-0.153-0.424-0.37c-0.081-0.045-0.09-0.062-0.09-0.081c0-0.036,0.099-0.145,0.153-0.153
		c0.208-0.027,0.686-0.162,0.92-0.252c0.054-0.019,0.081-0.027,0.117-0.027c0.027,0,0.081,0.063,0.072,0.145
		c-0.045,0.478-0.081,0.803-0.081,3.562c0,1.74,0.018,1.885,0.018,2.057c0.018,0.333,0.09,0.369,0.145,0.369
		c0.099,0,0.397-0.062,0.487-0.072c0.036,0,0.054,0.046,0.054,0.055c0,0.062-0.108,0.216-0.153,0.226
		c-0.171,0.026-0.64,0.117-0.812,0.18c-0.208,0.072-0.28,0.091-0.325,0.091c-0.036,0-0.099-0.072-0.099-0.117
		c0-0.081,0.018-0.244,0.018-0.37c0-0.036-0.036-0.054-0.054-0.054c-0.415,0.369-0.875,0.45-1.172,0.45
		c-0.433,0-0.848-0.198-1.127-0.496c-0.289-0.324-0.433-0.784-0.433-1.235c0-0.884,0.514-1.397,0.956-1.659
		c0.415-0.252,0.947-0.343,1.19-0.343C83.593,13.781,83.738,13.8,83.846,13.817z M82.232,14.395
		c-0.171,0.172-0.379,0.632-0.379,1.137c0,0.722,0.505,1.551,1.281,1.551c0.289,0,0.496-0.099,0.658-0.217
		c0.018-0.018,0.135-0.306,0.144-0.595c0.009-0.577,0-1.073-0.027-1.497c-0.009-0.072-0.09-0.234-0.198-0.343
		c-0.253-0.252-0.595-0.352-0.776-0.352C82.646,14.079,82.394,14.232,82.232,14.395z"/>
	<path d="M85.813,17.461c-0.145,0-0.234-0.036-0.234-0.1c0-0.054,0.063-0.099,0.216-0.144c0.208-0.055,0.343-0.163,0.361-0.253
		c0.027-0.126,0.036-0.667,0.036-0.929c0-0.271,0.009-1.299-0.009-1.407c-0.009-0.062-0.108-0.135-0.37-0.324
		c-0.054-0.036-0.072-0.063-0.072-0.1c0-0.062,0.081-0.135,0.18-0.153c0.334-0.072,0.758-0.271,0.893-0.307
		c0.036,0,0.081,0.091,0.081,0.1c0,0.1-0.054,1.271-0.054,1.785c0,0.505,0.009,0.884,0.018,1.2c0.009,0.288,0.208,0.306,0.433,0.378
		c0.144,0.046,0.198,0.091,0.198,0.153c0,0.055-0.108,0.091-0.208,0.091c-0.063,0-0.514-0.027-0.703-0.027
		C86.282,17.425,85.967,17.461,85.813,17.461z M86.958,12.393c0,0.244-0.252,0.442-0.433,0.442c-0.063,0-0.208-0.036-0.289-0.108
		c-0.072-0.081-0.135-0.181-0.135-0.334c0-0.081,0.036-0.226,0.108-0.324c0.09-0.081,0.226-0.117,0.352-0.117
		C86.805,11.951,86.958,12.23,86.958,12.393z"/>
	<path d="M90.305,14.205c0.135,0.189,0.18,0.37,0.18,0.749c0,0.352-0.036,1.487-0.036,1.587c0,0.415,0.289,0.451,0.361,0.451
		c0.036,0,0.244-0.063,0.343-0.136c0.027-0.018,0.036,0,0.054,0.027c0.027,0.027,0.027,0.081,0.027,0.09
		c0,0.172-0.406,0.56-0.812,0.56c-0.208,0-0.469-0.117-0.577-0.451c0-0.009-0.036-0.045-0.054-0.036
		c-0.333,0.234-0.722,0.388-0.812,0.415c-0.099,0.036-0.316,0.054-0.361,0.054c-0.315,0-0.622-0.388-0.622-0.838
		c0-0.163,0.072-0.334,0.171-0.46c0.09-0.117,0.225-0.163,0.36-0.226c0.135-0.055,0.857-0.253,1.055-0.315
		c0.208-0.063,0.262-0.108,0.262-0.163c0.009-0.081,0.018-0.631,0.018-0.739c0-0.226-0.262-0.604-0.704-0.604
		c-0.189,0-0.307,0.055-0.37,0.1c-0.054,0.027-0.081,0.189-0.063,0.37c0,0.026-0.036,0.081-0.054,0.099
		c-0.09,0.072-0.541,0.298-0.586,0.298c-0.054,0-0.108-0.072-0.108-0.117c0-0.262,0.252-0.515,0.676-0.794
		c0.261-0.189,0.667-0.343,0.838-0.343C89.944,13.781,90.17,14.007,90.305,14.205z M89.71,16.893
		c0.054-0.036,0.108-0.207,0.108-0.226c0.018-0.216,0.018-0.522,0.018-0.703c0-0.027-0.036-0.072-0.072-0.072
		c-0.253,0-0.686,0.153-0.929,0.271c-0.09,0.063-0.18,0.126-0.18,0.343c0,0.396,0.379,0.541,0.568,0.541
		C89.358,17.046,89.539,16.983,89.71,16.893z"/>
</g>
<line fill="none" stroke="#BF2026" stroke-miterlimit="2.613" x1="111.562" y1="14.4" x2="127.3" y2="14.4"/>
<g>
	<path d="M134.982,11.608c0.234,0.036,0.55,0.153,0.685,0.171c0.046,0,0.136,0.063,0.136,0.271c0,0.189,0.045,0.587,0.063,0.785
		c0.009,0.189-0.063,0.297-0.136,0.297c-0.045,0-0.099-0.099-0.145-0.234c-0.081-0.315-0.252-0.586-0.369-0.676
		c-0.496-0.37-0.956-0.469-1.443-0.469c-1.451,0-2.381,1.199-2.381,2.561c0,0.604,0.117,1.092,0.316,1.488
		c0.505,1.037,1.551,1.442,2.281,1.442c0.171,0,0.613-0.026,0.982-0.243c0.397-0.207,0.623-0.496,0.839-0.875
		c0.117-0.189,0.153-0.234,0.189-0.234c0.091,0,0.1,0.198,0.081,0.298c-0.026,0.226-0.234,0.703-0.36,0.911
		c-0.036,0.081-0.189,0.188-0.279,0.234c-0.145,0.062-0.875,0.252-1.642,0.252c-1.271,0-2.2-0.631-2.562-1.055
		c-0.343-0.397-0.757-1.046-0.757-2.074s0.613-1.849,0.992-2.164c0.775-0.632,1.613-0.83,2.443-0.83
		C134.233,11.464,134.64,11.527,134.982,11.608z"/>
	<path d="M140.07,14.196c0.18,0.243,0.262,0.586,0.262,0.974c0.009,0.568,0.026,1.128,0.036,1.669c0,0.226,0.117,0.297,0.352,0.352
		c0.18,0.036,0.252,0.09,0.252,0.145c0,0.081-0.072,0.117-0.243,0.117c-0.307,0-0.406-0.027-0.713-0.027
		c-0.207,0-0.388,0.018-0.648,0.018c-0.136,0-0.181-0.045-0.181-0.107c0-0.055,0.081-0.1,0.189-0.127
		c0.226-0.072,0.252-0.099,0.288-0.441c0.019-0.172,0-1.163,0-1.308c0-0.496-0.045-0.784-0.144-0.902
		c-0.145-0.171-0.379-0.297-0.73-0.297c-0.389,0-0.686,0.171-0.722,0.207c-0.019,0.019-0.136,0.162-0.145,0.442
		c-0.027,0.378-0.027,1.551-0.018,1.875c0.018,0.298,0.144,0.352,0.352,0.406c0.126,0.036,0.198,0.099,0.198,0.145
		c0,0.081-0.1,0.107-0.226,0.107c-0.072,0-0.523-0.018-0.739-0.018c-0.208,0-0.532,0.027-0.686,0.027
		c-0.081,0-0.207-0.027-0.207-0.117c0-0.046,0.071-0.1,0.261-0.153c0.234-0.081,0.325-0.181,0.353-0.515
		c0.026-0.379,0.09-1.596,0.09-2.507c0-0.36,0.009-1.885-0.027-2.146c-0.027-0.234-0.045-0.252-0.298-0.414
		c-0.036-0.019-0.09-0.108-0.09-0.181c0-0.019,0.009-0.036,0.027-0.045c0.279-0.081,0.686-0.172,0.901-0.315
		c0.036-0.019,0.117-0.063,0.172-0.063c0.036,0,0.054,0.072,0.054,0.099c-0.09,0.649-0.126,2.896-0.126,3.157
		c0,0.054,0.054,0.062,0.062,0.054c0.37-0.334,0.758-0.523,1.137-0.523C139.565,13.781,139.881,13.935,140.07,14.196z"/>
	<path d="M141.604,17.461c-0.144,0-0.234-0.036-0.234-0.1c0-0.054,0.063-0.099,0.217-0.144c0.207-0.055,0.343-0.163,0.36-0.253
		c0.027-0.126,0.036-0.667,0.036-0.929c0-0.271,0.009-1.299-0.009-1.407c-0.009-0.062-0.108-0.135-0.37-0.324
		c-0.054-0.036-0.071-0.063-0.071-0.1c0-0.062,0.081-0.135,0.18-0.153c0.334-0.072,0.758-0.271,0.893-0.307
		c0.036,0,0.082,0.091,0.082,0.1c0,0.1-0.055,1.271-0.055,1.785c0,0.505,0.009,0.884,0.019,1.2c0.009,0.288,0.207,0.306,0.433,0.378
		c0.145,0.046,0.198,0.091,0.198,0.153c0,0.055-0.108,0.091-0.207,0.091c-0.063,0-0.515-0.027-0.704-0.027
		C142.074,17.425,141.758,17.461,141.604,17.461z M142.75,12.393c0,0.244-0.252,0.442-0.433,0.442c-0.063,0-0.207-0.036-0.289-0.108
		c-0.071-0.081-0.135-0.181-0.135-0.334c0-0.081,0.036-0.226,0.108-0.324c0.09-0.081,0.226-0.117,0.352-0.117
		C142.597,11.951,142.75,12.23,142.75,12.393z"/>
	<path d="M144.05,14.034c0.153-0.055,0.478-0.172,0.604-0.262c0.091-0.054,0.172-0.1,0.217-0.1s0.09,0.1,0.09,0.136
		c0,0.153-0.036,0.37-0.036,0.451c0,0.045,0.046,0.026,0.055,0.026c0.36-0.243,0.829-0.495,1.208-0.495
		c0.442,0,0.694,0.198,0.821,0.342c0.198,0.235,0.315,0.649,0.315,1.101c0,0.172,0.018,1.515,0.026,1.642
		c0.019,0.135,0.108,0.252,0.334,0.315c0.172,0.045,0.226,0.09,0.226,0.153s-0.126,0.099-0.271,0.099
		c-0.207,0-0.415-0.018-0.667-0.018c-0.226,0-0.506,0.018-0.623,0.018c-0.081,0-0.207-0.035-0.207-0.107
		c0-0.063,0.1-0.117,0.207-0.153c0.217-0.081,0.262-0.153,0.28-0.451c0.018-0.298,0.026-1.389,0.026-1.65
		c0-0.324-0.162-0.586-0.271-0.667c-0.099-0.072-0.369-0.172-0.577-0.172c-0.396,0-0.631,0.136-0.803,0.289
		c-0.026,0.026-0.09,0.135-0.09,0.216c0,0.117,0,2.057,0.009,2.165c0.01,0.126,0.046,0.198,0.334,0.279
		c0.09,0.027,0.162,0.081,0.162,0.135c0,0.063-0.099,0.108-0.226,0.108c-0.107,0-0.36-0.009-0.55-0.009
		c-0.334,0-0.595,0.027-0.748,0.027c-0.136,0-0.234-0.036-0.234-0.117c0-0.063,0.09-0.108,0.188-0.136
		c0.298-0.09,0.353-0.181,0.379-0.505c0.027-0.271,0.046-1.055,0.046-1.975c0-0.1-0.019-0.189-0.217-0.352
		c-0.117-0.082-0.172-0.127-0.172-0.153C143.887,14.151,143.986,14.062,144.05,14.034z"/>
	<path d="M150.797,14.205c0.135,0.189,0.181,0.37,0.181,0.749c0,0.352-0.036,1.487-0.036,1.587c0,0.415,0.288,0.451,0.36,0.451
		c0.036,0,0.243-0.063,0.343-0.136c0.027-0.018,0.036,0,0.054,0.027c0.027,0.027,0.027,0.081,0.027,0.09
		c0,0.172-0.406,0.56-0.812,0.56c-0.207,0-0.469-0.117-0.577-0.451c0-0.009-0.036-0.045-0.055-0.036
		c-0.333,0.234-0.721,0.388-0.812,0.415c-0.099,0.036-0.315,0.054-0.36,0.054c-0.315,0-0.622-0.388-0.622-0.838
		c0-0.163,0.072-0.334,0.171-0.46c0.091-0.117,0.226-0.163,0.361-0.226c0.135-0.055,0.856-0.253,1.055-0.315
		c0.207-0.063,0.262-0.108,0.262-0.163c0.009-0.081,0.018-0.631,0.018-0.739c0-0.226-0.261-0.604-0.703-0.604
		c-0.189,0-0.307,0.055-0.37,0.1c-0.054,0.027-0.081,0.189-0.062,0.37c0,0.026-0.036,0.081-0.055,0.099
		c-0.09,0.072-0.541,0.298-0.586,0.298c-0.054,0-0.108-0.072-0.108-0.117c0-0.262,0.253-0.515,0.677-0.794
		c0.262-0.189,0.667-0.343,0.839-0.343C150.436,13.781,150.661,14.007,150.797,14.205z M150.201,16.893
		c0.055-0.036,0.108-0.207,0.108-0.226c0.019-0.216,0.019-0.522,0.019-0.703c0-0.027-0.036-0.072-0.072-0.072
		c-0.253,0-0.686,0.153-0.929,0.271c-0.091,0.063-0.181,0.126-0.181,0.343c0,0.396,0.379,0.541,0.568,0.541
		C149.85,17.046,150.03,16.983,150.201,16.893z"/>
</g>
<line fill="none" stroke="#4E81BE" stroke-miterlimit="2.613" x1="173.771" y1="14.4" x2="189.508" y2="14.4"/>
<g>
	<path d="M195.181,11.626c0.297,0,0.694-0.009,0.829-0.026c0.027-0.01,0.072,0.054,0.081,0.099c0,0.415,0.019,0.677,0.019,0.856
		c0,0.127-0.055,0.235-0.136,0.235s-0.126-0.127-0.144-0.217c-0.117-0.479-0.316-0.568-0.604-0.613
		c-0.234-0.036-0.884-0.054-1.28-0.036c-0.019,0-0.117,0.045-0.136,0.253c-0.018,0.225-0.045,1.921-0.027,2.056
		c0.01,0.036,0.019,0.09,0.063,0.09h0.586c0.848,0,0.884-0.036,1.046-0.45c0.055-0.136,0.108-0.189,0.163-0.189
		c0.062,0,0.081,0.126,0.072,0.198c-0.019,0.252-0.027,0.433-0.027,0.649c0,0.243,0.018,0.369,0.027,0.55
		c0.009,0.162-0.036,0.262-0.1,0.262s-0.126-0.1-0.153-0.198c-0.126-0.415-0.162-0.442-0.713-0.469
		c-0.288-0.019-0.648-0.019-0.893-0.019c-0.036,0-0.081,0.063-0.081,0.081c-0.036,0.189-0.027,1.028-0.027,1.416
		c0,0.262,0.036,0.604,0.091,0.748c0.036,0.108,0.108,0.181,0.171,0.199c0.153,0.026,0.46,0.062,0.821,0.062
		c0.107,0,0.658-0.009,0.856-0.062c0.288-0.072,0.532-0.244,0.748-0.668c0.1-0.198,0.153-0.252,0.208-0.252
		c0.062,0,0.09,0.144,0.072,0.243c-0.01,0.072-0.262,0.884-0.325,0.965c-0.027,0.036-0.108,0.108-0.153,0.108
		c-0.099,0-1.461-0.072-2.931-0.072c-0.478,0-0.677,0.045-1.02,0.045c-0.171,0-0.271-0.018-0.271-0.117
		c0-0.063,0.108-0.108,0.253-0.145c0.451-0.107,0.622-0.171,0.658-0.658c0.027-0.379,0.072-1.442,0.072-2.561
		c0-1.073,0.009-1.263-0.009-1.524c-0.019-0.396-0.108-0.505-0.505-0.595c-0.189-0.046-0.262-0.081-0.262-0.153
		c0-0.081,0.126-0.127,0.252-0.127c0.424,0,0.776,0.036,1.38,0.036H195.181z"/>
	<path d="M199.825,16.767c0.055-0.045,0.136-0.181,0.136-0.217l0.018-2.074c0-0.054-0.099-0.18-0.153-0.198
		c-0.135-0.036-0.333-0.09-0.414-0.108c-0.063-0.018-0.181-0.071-0.181-0.144c0-0.036,0.117-0.081,0.207-0.081
		c0.361,0,0.758-0.046,0.965-0.1c0.091-0.027,0.153-0.036,0.217-0.036c0.045,0,0.063,0.1,0.063,0.136
		c-0.019,0.252-0.091,2.254-0.091,2.993c0,0.019,0.036,0.127,0.108,0.127c0.063,0,0.343-0.046,0.451-0.046
		c0.036,0,0.099,0.145,0.108,0.172c0,0.027-0.063,0.09-0.1,0.09c-0.234,0.019-0.613,0.117-0.82,0.172
		c-0.153,0.045-0.298,0.081-0.315,0.081c-0.036,0-0.091-0.063-0.091-0.126c0-0.055,0.027-0.226,0.036-0.379
		c0-0.045-0.026-0.072-0.045-0.063c-0.262,0.181-0.622,0.415-0.739,0.46c-0.153,0.063-0.352,0.108-0.604,0.108
		c-0.324,0-0.613-0.145-0.794-0.424c-0.062-0.1-0.126-0.279-0.126-0.424c0-0.649,0-1.669-0.018-2.146
		c-0.009-0.253-0.181-0.288-0.334-0.352c-0.081-0.036-0.162-0.081-0.162-0.162c0-0.027,0.045-0.081,0.153-0.081
		c0.252,0,0.92-0.1,0.956-0.1s0.072,0.081,0.072,0.135c0.009,0.307-0.027,2.012-0.027,2.417c0,0.208,0.099,0.415,0.226,0.505
		c0.234,0.181,0.396,0.181,0.613,0.181C199.356,17.082,199.601,16.965,199.825,16.767z"/>
	<path d="M201.991,14.098c0.298-0.1,0.577-0.235,0.667-0.289c0.108-0.072,0.153-0.108,0.181-0.108c0.036,0,0.081,0.081,0.081,0.108
		c0,0.162-0.018,0.324-0.018,0.496c0,0.036,0.045,0.045,0.062,0.036c0.352-0.334,0.749-0.56,1.028-0.56
		c0.37,0,0.451,0.226,0.451,0.307c0,0.019-0.027,0.081-0.055,0.127c-0.099,0.144-0.315,0.388-0.369,0.414
		c-0.019,0.01-0.1-0.009-0.127-0.026c-0.099-0.091-0.315-0.199-0.495-0.199c-0.153,0-0.307,0.027-0.397,0.127
		c-0.062,0.072-0.09,0.153-0.09,0.198c0,0.181,0.045,1.812,0.054,1.948c0.019,0.261,0.072,0.433,0.234,0.459
		c0.117,0.027,0.28,0.072,0.415,0.108c0.145,0.045,0.162,0.108,0.162,0.145c0,0.045-0.081,0.081-0.216,0.081
		c-0.226,0-0.541-0.045-1.064-0.045c-0.271,0-0.379,0.036-0.595,0.036c-0.1,0-0.189-0.036-0.189-0.108
		c0-0.054,0.108-0.09,0.18-0.117c0.353-0.117,0.379-0.207,0.388-0.748c0-0.226,0-1.128,0-1.723c0-0.09,0-0.208-0.099-0.271
		c-0.217-0.172-0.307-0.208-0.307-0.243C201.874,14.224,201.892,14.133,201.991,14.098z"/>
	<path d="M208.539,15.621c0,0.749-0.45,1.335-0.784,1.551c-0.36,0.262-0.712,0.361-1.118,0.361c-0.415,0-0.865-0.189-1.199-0.469
		c-0.388-0.316-0.668-0.93-0.668-1.38c0-0.686,0.289-1.118,0.632-1.407c0.279-0.243,0.73-0.496,1.335-0.496
		C207.629,13.781,208.539,14.485,208.539,15.621z M205.979,14.313c-0.234,0.217-0.442,0.686-0.442,1.154
		c0,0.298,0.036,0.577,0.108,0.803c0.226,0.677,0.739,1.001,1.173,1.001c0.099,0,0.297-0.045,0.55-0.298
		c0.226-0.243,0.406-0.803,0.406-1.19c0-0.469-0.108-0.982-0.451-1.38c-0.198-0.216-0.523-0.352-0.758-0.352
		C206.375,14.052,206.168,14.151,205.979,14.313z"/>
	<path d="M212.59,14.305c0.216,0.243,0.424,0.686,0.424,1.182c0,0.45-0.189,1.118-0.767,1.551c-0.496,0.388-1.028,0.46-1.434,0.46
		c-0.208,0-0.389-0.019-0.506-0.036c-0.026,0-0.062,0.072-0.062,0.117c0,0.875,0.009,1.244,0.036,1.497
		c0.026,0.234,0.09,0.352,0.433,0.46c0.181,0.054,0.253,0.09,0.253,0.153c0,0.072-0.117,0.117-0.235,0.117
		c-0.198,0-0.721-0.045-1.072-0.045c-0.217,0-0.307,0.026-0.577,0.026c-0.136,0-0.271-0.026-0.271-0.117
		c0-0.036,0.062-0.107,0.207-0.135c0.478-0.1,0.523-0.181,0.559-0.82c0.019-0.298,0.027-1.047,0.027-1.967
		c0-0.613,0.009-1.289,0-1.821c0-0.379-0.045-0.441-0.072-0.46c-0.226-0.162-0.333-0.243-0.333-0.288
		c0-0.046,0.09-0.153,0.126-0.163c0.135-0.036,0.532-0.225,0.686-0.315c0.09-0.045,0.162-0.081,0.18-0.081
		c0.027,0,0.1,0.072,0.1,0.108c-0.019,0.145-0.019,0.315-0.027,0.46c0,0.036,0.036,0.072,0.072,0.045
		c0.217-0.145,0.46-0.271,0.586-0.324c0.145-0.063,0.415-0.108,0.668-0.108C211.913,13.8,212.319,14.007,212.59,14.305z
		 M210.39,14.422c-0.046,0.036-0.091,0.108-0.118,0.271c-0.045,0.271-0.054,1.254-0.018,1.623c0.018,0.162,0.054,0.315,0.117,0.396
		c0.243,0.343,0.677,0.496,0.902,0.496c0.099,0,0.288-0.045,0.414-0.153c0.451-0.378,0.613-1.055,0.613-1.325
		c0-0.207,0-0.694-0.369-1.101c-0.234-0.243-0.604-0.369-0.812-0.369C210.741,14.26,210.488,14.341,210.39,14.422z"/>
	<path d="M216.262,14.133c0.198,0.189,0.315,0.442,0.315,0.758c0,0.055-0.072,0.153-0.171,0.153c-0.1,0-1.642,0-2.057-0.009
		c-0.027,0-0.062,0.045-0.072,0.072c-0.026,0.072-0.045,0.226-0.045,0.315c0,0.352,0.145,0.767,0.343,1.028
		c0.198,0.271,0.577,0.496,1.01,0.496c0.397,0,0.668-0.1,0.821-0.325c0.036-0.054,0.081-0.108,0.117-0.108
		c0.054,0,0.072,0.063,0.072,0.108c0,0.072-0.036,0.172-0.063,0.217c-0.315,0.46-0.794,0.676-1.308,0.676
		c-0.974,0-1.623-0.739-1.623-1.794c0-0.722,0.379-1.443,1.082-1.768c0.234-0.108,0.532-0.162,0.686-0.162
		C215.685,13.791,216.036,13.908,216.262,14.133z M214.368,14.692c-0.019,0.045,0.018,0.1,0.036,0.1
		c0.234,0.009,0.712,0.009,1.163,0c0.216,0,0.307-0.046,0.307-0.226c0-0.253-0.271-0.541-0.596-0.541
		C214.873,14.025,214.53,14.277,214.368,14.692z"/>
</g>
</svg>
